<?xml version="1.0" encoding="UTF-8" standalone="no"?>
<!-- Created with Inkscape (http://www.inkscape.org/) -->

<svg
   xmlns:dc="http://purl.org/dc/elements/1.1/"
   xmlns:cc="http://creativecommons.org/ns#"
   xmlns:rdf="http://www.w3.org/1999/02/22-rdf-syntax-ns#"
   xmlns:svg="http://www.w3.org/2000/svg"
   xmlns="http://www.w3.org/2000/svg"
   xmlns:sodipodi="http://sodipodi.sourceforge.net/DTD/sodipodi-0.dtd"
   xmlns:inkscape="http://www.inkscape.org/namespaces/inkscape"
   id="svg5700"
   version="1.1"
   inkscape:version="0.91 r13725"
   width="500"
   height="500"
   viewBox="0 0 500 500"
   sodipodi:docname="3dhide.svg">
  <metadata
     id="metadata5706">
    <rdf:RDF>
      <cc:Work
         rdf:about="">
        <dc:format>image/svg+xml</dc:format>
        <dc:type
           rdf:resource="http://purl.org/dc/dcmitype/StillImage" />
        <dc:title></dc:title>
      </cc:Work>
    </rdf:RDF>
  </metadata>
  <defs
     id="defs5704" />
  <sodipodi:namedview
     pagecolor="#ffffff"
     bordercolor="#666666"
     borderopacity="1"
     objecttolerance="10"
     gridtolerance="10"
     guidetolerance="10"
     inkscape:pageopacity="0"
     inkscape:pageshadow="2"
     inkscape:window-width="640"
     inkscape:window-height="480"
     id="namedview5702"
     showgrid="false"
     inkscape:zoom="0.472"
     inkscape:cx="250"
     inkscape:cy="250"
     inkscape:window-x="0"
     inkscape:window-y="0"
     inkscape:window-maximized="0"
     inkscape:current-layer="svg5700" />
  <path
     style="fill:#000000"
     d="m 97.635194,447.89515 c -5.357802,-3.90767 -9.605049,-7.70599 -9.438326,-8.44071 C 88.617514,437.6007 358.31343,70.091084 359.29009,70.040733 c 1.1176,-0.05762 20.69821,14.339226 20.43052,15.02175 -0.54551,1.390878 -271.28292,369.871167 -271.78228,369.902397 -0.30892,0.0193 -4.94533,-3.16206 -10.303136,-7.06973 z M 263.89247,431.55054 c -15.85032,-4.37108 -28.60678,-17.7943 -32.01559,-33.68901 -1.44022,-6.71555 -0.60491,-19.0306 1.68633,-24.86153 2.7855,-7.08878 8.35561,-14.88933 13.58187,-19.02044 2.64048,-2.08718 5.31731,-3.96702 5.94851,-4.17742 0.76389,-0.25463 -0.61485,-5.94514 -4.12317,-17.01768 l -5.27082,-16.63513 -9.09343,0.58914 -9.09343,0.58914 2.56301,-3.41381 c 1.40965,-1.87759 4.49835,-6.0013 6.86377,-9.1638 2.36543,-3.1625 5.03421,-5.7544 5.93063,-5.75977 2.9421,-0.0176 11.82919,-4.72381 15.94904,-8.44584 C 264.81678,283.31904 270,271.97526 270,261.69738 c 0,-4.491 0.56762,-5.70726 6.25,-13.39204 l 6.25,-8.45243 1.64326,5.32355 c 1.64213,5.31988 1.64592,5.32334 5.5,5.02924 5.20475,-0.39716 83.2885,-10.13905 86.02597,-10.73278 1.55888,-0.3381 2.64011,-1.88817 3.84278,-5.50909 5.976,-17.99205 22.86795,-29.97991 42.20644,-29.95301 18.01264,0.0251 32.87312,9.51541 40.69521,25.98918 2.89498,6.09698 3.08634,7.21594 3.08634,18.04686 0,11.35969 -0.0618,11.67194 -3.81147,19.26385 -11.55588,23.3969 -37.91734,32.08587 -60.82473,20.04838 -10.81345,-5.68231 -20.39183,-17.74924 -22.51487,-28.36443 -0.55204,-2.76019 -0.89162,-2.98876 -3.72814,-2.5093 -1.71644,0.29013 -19.32079,2.57143 -39.12079,5.06954 -41.31946,5.21318 -48.62554,6.20372 -48.93658,6.63474 -0.12319,0.1707 -0.76311,2.81067 -1.42206,5.86661 -2.58796,12.00205 -10.59447,24.44603 -20.57884,31.9843 -4.74065,3.57922 -5.331,4.39664 -4.54038,6.2868 0.49983,1.19496 2.98521,8.81015 5.52307,16.92265 l 4.61428,14.75 5.81492,0 c 3.19821,0 8.74229,0.90417 12.32019,2.00927 26.76091,8.26561 39.31104,38.28164 26.50311,63.38726 -2.68167,5.25651 -11.22281,14.18225 -16.5695,17.31562 -9.95719,5.8353 -23.69898,7.77171 -34.33574,4.83839 z m 23.91105,-18.61022 c 10.52474,-5.25928 15.78803,-14.45788 15.01748,-26.24594 -1.78775,-27.34952 -36.79369,-35.70074 -51.29957,-12.23833 -4.00373,6.47581 -4.81493,17.83135 -1.76616,24.72361 6.70743,15.16324 23.26085,21.15001 38.04825,13.76066 z M 434.61974,272.69707 c 17.06221,-8.66066 19.84437,-31.57082 5.46701,-45.01915 -5.56333,-5.20385 -10.39174,-7.02222 -18.69337,-7.03991 C 406.34874,220.60596 394,233.00393 394,248.14063 c 0,11.82339 8.41397,23.20328 19.9416,26.97102 4.82496,1.57701 15.20146,0.36534 20.67814,-2.41458 z M 76,366.86706 c -11.306773,-1.16071 -20.116955,-5.75432 -28.130254,-14.66704 -23.213847,-25.81938 -8.558994,-67.27075 25.923256,-73.32413 16.356611,-2.87141 34.871508,5.20096 44.921318,19.58538 l 2.06891,2.96127 10.35839,-3.28605 c 5.69711,-1.80732 18.88159,-5.96311 29.29884,-9.23507 10.41726,-3.27196 19.08567,-6.09421 19.26313,-6.27168 0.17746,-0.17746 -0.42254,-2.07925 -1.33334,-4.2262 -2.20867,-5.20632 -3.00335,-21.53188 -1.38903,-28.53566 2.35529,-10.21848 7.67022,-19.62276 15.41956,-27.28351 3.94146,-3.89641 9.4012,-8.20937 12.13276,-9.58437 2.73155,-1.375 5.13061,-2.58915 5.33124,-2.69812 0.36234,-0.19678 -2.53179,-9.80141 -9.88405,-32.80188 -4.88574,-15.28431 -15.28184,-48.24773 -17.58259,-55.75 l -1.76338,-5.75 -4.18089,0 c -19.92466,0 -37.58,-12.6498 -43.96457,-31.5 -2.02422,-5.976404 -2.25687,-19.641854 -0.42883,-25.188401 8.22275,-24.949134 33.1839,-38.209512 57.05616,-30.310553 31.30152,10.357185 40.87147,49.921722 17.71579,73.241444 -2.93283,2.95361 -6.45313,6.07188 -7.8229,6.9295 l -2.49047,1.55931 7.80573,24.88435 c 12.4692,39.75127 19.71293,62.61878 21.02854,66.38435 1.20043,3.43587 1.34574,3.51062 7.93116,4.07974 3.68958,0.31885 6.99826,0.86967 7.35263,1.22404 0.35436,0.35436 -1.86274,3.97519 -4.92689,8.04629 -5.26843,6.99974 -5.8331,7.43984 -10.39071,8.09833 -7.05223,1.01893 -14.56822,4.76871 -20.29472,10.12518 -9.38741,8.78083 -12.41608,16.56843 -11.86776,30.51555 l 0.34297,8.72389 -11,15.10594 -11,15.10595 -14.5,4.55048 c -7.975,2.50277 -18.23124,5.76591 -22.79164,7.25143 l -8.29163,2.70094 -0.37295,6.98612 c -0.97316,18.22913 -12.77593,34.31287 -29.663359,40.42254 C 90.552352,366.86405 83.059144,367.59173 76,366.86706 Z M 93.704096,347.3763 c 11.959954,-5.696 17.750434,-19.42121 13.851624,-32.83261 -2.17547,-7.48338 -9.682063,-15.37653 -16.992348,-17.8674 -13.10339,-4.46477 -26.685243,0.6042 -33.47558,12.49363 -3.589681,6.2853 -4.553377,12.27039 -3.101679,19.26319 3.750067,18.06397 22.643459,27.07503 39.717983,18.94319 z M 183.96637,97.417347 c 7.24632,-2.151926 15.02043,-9.850797 17.5072,-17.337767 3.6144,-10.881957 -0.34181,-23.992144 -9.29001,-30.785401 -18.68261,-14.1834 -44.64845,-1.408175 -44.51206,21.899994 0.1135,19.396902 17.34888,31.849527 36.29487,26.223174 z"
     id="path5710"
     inkscape:connector-curvature="0" />
</svg>
