<?xml version="1.0" encoding="UTF-8" standalone="no"?>
<svg
   xmlns:dc="http://purl.org/dc/elements/1.1/"
   xmlns:cc="http://creativecommons.org/ns#"
   xmlns:rdf="http://www.w3.org/1999/02/22-rdf-syntax-ns#"
   xmlns:svg="http://www.w3.org/2000/svg"
   xmlns="http://www.w3.org/2000/svg"
   version="1.1"
   id="svg4529"
   viewBox="0 0 448.97141 503.67032"
   height="142.14696mm"
   width="126.70971mm">
  <defs
     id="defs4531" />
  <metadata
     id="metadata4534">
    <rdf:RDF>
      <cc:Work
         rdf:about="">
        <dc:format>image/svg+xml</dc:format>
        <dc:type
           rdf:resource="http://purl.org/dc/dcmitype/StillImage" />
        <dc:title></dc:title>
      </cc:Work>
    </rdf:RDF>
  </metadata>
  <g
     transform="translate(-102.65711,-276.86303)"
     id="layer1">
    <path
       id="path4650"
       d="M 298.93672,770.40207 C 245.10452,741.56888 123.87511,669.73763 113.56961,660.56783 c -9.69462,-8.6263 -10.9125,-23.41286 -10.9125,-132.49134 0,-109.04759 1.22062,-123.87654 10.9125,-132.57234 23.78254,-21.3383 198.94335,-118.64112 213.57321,-118.64112 14.62986,0 189.79069,97.30282 213.5732,118.64112 9.69186,8.6958 10.9125,23.52475 10.9125,132.57234 0,109.07062 -1.21858,123.86797 -10.9125,132.51192 -13.4508,11.99389 -189.69316,114.43439 -205.51847,119.45713 -6.30486,2.00111 -22.62222,-2.33845 -36.26083,-9.64347 z m 87.00165,-89.54067 c 29.39603,-36.00583 53.4473,-66.87261 53.4473,-68.59286 0,-1.72024 -50.50928,-3.12777 -112.24285,-3.12777 -61.73357,0 -112.24285,1.59522 -112.24285,3.54488 0,6.43632 106.88772,133.64083 112.29604,133.64083 2.91227,0 29.34633,-29.45926 58.74236,-65.46508 z M 232.26116,665.60685 c -21.5524,-27.24758 -41.99226,-49.68224 -45.4219,-49.85472 -3.42965,-0.17273 -14.32346,6.15801 -24.20848,14.06795 l -17.97276,14.38162 61.62276,35.41174 c 33.89252,19.47645 62.42012,35.43931 63.39467,35.47311 0.97454,0.0312 -15.86188,-22.23213 -37.41429,-49.4797 z m 240.7718,-0.66012 36.76515,-20.60909 -18.05801,-14.44959 c -9.93193,-7.94729 -20.86407,-14.34401 -24.29371,-14.21499 -3.42965,0.12908 -17.46,14.50701 -31.17857,31.95098 -13.71858,17.44398 -31.95804,40.43686 -40.53215,51.09526 l -15.58928,19.37891 28.06071,-16.27116 c 15.43339,-8.94918 44.605,-25.54529 64.82586,-36.88032 z m -312.31454,-57.42444 17.52917,-14.02792 -19.63395,-51.41608 c -10.79867,-28.27884 -20.79134,-51.41608 -22.20595,-51.41608 -1.4146,0 -2.572,29.46374 -2.572,65.47499 0,36.01125 2.10455,65.46103 4.67678,65.44401 2.57223,-0.0187 12.56491,-6.34353 22.20595,-14.05892 z M 520.44995,556.1372 c 0,-36.01125 -1.15741,-65.47499 -2.57198,-65.47499 -1.41463,0 -11.4073,23.13724 -22.206,51.41608 l -19.63389,51.41608 17.52915,14.02792 c 9.64104,7.71539 19.63371,14.0419 22.20594,14.05892 2.57223,0.0187 4.67678,-29.43276 4.67678,-65.44401 z m -75.86787,28.65916 C 439.46312,570.91323 330.2623,384.65507 327.24178,384.65507 c -3.48759,0 -118.57753,196.48997 -118.57753,202.4442 0,1.83392 53.5492,3.33436 118.99819,3.33436 68.28606,0 118.11241,-2.40237 116.91964,-5.63727 z M 251.77251,472.98209 c 28.29322,-49.16496 50.33151,-90.50153 48.97399,-91.85906 -5.68279,-5.68279 -160.6751,43.17861 -160.6751,50.65292 0,4.3619 9.89374,34.1276 21.98609,66.14599 12.09234,32.0184 23.40862,62.19209 25.14728,67.05264 4.3382,12.12778 6.06446,9.66829 64.56774,-91.99249 z m 239.59133,27.87795 c 26.0381,-70.09414 27.00837,-76.69692 11.9379,-81.23966 -59.04866,-17.79924 -147.59997,-40.65997 -149.63076,-38.6292 -1.40434,1.40433 21.94348,45.0281 51.88401,96.9417 29.94053,51.91362 56.35464,92.15 58.69796,89.4142 2.34326,-2.73579 14.54318,-32.65493 27.11089,-66.48704 z M 295.96425,359.98029 c 11.93433,-3.22142 16.05525,-8.9683 17.57677,-24.51179 1.90252,-19.43588 1.36942,-19.97977 -12.47143,-12.72382 -31.84341,16.69365 -111.11248,63.1322 -111.11248,65.09351 0,1.15039 20.34402,-3.70022 45.20893,-10.77914 24.86491,-7.07892 52.2241,-14.76437 60.79821,-17.07876 z m 168.36428,28.14528 c 0,-3.3957 -120.70148,-72.06336 -126.6703,-72.06336 -7.55781,0 -4.56055,30.26077 3.51495,35.48735 4.28705,2.77463 33.04928,12.45452 63.91607,21.51085 30.86678,9.05632 56.82294,16.77302 57.68035,17.14821 0.85741,0.3752 1.55893,-0.56215 1.55893,-2.08305 z"
       style="fill:#000000" />
  </g>
</svg>
