<?xml version="1.0" encoding="UTF-8" standalone="no"?>
<svg
   xmlns:dc="http://purl.org/dc/elements/1.1/"
   xmlns:cc="http://creativecommons.org/ns#"
   xmlns:rdf="http://www.w3.org/1999/02/22-rdf-syntax-ns#"
   xmlns:svg="http://www.w3.org/2000/svg"
   xmlns="http://www.w3.org/2000/svg"
   version="1.1"
   id="svg4671"
   viewBox="0 0 540.28572 540.28572"
   height="152.48064mm"
   width="152.48064mm">
  <defs
     id="defs4673" />
  <metadata
     id="metadata4676">
    <rdf:RDF>
      <cc:Work
         rdf:about="">
        <dc:format>image/svg+xml</dc:format>
        <dc:type
           rdf:resource="http://purl.org/dc/dcmitype/StillImage" />
        <dc:title></dc:title>
      </cc:Work>
    </rdf:RDF>
  </metadata>
  <g
     transform="translate(-109.85715,-299.36221)"
     id="layer1">
    <path
       id="path4744"
       d="m 221.26374,734.84163 c -12.98697,-2.77308 -19.16345,-7.5828 -23.70943,-18.46286 -3.33552,-7.983 -3.20452,-14.23909 0.50246,-23.99505 1.67285,-4.40261 30.62219,-51.47332 64.33185,-104.6016 33.70968,-53.12826 63.71617,-100.61374 66.68112,-105.52326 l 5.39079,-8.92642 0,-46.3074 c 0,-25.46908 -0.44809,-47.47515 -0.99579,-48.90238 -0.76655,-1.99759 -3.44792,-2.59498 -11.64778,-2.59498 -9.92665,0 -11.03182,-0.37981 -16.22981,-5.57781 -7.76043,-7.76043 -7.76043,-15.53516 0,-23.29557 l 5.57781,-5.57781 70.864,0 c 63.17082,0 71.36607,0.29659 75.48879,2.73193 9.82694,5.80493 11.01671,17.73236 2.60763,26.14145 -5.21657,5.21657 -6.27906,5.57781 -16.40533,5.57781 l -10.82752,0 0,50.22532 0,50.22531 17.83528,28.11014 c 9.80941,15.4606 38.71554,60.96184 64.23586,101.11389 25.52029,40.15205 48.19876,76.64642 50.39657,81.09861 11.27094,22.83193 3.13624,43.25248 -19.27092,48.37587 -8.59913,1.96618 -315.65971,2.12198 -324.82558,0.16481 z M 470.62479,602.04208 c 0,-0.83585 -16.24128,-27.18127 -36.09173,-58.54538 l -36.09173,-57.02564 0,-55.4717 0,-55.47168 -15.58507,0 -15.58506,0 0,55.91218 0,55.9122 -35.41854,55.89315 c -19.48019,30.74124 -35.80046,56.88842 -36.26725,58.10488 -0.70543,1.83831 13.99868,2.21172 87.09533,2.21172 52.87524,0 87.94405,-0.60602 87.94405,-1.51973 z"
       style="fill:#000000" />
    <circle
       r="257.14285"
       cy="569.50507"
       cx="380"
       id="path4746"
       style="fill:none;fill-opacity:1;stroke:#000000;stroke-width:26;stroke-miterlimit:4;stroke-dasharray:none;stroke-dashoffset:0;stroke-opacity:1" />
  </g>
</svg>
