<?xml version="1.0" encoding="UTF-8" standalone="no"?>
<svg
   xmlns:dc="http://purl.org/dc/elements/1.1/"
   xmlns:cc="http://creativecommons.org/ns#"
   xmlns:rdf="http://www.w3.org/1999/02/22-rdf-syntax-ns#"
   xmlns:svg="http://www.w3.org/2000/svg"
   xmlns="http://www.w3.org/2000/svg"
   version="1.1"
   id="svg2"
   viewBox="0 0 320.32194 240.89303"
   height="67.985367mm"
   width="90.40197mm">
  <defs
     id="defs4" />
  <metadata
     id="metadata7">
    <rdf:RDF>
      <cc:Work
         rdf:about="">
        <dc:format>image/svg+xml</dc:format>
        <dc:type
           rdf:resource="http://purl.org/dc/dcmitype/StillImage" />
        <dc:title></dc:title>
      </cc:Work>
    </rdf:RDF>
  </metadata>
  <g
     transform="translate(-192.30207,-439.90293)"
     id="layer1">
    <path
       id="path3401"
       d="m 192.58646,679.72586 c -0.26243,-0.68918 -0.36133,-54.80306 -0.21979,-120.25306 l 0.25734,-119 10.24559,-0.28493 10.24559,-0.28494 0.25441,109.78494 0.25441,109.78493 149.5,0.5 149.5,0.5 0,10 0,10 -159.78021,0.25306 c -127.29806,0.20161 -159.87721,-0.002 -160.25734,-1 z m 40.20422,-39.41973 c -0.36667,-0.36666 -0.66667,-20.79926 -0.66667,-45.40576 l 0,-44.73909 14.76992,-18.84424 c 8.12345,-10.36433 23.94097,-30.67174 35.15005,-45.12758 l 20.38014,-26.28335 2.47556,2.28334 c 1.36156,1.25584 21.58317,21.37966 44.93691,44.71958 36.54339,36.52178 42.70524,42.28393 44.21121,41.34344 0.96242,-0.60105 14.49195,-11.71619 30.06562,-24.70032 15.57367,-12.98413 28.57439,-23.34888 28.89049,-23.03278 0.46953,0.46952 5.42983,17.35723 9.09173,30.95343 0.96468,3.58171 11.53559,40.49936 13.02837,45.5 1.53296,5.13525 12.08446,41.99353 13.02538,45.5 0.44276,1.65 1.70969,6.13465 2.8154,9.9659 1.10572,3.83124 1.79232,7.31874 1.52579,7.75 -0.58637,0.94876 -258.75183,1.06551 -259.6999,0.11743 z"
       style="fill:#000000" />
    <path
       id="path4508"
       d="m 389.39127,512.65263 0,-16.824 -16.824,0 -16.82401,0 0,-4.94131 0,-4.94132 16.82401,0 16.824,0 0,-16.824 0,-16.82401 4.94132,0 4.94131,0 0,16.82401 0,16.824 16.82401,0 16.824,0 0,4.94132 0,4.94131 -16.824,0 -16.82401,0 0,16.824 0,16.82401 -4.94131,0 -4.94132,0 0,-16.82401 z"
       style="fill:#000000;fill-opacity:1;stroke:none;stroke-width:2.4507091;stroke-miterlimit:4;stroke-dasharray:none;stroke-opacity:1" />
  </g>
</svg>
