<?xml version="1.0" encoding="UTF-8" standalone="no"?>
<!-- Created with Inkscape (http://www.inkscape.org/) -->

<svg
   xmlns:dc="http://purl.org/dc/elements/1.1/"
   xmlns:cc="http://creativecommons.org/ns#"
   xmlns:rdf="http://www.w3.org/1999/02/22-rdf-syntax-ns#"
   xmlns:svg="http://www.w3.org/2000/svg"
   xmlns="http://www.w3.org/2000/svg"
   xmlns:sodipodi="http://sodipodi.sourceforge.net/DTD/sodipodi-0.dtd"
   xmlns:inkscape="http://www.inkscape.org/namespaces/inkscape"
   width="134.25111mm"
   height="134.19736mm"
   viewBox="0 0 475.69292 475.50245"
   id="svg2"
   version="1.1"
   inkscape:version="0.91 r13725"
   sodipodi:docname="analysis2.svg">
  <defs
     id="defs4" />
  <sodipodi:namedview
     id="base"
     pagecolor="#ffffff"
     bordercolor="#666666"
     borderopacity="1.0"
     inkscape:pageopacity="0.0"
     inkscape:pageshadow="2"
     inkscape:zoom="0.35"
     inkscape:cx="235.27524"
     inkscape:cy="228.51046"
     inkscape:document-units="px"
     inkscape:current-layer="layer1"
     showgrid="false"
     fit-margin-top="0"
     fit-margin-left="0"
     fit-margin-right="0"
     fit-margin-bottom="0"
     inkscape:window-width="1920"
     inkscape:window-height="1036"
     inkscape:window-x="0"
     inkscape:window-y="0"
     inkscape:window-maximized="1" />
  <metadata
     id="metadata7">
    <rdf:RDF>
      <cc:Work
         rdf:about="">
        <dc:format>image/svg+xml</dc:format>
        <dc:type
           rdf:resource="http://purl.org/dc/dcmitype/StillImage" />
        <dc:title></dc:title>
      </cc:Work>
    </rdf:RDF>
  </metadata>
  <g
     inkscape:label="Layer 1"
     inkscape:groupmode="layer"
     id="layer1"
     transform="translate(-139.72476,-285.37025)">
    <path
       style="fill:#000000"
       d="m 154.60193,760.38737 c -6.97618,-1.2681 -12.95461,-7.14574 -14.43364,-14.19035 -0.38786,-1.84735 -0.44353,-29.89791 -0.44353,-223.47231 0,-193.57441 0.0557,-221.62498 0.44353,-223.47231 1.12522,-5.35944 4.93784,-10.16556 9.98945,-12.59255 l 2.68422,-1.2896 5.44689,0 5.44689,0 2.39954,1.17976 c 4.61088,2.26698 8.32604,6.92613 9.63786,12.08677 0.40628,1.59832 0.45721,25.38772 0.45721,213.57102 0,123.91795 0.11178,211.84144 0.26946,211.93888 0.41452,0.25619 10.554,-0.38824 14.32732,-0.91061 23.32184,-3.2285 39.42577,-14.14327 54.28474,-36.79262 10.73199,-16.35863 19.60018,-37.69439 28.41149,-68.35446 3.86944,-13.4642 6.83024,-25.24685 12.55057,-49.94554 4.73404,-20.44014 7.60444,-32.40958 9.69777,-40.43928 9.89196,-37.944 19.61114,-61.38944 32.67,-78.8094 13.896,-18.53666 31.47176,-30.17276 51.38312,-34.01839 6.16897,-1.19146 9.4928,-1.49952 16.10552,-1.49267 27.32694,0.0283 50.44979,12.54284 68.26118,36.94425 11.28368,15.45848 20.28531,36.52669 29.06272,68.02085 2.59587,9.31421 6.64707,25.77666 11.62252,47.22947 7.66264,33.03916 11.50398,47.83931 16.77744,64.64141 10.78893,34.3752 23.18225,58.06206 38.27187,73.14757 6.15948,6.15778 11.01448,9.65095 18.43373,13.263 9.94318,4.84082 17.97448,6.62878 33.99644,7.56833 l 2.9125,0.17081 0.10535,8.80131 c 0.058,4.84073 0.0582,13.05395 0,18.25164 l -0.10478,9.45032 -5.02557,-0.24586 c -2.76406,-0.13523 -5.97618,-0.205 -7.13805,-0.15509 -1.16188,0.0499 -102.06393,0.13988 -224.22679,0.19984 -181.56593,0.0891 -222.50918,0.0372 -224.27752,-0.28419 z m 375.32126,-36.2281 c 0,-0.087 -1.28657,-1.61483 -2.85906,-3.39509 -17.12489,-19.38756 -30.45093,-46.48095 -41.93327,-85.25525 -3.95729,-13.36316 -7.51525,-27.24835 -14.20738,-55.44494 -8.98241,-37.84644 -13.06665,-53.33243 -18.07922,-68.54981 -7.76459,-23.57203 -16.08916,-39.21445 -26.24483,-49.31576 -8.91274,-8.86501 -17.47917,-12.27758 -30.81998,-12.27758 -5.89323,0 -9.35062,0.42861 -13.7564,1.70536 -18.48993,5.35817 -32.82953,26.06187 -44.90124,64.82899 -4.40619,14.15004 -8.17484,28.58203 -15.27057,58.47844 -9.92467,41.81555 -14.31751,58.25871 -20.31703,76.05 -10.25233,30.4028 -22.29145,53.08395 -37.03946,69.78055 -1.57247,1.78026 -2.85905,3.30805 -2.85905,3.39509 0,0.0871 60.36469,0.15828 134.14375,0.15828 73.77906,0 134.14374,-0.0712 134.14374,-0.15828 z"
       id="path3551"
       inkscape:connector-curvature="0" />
  </g>
</svg>
