<?xml version="1.0" encoding="UTF-8" standalone="no"?>
<!-- Generator: Adobe Illustrator 18.0.0, SVG Export Plug-In . SVG Version: 6.00 Build 0)  -->

<svg
   xmlns:dc="http://purl.org/dc/elements/1.1/"
   xmlns:cc="http://creativecommons.org/ns#"
   xmlns:rdf="http://www.w3.org/1999/02/22-rdf-syntax-ns#"
   xmlns:svg="http://www.w3.org/2000/svg"
   xmlns="http://www.w3.org/2000/svg"
   xmlns:sodipodi="http://sodipodi.sourceforge.net/DTD/sodipodi-0.dtd"
   xmlns:inkscape="http://www.inkscape.org/namespaces/inkscape"
   version="1.1"
   id="Capa_1"
   x="0px"
   y="0px"
   viewBox="0 0 463.814 463.814"
   style="enable-background:new 0 0 463.814 463.814;"
   xml:space="preserve"
   inkscape:version="0.91 r13725"
   sodipodi:docname="analysis.svg"><metadata
     id="metadata3710"><rdf:RDF><cc:Work
         rdf:about=""><dc:format>image/svg+xml</dc:format><dc:type
           rdf:resource="http://purl.org/dc/dcmitype/StillImage" /><dc:title></dc:title></cc:Work></rdf:RDF></metadata><defs
     id="defs3708" /><sodipodi:namedview
     pagecolor="#ffffff"
     bordercolor="#666666"
     borderopacity="1"
     objecttolerance="10"
     gridtolerance="10"
     guidetolerance="10"
     inkscape:pageopacity="0"
     inkscape:pageshadow="2"
     inkscape:window-width="1036"
     inkscape:window-height="735"
     id="namedview3706"
     showgrid="false"
     inkscape:zoom="0.50882466"
     inkscape:cx="231.907"
     inkscape:cy="231.907"
     inkscape:window-x="0"
     inkscape:window-y="0"
     inkscape:window-maximized="0"
     inkscape:current-layer="g3668" /><g
     id="g3668"
     transform="matrix(1.6483031,0,0,1.6483031,-302.65828,-159.73081)"><path
       d="m 354.91481,102.57823 c -13.13078,0 -17.16314,16.31879 -20.16904,33.03492 -2.70893,15.06573 -4.8974,35.19131 -7.01343,54.65259 -1.85424,17.05966 -4.33657,39.88279 -7.16036,55.28274 -2.23192,-10.99198 -4.22482,-25.42445 -5.75415,-36.50232 -2.04671,-14.82153 -4.16274,-30.14904 -6.85201,-41.73807 -2.00014,-8.6214 -6.16184,-26.56059 -19.96002,-26.56059 -13.04179,0 -18.0913,15.21163 -19.74997,20.21043 -2.81552,8.48172 -5.00398,19.4768 -7.12208,30.10869 -1.7725,8.90286 -4.45867,22.39061 -7.1914,29.85622 -1.73422,-3.92888 -3.51396,-9.41815 -4.65217,-12.93314 -4.58904,-14.15723 -9.33433,-28.79665 -22.88211,-28.79665 l -40.40533,0 0,20.69468 38.0896,0 c 1.78284,2.97693 4.07064,10.03485 5.51203,14.48318 4.72045,14.56181 10.06899,31.06789 24.94847,31.06789 13.04489,0 18.0944,-15.21473 19.75411,-20.21457 2.81655,-8.48378 5.00604,-19.48094 7.12311,-30.11594 1.4745,-7.40559 3.58225,-17.98781 5.82245,-25.63139 2.75963,11.22893 5.24093,29.19605 7.06413,42.4003 2.0467,14.82153 4.16273,30.14904 6.85201,41.73807 2.00014,8.6214 6.16184,26.56059 19.96002,26.56059 13.12871,0 17.16107,-16.31673 20.16593,-33.02975 2.7079,-15.06263 4.89636,-35.18303 7.01136,-54.64224 1.84907,-17.00172 4.32002,-39.72655 7.13242,-55.1265 2.30643,11.3945 4.37279,26.48299 5.9549,38.03993 1.56038,11.39967 2.96037,21.61457 4.48557,30.49258 1.76629,-15.86144 6.67714,-31.01305 14.44179,-44.70982 -5.16954,-36.8086 -9.58682,-58.62183 -25.40583,-58.62183 z"
       id="path3670"
       inkscape:connector-curvature="0" /><path
       d="m 402.00124,190.77325 c -4.05159,9.01505 -6.98877,20.35362 -9.57888,30.35826 -0.40994,1.58557 -0.86853,3.35253 -1.35101,5.16777 -1.96176,-9.64879 -3.63827,-21.97798 -4.84078,-30.82642 -1.79001,-13.16986 -3.39952,-24.98097 -5.60349,-34.68785 -8.59651,8.1127 -14.36425,18.48046 -16.72734,29.90311 0.38207,2.72607 0.737,5.32615 1.0558,7.67725 4.83901,35.59181 8.33462,61.30835 25.90976,62.17107 10.8826,0.5342 15.21115,-10.79518 16.63311,-14.51821 2.0337,-5.32557 3.81837,-12.2121 5.70571,-19.50414 2.143,-8.27471 4.35892,-16.83067 7.07716,-23.8186 2.94576,-7.5722 5.19494,-9.7994 5.86374,-10.33081 l 38.2864,1.87939 1.05262,-21.44356 -38.74208,-1.90176 c -10.2629,-0.50379 -18.58737,6.18316 -24.74072,19.8745 z"
       id="path3672"
       inkscape:connector-curvature="0" /><path
       d="m 216.61699,347.40157 49.13968,-28.37081 c 3.63719,-2.09946 6.10099,-5.44993 7.16814,-9.19339 17.76652,20.343 48.06398,26.00629 72.31815,12.00267 27.56076,-15.91174 37.03746,-51.27927 21.12486,-78.83904 -15.91173,-27.56076 -51.27926,-37.03746 -78.83958,-21.12501 -24.25403,14.00307 -34.49934,43.07279 -25.76377,68.63028 -3.77623,-0.94708 -7.90915,-0.4885 -11.5465,1.61151 l -49.13967,28.37081 c -7.43279,4.29131 -9.97883,13.79325 -5.68751,21.22605 4.29133,7.43278 13.79413,9.97783 21.2262,5.68693 z m 65.16555,-55.5657 c -11.01652,-19.08035 -4.45575,-43.56548 14.62501,-54.58127 19.08018,-11.01595 43.5653,-4.45519 54.58126,14.62501 11.01596,19.08018 4.45519,43.5653 -14.62501,54.58126 -19.08019,11.01594 -43.56531,4.45517 -54.58126,-14.625 z"
       id="path3674"
       inkscape:connector-curvature="0" /></g><g
     id="g3676" /><g
     id="g3678" /><g
     id="g3680" /><g
     id="g3682" /><g
     id="g3684" /><g
     id="g3686" /><g
     id="g3688" /><g
     id="g3690" /><g
     id="g3692" /><g
     id="g3694" /><g
     id="g3696" /><g
     id="g3698" /><g
     id="g3700" /><g
     id="g3702" /><g
     id="g3704" /></svg>