<?xml version="1.0" encoding="UTF-8" standalone="no"?>
<!-- Created with Inkscape (http://www.inkscape.org/) -->

<svg
   xmlns:dc="http://purl.org/dc/elements/1.1/"
   xmlns:cc="http://creativecommons.org/ns#"
   xmlns:rdf="http://www.w3.org/1999/02/22-rdf-syntax-ns#"
   xmlns:svg="http://www.w3.org/2000/svg"
   xmlns="http://www.w3.org/2000/svg"
   xmlns:sodipodi="http://sodipodi.sourceforge.net/DTD/sodipodi-0.dtd"
   xmlns:inkscape="http://www.inkscape.org/namespaces/inkscape"
   id="svg3641"
   version="1.1"
   inkscape:version="0.91+devel+osxmenu r12922"
   width="160.40028"
   height="160.17418"
   viewBox="0 0 160.40028 160.17418"
   sodipodi:docname="doi.svg">
  <metadata
     id="metadata3647">
    <rdf:RDF>
      <cc:Work
         rdf:about="">
        <dc:format>image/svg+xml</dc:format>
        <dc:type
           rdf:resource="http://purl.org/dc/dcmitype/StillImage" />
        <dc:title></dc:title>
      </cc:Work>
    </rdf:RDF>
  </metadata>
  <defs
     id="defs3645" />
  <sodipodi:namedview
     pagecolor="#ffffff"
     bordercolor="#666666"
     borderopacity="1"
     objecttolerance="10"
     gridtolerance="10"
     guidetolerance="10"
     inkscape:pageopacity="0"
     inkscape:pageshadow="2"
     inkscape:window-width="1076"
     inkscape:window-height="731"
     id="namedview3643"
     showgrid="false"
     inkscape:zoom="1.2525253"
     inkscape:cx="-47.99149"
     inkscape:cy="80.316879"
     inkscape:window-x="0"
     inkscape:window-y="23"
     inkscape:window-maximized="0"
     inkscape:current-layer="svg3641"
     fit-margin-top="0"
     fit-margin-left="0"
     fit-margin-right="0"
     fit-margin-bottom="0" />
  <path
     style="fill:#000000;fill-opacity:1"
     d="m 80.310107,0.00158343 c -13.05706,0.03082 -16.29207,0.480264 -24.986329,3.47460897 C 31.655918,11.62751 14.615608,27.752015 5.5425284,50.585567 c -13.37718,33.665346 -1.85091,73.648123 27.1542996,94.197263 10.21509,7.23702 16.75092,10.4063 27.421869,13.29297 11.85543,3.20708 32.6861,2.67067 44.585943,-1.14844 24.00725,-7.70485 44.10698,-27.71836 52.02735,-51.80273 4.33274,-13.175056 4.91698,-34.518387 1.27343,-46.517579 C 149.85439,31.763569 131.49947,12.549469 105.31011,3.4429894 96.490347,0.37621143 93.539747,-0.02964157 80.310107,0.00158343 Z M 132.48589,30.216427 c 7.79519,0.221634 11.28295,9.669236 5.55664,15.048828 -5.94527,5.585284 -14.60742,1.751139 -14.60742,-6.464844 0,-5.300065 3.62623,-8.738218 9.05078,-8.583984 z m -86.550782,0.265624 7.5,0 7.499999,0 0,36.875 0,36.874999 -7.499999,0 c -6.66667,0 -7.5,-0.27778 -7.5,-2.5 0,-3.147106 -0.50387,-3.125766 -5.01172,0.20703 -4.58352,3.38874 -15.23609,4.32032 -20.76367,1.81641 C 12.080508,100.09574 6.1459384,87.489202 7.7573684,77.409786 8.9309684,70.06904 13.712868,62.739275 19.421438,59.53088 c 6.51084,-3.659299 16.72897,-3.801391 22.45117,-0.3125 l 4.0625,2.476562 0,-15.605469 0,-15.607422 z m 46.652339,24.859376 c 13.304923,0.307044 25.751083,10.29584 25.820323,25.576171 0.0532,11.735846 -8.24867,21.933362 -19.888673,24.429692 -3.55144,0.76165 -7.1315,1.32886 -7.95704,1.25976 -23.50995,-1.96673 -33.963619,-27.116444 -17.93359,-43.146483 5.78429,-5.784289 12.98974,-8.279973 19.95898,-8.11914 z m 32.097663,1.390624 7.5,0 7.5,0 0,23.75 0,23.749999 -7.5,0 -7.5,0 0,-23.749999 0,-23.75 z M 34.815968,68.59338 c -3.11468,-0.07622 -6.2152,1.022007 -8.38868,3.548828 -2.0806,2.41885 -2.99218,5.006952 -2.99218,8.492187 0,6.51362 1.77921,9.65425 6.66211,11.765625 4.17785,1.806512 7.18289,1.445336 11.71484,-1.410156 3.13602,-1.975942 5.37784,-8.674438 4.47852,-13.378906 -1.05102,-5.49807 -6.28349,-8.890538 -11.47461,-9.017578 z m 56.798829,0.265625 c -8.88937,0.251977 -14.30241,9.657484 -10.16406,17.660156 1.09207,2.111847 2.96874,4.412516 4.17187,5.113281 7.37713,4.296782 17.812503,-1.802451 17.812503,-10.410156 0,-6.615948 -5.661293,-12.537865 -11.820313,-12.363281 z"
     id="path3659"
     inkscape:connector-curvature="0" />
</svg>
