<?xml version="1.0" encoding="UTF-8" standalone="no"?>
<!-- Created with Inkscape (http://www.inkscape.org/) -->

<svg
   xmlns:dc="http://purl.org/dc/elements/1.1/"
   xmlns:cc="http://creativecommons.org/ns#"
   xmlns:rdf="http://www.w3.org/1999/02/22-rdf-syntax-ns#"
   xmlns:svg="http://www.w3.org/2000/svg"
   xmlns="http://www.w3.org/2000/svg"
   xmlns:sodipodi="http://sodipodi.sourceforge.net/DTD/sodipodi-0.dtd"
   xmlns:inkscape="http://www.inkscape.org/namespaces/inkscape"
   id="svg3641"
   version="1.1"
   inkscape:version="0.91 r13725"
   width="247.5"
   height="171.25"
   viewBox="0 0 247.5 171.25"
   sodipodi:docname="doi.svg">
  <metadata
     id="metadata3647">
    <rdf:RDF>
      <cc:Work
         rdf:about="">
        <dc:format>image/svg+xml</dc:format>
        <dc:type
           rdf:resource="http://purl.org/dc/dcmitype/StillImage" />
        <dc:title></dc:title>
      </cc:Work>
    </rdf:RDF>
  </metadata>
  <defs
     id="defs3645" />
  <sodipodi:namedview
     pagecolor="#ffffff"
     bordercolor="#666666"
     borderopacity="1"
     objecttolerance="10"
     gridtolerance="10"
     guidetolerance="10"
     inkscape:pageopacity="0"
     inkscape:pageshadow="2"
     inkscape:window-width="1076"
     inkscape:window-height="731"
     id="namedview3643"
     showgrid="false"
     inkscape:zoom="1.2525253"
     inkscape:cx="123.75"
     inkscape:cy="85.625"
     inkscape:window-x="0"
     inkscape:window-y="0"
     inkscape:window-maximized="0"
     inkscape:current-layer="svg3641" />
  <path
     style="fill:#000000;fill-opacity:1"
     d="m 123.51128,5.7692795 c -13.05706,0.03082 -16.29207,0.480264 -24.986329,3.474609 -23.66786,8.1513175 -40.70817,24.2758225 -49.78125,47.1093745 -13.37718,33.665346 -1.85091,73.648127 27.1543,94.197267 10.21509,7.23702 16.75092,10.4063 27.421869,13.29297 11.85543,3.20708 32.6861,2.67067 44.58594,-1.14844 24.00725,-7.70485 44.10698,-27.71836 52.02735,-51.80273 4.33274,-13.17506 4.91698,-34.518391 1.27343,-46.517583 -8.15103,-26.843482 -26.50595,-46.057582 -52.69531,-55.1640615 -8.81976,-3.066778 -11.77036,-3.472631 -25,-3.441406 z m 52.17578,30.2148435 c 7.79519,0.221634 11.28295,9.669236 5.55664,15.048828 -5.94527,5.585284 -14.60742,1.751139 -14.60742,-6.464844 0,-5.300065 3.62623,-8.738218 9.05078,-8.583984 z m -86.550779,0.265624 7.5,0 7.499999,0 0,36.875 0,36.875003 -7.499999,0 c -6.66667,0 -7.5,-0.27778 -7.5,-2.5 0,-3.14711 -0.50387,-3.12577 -5.01172,0.20703 -4.58352,3.38874 -15.23609,4.32032 -20.76367,1.81641 -8.07921,-3.65975 -14.01378,-16.266292 -12.40235,-26.345708 1.1736,-7.340746 5.9555,-14.670511 11.66407,-17.878906 6.51084,-3.659299 16.72897,-3.801391 22.45117,-0.3125 l 4.0625,2.476562 0,-15.605469 0,-15.607422 z m 46.652339,24.859376 c 13.30492,0.307044 25.75108,10.29584 25.82032,25.576171 0.0532,11.735846 -8.24867,21.933366 -19.88867,24.429696 -3.55144,0.76165 -7.1315,1.32886 -7.95704,1.25976 -23.50995,-1.96673 -33.963619,-27.116448 -17.93359,-43.146487 5.78429,-5.784289 12.98974,-8.279973 19.95898,-8.11914 z m 32.09766,1.390624 7.5,0 7.5,0 0,23.75 0,23.750003 -7.5,0 -7.5,0 0,-23.750003 0,-23.75 z M 78.017141,74.361076 c -3.11468,-0.07622 -6.2152,1.022007 -8.38868,3.548828 -2.0806,2.41885 -2.99218,5.006952 -2.99218,8.492187 0,6.51362 1.77921,9.65425 6.66211,11.765625 4.17785,1.806512 7.18289,1.445336 11.71484,-1.410156 3.13602,-1.975942 5.37784,-8.674438 4.47852,-13.378906 -1.05102,-5.49807 -6.28349,-8.890538 -11.47461,-9.017578 z m 56.798829,0.265625 c -8.88937,0.251977 -14.30241,9.657484 -10.16406,17.660156 1.09207,2.111847 2.96874,4.412516 4.17187,5.113281 7.37713,4.296782 17.8125,-1.802451 17.8125,-10.410156 0,-6.615948 -5.66129,-12.537865 -11.82031,-12.363281 z"
     id="path3659"
     inkscape:connector-curvature="0" />
</svg>
