<?xml version="1.0" encoding="UTF-8" standalone="no"?>
<!-- Created with Inkscape (http://www.inkscape.org/) -->

<svg
   xmlns:dc="http://purl.org/dc/elements/1.1/"
   xmlns:cc="http://creativecommons.org/ns#"
   xmlns:rdf="http://www.w3.org/1999/02/22-rdf-syntax-ns#"
   xmlns:svg="http://www.w3.org/2000/svg"
   xmlns="http://www.w3.org/2000/svg"
   xmlns:sodipodi="http://sodipodi.sourceforge.net/DTD/sodipodi-0.dtd"
   xmlns:inkscape="http://www.inkscape.org/namespaces/inkscape"
   id="svg3390"
   version="1.1"
   inkscape:version="0.91 r13725"
   width="1600"
   height="1200"
   viewBox="0 0 1600 1200"
   sodipodi:docname="drosophila.svg">
  <metadata
     id="metadata3396">
    <rdf:RDF>
      <cc:Work
         rdf:about="">
        <dc:format>image/svg+xml</dc:format>
        <dc:type
           rdf:resource="http://purl.org/dc/dcmitype/StillImage" />
        <dc:title></dc:title>
      </cc:Work>
    </rdf:RDF>
  </metadata>
  <defs
     id="defs3394" />
  <sodipodi:namedview
     pagecolor="#ffffff"
     bordercolor="#666666"
     borderopacity="1"
     objecttolerance="10"
     gridtolerance="10"
     guidetolerance="10"
     inkscape:pageopacity="0"
     inkscape:pageshadow="2"
     inkscape:window-width="1730"
     inkscape:window-height="898"
     id="namedview3392"
     showgrid="false"
     inkscape:zoom="0.69083333"
     inkscape:cx="800"
     inkscape:cy="715.80217"
     inkscape:window-x="0"
     inkscape:window-y="0"
     inkscape:window-maximized="0"
     inkscape:current-layer="svg3390" />
  <path
     style="fill:#000000"
     d="m 319.18517,906.92025 c -3.3,-0.7603 -11.80389,-3.4903 -18.89753,-6.0666 -94.74912,-34.4118 -152.99895,-90.1397 -180.21012,-172.4081 -7.74578,-53.35533 -6.35627,-134.75005 23.41045,-173.52672 11.97719,-15.6025 30.48139,-36.07164 52.09677,-57.62886 32.60176,-32.51404 50.66832,-46.96434 72.39843,-57.90692 23.90702,-12.03879 37.45529,-11.85013 50.88153,0.70854 10.74329,10.0491 17.88981,23.94454 34.32243,66.73531 12.36444,32.19721 17.59405,43.87292 23.87026,53.29322 6.02481,9.04294 9.22768,11.85431 14.47846,12.70868 3.93692,0.64059 4.29636,0.53151 3.77944,-1.14699 -2.12106,-6.88733 -6.85676,-28.39303 -8.20271,-37.25001 -2.31911,-15.26085 -2.09756,-34.52136 0.51307,-44.6049 4.53407,-17.51282 12.31079,-27.88023 29.40934,-39.20659 12.88444,-8.53487 27.1727,-22.61135 30.92686,-30.46846 5.45971,-11.42665 7.09397,-25.08604 4.27056,-35.69399 -2.31899,-8.71277 -6.05714,-15.27064 -17.60396,-30.88276 -16.03466,-21.67998 -19.79101,-30.69134 -18.61126,-44.64777 0.64134,-7.58703 2.29893,-13.60043 3.74896,-13.60043 0.48693,0 2.05577,-2.30975 3.48631,-5.13279 3.31513,-6.5421 10.43407,-14.20678 17.29703,-18.62303 7.41029,-4.76846 16.30797,-8.26913 32.13568,-12.64334 37.12537,-10.26012 48.37884,-14.43976 58.55537,-21.74799 2.5175,-1.80793 6.87588,-6.45193 9.6853,-10.32 8.10607,-11.16063 11.67993,-14.46424 20.01701,-18.50339 l 7.75769,-3.75844 22.24231,5.84666 c 12.23328,3.21566 23.06733,5.58745 24.07568,5.27064 1.00835,-0.31681 5.00303,-3.34628 8.87707,-6.73217 13.98888,-12.2262 14.85708,-12.77275 19.28957,-12.1432 10.89582,1.54755 16.76983,5.17531 20.62934,12.74058 1.67126,3.27593 2.38021,3.83153 4.19109,3.28455 1.19876,-0.3621 7.12961,-0.91024 13.17961,-1.2181 23.2764,-1.18443 45.0606,6.58049 68.2205,24.31704 9.2395,7.07585 26.1541,24.7617 33.4268,34.95093 5.4929,7.69562 5.6783,8.17192 6.7773,17.41205 0.6215,5.225 1.384,11.07427 1.6946,12.99839 l 0.5646,3.49839 1.2715,-2.49839 c 0.6993,-1.37412 1.5328,-6.3902 1.8522,-11.14686 0.3194,-4.75665 1.2659,-10.15665 2.1032,-12 0.8374,-1.84334 11.55,-14.82653 23.8059,-28.85153 l 22.2834,-25.5 9.5,-4.70571 c 52.3244,-25.91833 193.30539,-18.04201 262.66339,14.67447 18.3273,8.64505 30.8576,18.63018 36.5248,29.10589 11.2485,20.79261 15.963,73.53665 8.6806,97.11439 -2.7819,9.00689 -5.078,12.26941 -16.2788,23.13085 -5.2861,5.12595 -10.3345,10.7189 -11.2187,12.42879 -2.5174,4.86816 -1.4652,16.74999 2.1024,23.73946 3.3298,6.52363 14.6384,18.0216 32.9929,33.54511 15.1891,12.84642 23.2146,22.01846 28.3349,32.38273 5.5757,11.28617 5.2575,16.52752 -3.0712,50.58402 -5.8729,24.01471 -8.7304,37.02937 -8.7304,39.76311 0,0.49269 1.35,0.63505 3,0.31635 1.65,-0.31871 4.3513,-0.8405 6.0029,-1.15956 2.4096,-0.46548 3.8073,-1.93393 7.0736,-7.43194 3.6041,-6.0667 6.3351,-9.04162 17.1537,-18.68624 3.9185,-3.49322 6.0786,-11.47654 12.2793,-45.38063 9.5191,-52.04921 13.9874,-68.62522 23.2637,-86.30036 8.8934,-16.94564 23.201,-25.62073 42.2554,-25.62073 11.0659,0 19.5,3.23266 36.4714,13.97903 4.95,3.13436 15.3,8.93177 23,12.88315 29.067,14.91619 52.8308,37.25513 74.0793,69.63782 22.4095,34.15184 36.5389,72.54878 43.054,117 1.2905,8.80451 1.7635,18.39097 1.7764,36 0.02,27.14655 -1.3103,38.98289 -6.8555,60.99795 -17.161,68.1309 -72.407,134.4163 -138.7332,166.4551 -26.6368,12.8669 -44.6178,17.3946 -69.321,17.4554 -13.3003,0.033 -17.4851,-0.3348 -24.8013,-2.178 -31.1852,-7.8566 -53.8438,-29.4425 -67.1618,-63.9821 -6.5497,-16.9865 -10.8468,-38.7054 -13.3049,-67.2484 l -0.732,-8.5 -5.4293,-2.75 c -4.202,-2.1283 -6.9147,-2.7667 -12,-2.8241 -3.6139,-0.041 -8.5831,-0.3782 -11.0428,-0.75 -4.3671,-0.66 -4.5926,-0.8804 -9.6038,-9.3842 -4.6526,-7.8955 -9.162,-19.2619 -10.8667,-27.3903 -0.6217,-2.96435 -0.1602,-3.51191 10.6464,-12.63141 20.8657,-17.60833 33.4726,-32.19887 41.2755,-47.76994 15.626,-27.68624 -6.5033,-29.04004 -30.8788,-29.56345 -13.6002,-0.29203 -25.6278,-0.24527 -26.728,0.10391 -1.1001,0.34918 -8.5681,9.48292 -16.5955,20.29721 -27.7353,37.36392 -44.4991,50.33758 -70.1095,54.25809 -7.9729,1.22049 -8.1674,1.31675 -8.1674,4.04024 0,10.02015 -15.94599,32.01865 -26.36489,36.37195 l -3.386,1.4148 3.4719,9.2431 c 8.4036,22.373 8.6886,43.2817 0.8245,60.5025 -14.876,32.5758 -57.3249,55.2839 -119.5455,63.9509 -17.7216,2.4686 -58.5549,2.4669 -76.5,0 -14.7737,-2.0334 -36.1506,-7.2333 -45.6108,-11.0946 -9.3358,-3.8105 -13.009,-4.0139 -27.7868,-1.5386 -8.8698,1.4857 -16.0952,2.0981 -22.0004,1.8647 -7.8411,-0.3099 -9.5947,-0.7571 -16.1975,-4.1303 -4.07251,-2.0807 -11.67954,-6.8032 -16.90454,-10.4947 -11.47643,-8.108 -31.87782,-27.999 -35.10104,-34.2228 -3.17669,-6.1339 -3.01687,-17.3094 0.48464,-33.8875 2.85033,-13.4951 3.25583,-20.0464 1.45008,-23.4282 -1.41956,-2.6585 -6.70356,-7.718 -7.73702,-7.4083 -0.8659,0.2595 -24.29872,-12.798 -44.59666,-24.8507 -24.68408,-14.65718 -41.03631,-27.82397 -53.03144,-42.70085 -8.95303,-11.10394 -11.80507,-16.28174 -16.0974,-29.2244 -5.91756,-17.84323 -7.73291,-20.55877 -16.87116,-25.23714 -3.86308,-1.97772 -6.59168,-2.58209 -12,-2.65792 -8.71818,-0.12225 -13.72047,1.26607 -29.5,8.18737 -6.875,3.01555 -14.075,6.04028 -16,6.72162 -4.3546,1.54127 -4.3895,3.94983 -0.18599,12.83431 5.67927,12.00362 13.21424,19.33428 37.78511,36.76058 15.40759,10.92747 24.57585,19.88728 28.14303,27.50323 2.32096,4.9552 2.74683,7.1553 2.68827,13.8879 -0.0635,7.2952 -0.57355,9.2776 -5.78948,22.5 -9.35,23.7024 -8.77358,22.7571 -14.34481,23.5229 -6.34075,0.8715 -21.48702,4.3438 -22.96258,5.2643 -0.87871,0.5481 -0.81704,2.0746 0.25,6.1882 0.7916,3.0517 1.41645,10.1603 1.41645,16.1143 0,45.9567 -42.40239,98.0692 -91.5,112.4536 -11.1566,3.2686 -31.33262,4.2775 -41,2.0501 z"
     id="path3400"
     inkscape:connector-curvature="0"
     sodipodi:nodetypes="csccssssssssssssssssssssscsssssssssscccscscssssssssssssssssssssssssscssscscccsscccsssscssscssscsssscssssssssssssccssscc" />
</svg>
