<?xml version="1.0" encoding="UTF-8" standalone="no"?>
<!-- Created with Inkscape (http://www.inkscape.org/) -->

<svg
   xmlns:dc="http://purl.org/dc/elements/1.1/"
   xmlns:cc="http://creativecommons.org/ns#"
   xmlns:rdf="http://www.w3.org/1999/02/22-rdf-syntax-ns#"
   xmlns:svg="http://www.w3.org/2000/svg"
   xmlns="http://www.w3.org/2000/svg"
   xmlns:sodipodi="http://sodipodi.sourceforge.net/DTD/sodipodi-0.dtd"
   xmlns:inkscape="http://www.inkscape.org/namespaces/inkscape"
   width="210mm"
   height="297mm"
   viewBox="0 0 744.09448819 1052.3622047"
   id="svg2"
   version="1.1"
   inkscape:version="0.91 r13725"
   sodipodi:docname="fly.svg">
  <defs
     id="defs4" />
  <sodipodi:namedview
     id="base"
     pagecolor="#ffffff"
     bordercolor="#666666"
     borderopacity="1.0"
     inkscape:pageopacity="0.0"
     inkscape:pageshadow="2"
     inkscape:zoom="0.35"
     inkscape:cx="375"
     inkscape:cy="520"
     inkscape:document-units="px"
     inkscape:current-layer="layer1"
     showgrid="false"
     inkscape:window-width="1920"
     inkscape:window-height="1031"
     inkscape:window-x="242"
     inkscape:window-y="16"
     inkscape:window-maximized="0" />
  <metadata
     id="metadata7">
    <rdf:RDF>
      <cc:Work
         rdf:about="">
        <dc:format>image/svg+xml</dc:format>
        <dc:type
           rdf:resource="http://purl.org/dc/dcmitype/StillImage" />
        <dc:title></dc:title>
      </cc:Work>
    </rdf:RDF>
  </metadata>
  <g
     inkscape:label="Layer 1"
     inkscape:groupmode="layer"
     id="layer1">
    <path
       style="fill:#000000"
       d="m 141.21913,471.78638 c 3.1095,-6.01314 11.38107,-16.7142 18.38128,-23.78014 L 172.32805,435.15909 167.531,424.2199 c -6.21926,-14.18247 -7.29371,-45.48367 -2.06709,-60.21895 2.25822,-6.36656 9.05625,-15.20584 15.1067,-19.64286 9.70384,-7.11619 14.7499,-8.02616 42.8008,-7.71839 28.76025,0.31553 34.40548,1.5449 59.05714,12.86071 14.99143,6.8815 29.98286,13.67837 33.31429,15.10417 3.85155,1.6484 2.19738,-1.49336 -4.54286,-8.62818 -5.83,-6.1713 -28.51733,-21.56358 -50.41633,-34.20507 -38.93359,-22.47496 -58.61224,-40.42444 -58.61224,-53.46195 0,-8.45802 4.07764,-6.1553 16.79963,9.48708 7.96615,9.79477 22.30486,20.46205 42.85444,31.88147 41.51687,23.07099 64.4904,42.11561 80.61706,66.83001 15.22205,23.32805 29.36296,34.85078 31.72886,25.85428 2.97888,-11.32738 33.69822,-41.79448 58.25072,-57.7724 14.11497,-9.18554 36.44821,-25.59144 49.62944,-36.45756 22.46249,-18.51727 30.74122,-22.12649 27.30877,-11.90566 -2.19674,6.54129 -41.89695,38.9221 -70.41512,57.43291 -31.03602,20.14513 -47.74437,35.47437 -53.85553,49.41031 -6.43416,14.67253 -4.30176,18.43437 13.4992,23.81438 l 15.40136,4.65478 14.4763,-14.34584 c 22.9599,-22.75299 47.29736,-36.25949 65.33625,-36.25949 12.76465,0 19.09305,2.61076 36.79246,15.17857 19.73161,14.01083 23.00715,15.17857 42.57616,15.17857 23.38311,0 30.28064,5.68268 11.79822,9.72021 -20.22346,4.41788 -38.34815,-0.28807 -59.10975,-15.34747 -30.34332,-22.00948 -47.14493,-18.85238 -88.35604,16.60249 -9.92815,8.54141 -9.95914,9.61941 -0.61815,21.50513 4.16429,5.29875 7.57143,12.51885 7.57143,16.04467 0,3.52581 1.36286,7.40383 3.02857,8.61783 1.66572,1.214 3.02858,-0.36232 3.02858,-3.50293 0,-3.14061 2.6164,-11.75804 5.81422,-19.14984 9.52577,-22.01894 29.45347,-28.18018 48.00468,-14.84208 10.43093,7.49971 12.23027,11.26406 20.48306,42.85199 7.03856,26.9404 7.25617,29.58925 2.93404,35.71429 -2.07914,2.94643 -4.50066,13.33764 -5.38115,23.09161 -4.29414,47.56975 -56.32741,57.283 -68.76634,12.83685 -4.22979,-15.11368 -9.14566,-19.32703 -9.14566,-7.83868 0,3.66368 -2.90965,11.02329 -6.46591,16.35472 -7.79921,11.69232 -7.21421,12.55164 22.93184,33.68489 12.75709,8.94307 24.77717,14.72775 30.60307,14.72775 5.27685,0 20.35432,-6.42161 33.50549,-14.27025 25.34758,-15.12746 40.30918,-17.77118 58.4255,-10.32378 9.12527,3.75128 11.87273,13.67467 2.9643,10.7066 -2.29036,-0.7631 -11.16035,-2.15193 -19.71109,-3.08628 -13.66606,-1.49332 -17.91289,-0.13857 -35.10553,11.19957 -35.32808,23.29786 -48.30735,21.66275 -92.31924,-11.63022 l -23.76364,-17.97614 -15.06097,4.51011 c -12.54723,3.75736 -15.21138,5.99739 -15.96218,13.42118 -1.90702,18.85618 22.47205,41.0325 58.44408,53.1635 11.09846,3.74278 26.0661,10.8735 33.26142,15.84607 20.38015,14.08439 46.2925,52.01107 35.53512,52.01107 -1.30619,0 -9.82404,-8.96682 -18.92857,-19.92629 -18.80352,-22.6345 -28.89761,-29.49989 -58.99491,-40.12492 -28.28194,-9.98418 -49.5399,-26.84829 -55.71379,-44.19818 -2.64903,-7.44432 -5.74549,-13.55147 -6.88103,-13.57143 -1.13554,-0.0214 -15.35821,14.522 -31.60598,32.31546 -24.84974,27.21382 -34.62251,35.206 -61.53537,50.32357 -17.59672,9.88447 -43.30151,26.9115 -57.12179,37.83786 -16.9425,13.39479 -26.12564,18.68932 -28.19119,16.25354 -4.88336,-5.75868 30.83422,-34.92882 69.97609,-57.14868 37.48541,-21.27954 38.04712,-21.65597 35.97037,-24.10493 -0.76011,-0.89636 -12.23083,2.34546 -25.49049,7.20404 -18.13339,6.64439 -31.09473,8.87035 -52.29691,8.98139 -30.76275,0.16107 -41.57563,-4.35718 -52.75375,-22.04364 -7.81575,-12.36633 -8.15264,-44.78922 -0.66877,-64.36025 l 5.50243,-14.38943 -14.26757,-14.38157 c -7.84718,-7.90986 -16.27633,-18.96229 -18.73144,-24.56097 -6.11414,-13.94275 -5.58221,-35.11344 1.21242,-48.25284 z m 33.98603,-59.78698 c 10.77148,26.23927 34.71142,38.99461 92.03662,49.03758 l 32.41531,5.67894 9.20441,-9.13327 c 11.76258,-11.67165 27.69689,-21.23765 43.99836,-26.41398 7.06992,-2.24497 12.8544,-5.42434 12.8544,-7.06527 0,-6.14093 -49.37107,-40.90151 -77.90833,-54.85272 -26.83469,-13.11887 -32.58258,-14.60826 -61.40595,-15.91144 -28.19724,-1.27487 -32.92699,-0.59986 -41.74753,5.95804 -16.57155,12.32063 -19.4447,28.34853 -9.44729,52.70212 z m -1.93859,211.48714 c 13.28004,30.28393 68.28223,29.1055 126.68723,-2.71428 39.6523,-21.60311 73.08232,-50.32115 58.94618,-50.63768 -8.1915,-0.18322 -38.8447,-17.38736 -50.68696,-28.44779 l -12.50633,-11.68064 -33.22477,6.01496 c -54.02804,9.78118 -77.51716,23.0634 -87.73889,49.61304 -6.9646,18.08961 -7.2242,24.74525 -1.47646,37.85239 z"
       id="path3420"
       inkscape:connector-curvature="0"
       sodipodi:nodetypes="sscssssssssssssssssssscssssssssssssssssssssssssssscsssssssscsssssssssscssssscssssssssscscsss" />
  </g>
</svg>
