<?xml version="1.0" encoding="UTF-8" standalone="no"?>
<!-- Created with Inkscape (http://www.inkscape.org/) -->

<svg
   xmlns:dc="http://purl.org/dc/elements/1.1/"
   xmlns:cc="http://creativecommons.org/ns#"
   xmlns:rdf="http://www.w3.org/1999/02/22-rdf-syntax-ns#"
   xmlns:svg="http://www.w3.org/2000/svg"
   xmlns="http://www.w3.org/2000/svg"
   xmlns:sodipodi="http://sodipodi.sourceforge.net/DTD/sodipodi-0.dtd"
   xmlns:inkscape="http://www.inkscape.org/namespaces/inkscape"
   width="68.017448mm"
   height="68.015556mm"
   viewBox="0 0 241.00671 241"
   id="svg2"
   version="1.1"
   inkscape:version="0.91 r13725"
   sodipodi:docname="fullgear.svg">
  <defs
     id="defs4" />
  <sodipodi:namedview
     id="base"
     pagecolor="#ffffff"
     bordercolor="#666666"
     borderopacity="1.0"
     inkscape:pageopacity="0.0"
     inkscape:pageshadow="2"
     inkscape:zoom="0.35"
     inkscape:cx="255.21426"
     inkscape:cy="-171.78571"
     inkscape:document-units="px"
     inkscape:current-layer="layer1"
     showgrid="false"
     fit-margin-top="0"
     fit-margin-left="0"
     fit-margin-right="0"
     fit-margin-bottom="0"
     inkscape:window-width="1920"
     inkscape:window-height="1032"
     inkscape:window-x="0"
     inkscape:window-y="0"
     inkscape:window-maximized="1" />
  <metadata
     id="metadata7">
    <rdf:RDF>
      <cc:Work
         rdf:about="">
        <dc:format>image/svg+xml</dc:format>
        <dc:type
           rdf:resource="http://purl.org/dc/dcmitype/StillImage" />
        <dc:title></dc:title>
      </cc:Work>
    </rdf:RDF>
  </metadata>
  <g
     inkscape:label="Layer 1"
     inkscape:groupmode="layer"
     id="layer1"
     transform="translate(-119.78574,-119.57649)">
    <path
       style="fill:#000000"
       d="m 219.00796,358.79871 c -1.2536,-1.2536 -2.31402,-5.45524 -3.59645,-14.25 -2.58523,-17.72914 -2.19223,-16.93224 -9.9101,-20.0953 l -6.65205,-2.72626 -11.01697,8.40189 c -11.14831,8.50206 -14.72066,10.31094 -17.3547,8.78768 -3.6767,-2.12624 -20.18251,-18.21835 -24.28628,-23.67757 -5.6499,-7.51602 -5.48443,-9.14338 1.87527,-18.44209 2.92554,-3.69631 6.57854,-8.39626 8.11778,-10.44432 l 2.79862,-3.72375 -2.78118,-7.08874 c -1.52964,-3.89881 -3.48654,-7.44083 -4.34866,-7.87117 -0.86213,-0.43034 -5.6175,-1.3434 -10.5675,-2.02903 -17.42887,-2.41408 -19.52387,-2.99615 -20.55614,-5.71121 -0.51912,-1.3654 -0.94386,-10.67813 -0.94386,-20.69494 0,-21.90808 0.008,-21.928 9.47825,-23.51649 7.29698,-1.22396 20.27138,-3.23863 22.4253,-3.4822 0.77195,-0.0873 2.67554,-3.30004 4.2302,-7.13944 l 2.82666,-6.98072 -2.34089,-3.51928 c -1.28749,-1.9356 -5.35779,-7.30979 -9.0451,-11.94264 -7.90625,-9.93364 -7.92205,-10.59516 -0.45888,-19.21001 7.02794,-8.11245 20.79114,-20.88065 23.69996,-21.98658 3.54841,-1.34911 5.58476,-0.39428 15.12537,7.09218 12.92512,10.14227 13.00655,10.18425 16.55913,8.5364 1.65,-0.76535 4.65441,-2.0561 6.67647,-2.86834 3.36739,-1.35264 3.72613,-1.88299 4.26721,-6.30854 1.50273,-12.29083 3.81938,-24.03309 5.14573,-26.08175 1.43192,-2.21173 1.80231,-2.25 21.77866,-2.25 18.10334,0 20.48938,0.19105 21.85557,1.75 0.88435,1.00913 2.27568,6.61859 3.28644,13.25 3.02715,19.86066 2.26183,18.09794 8.98879,20.70358 3.26074,1.26303 6.56774,2.29642 7.34888,2.29642 0.78114,0 5.52245,-3.08709 10.53625,-6.8602 12.6549,-9.52337 14.25189,-10.44993 16.85871,-9.78126 2.91346,0.74732 20.09032,16.79601 25.54753,23.86957 6.2705,8.12774 6.43343,7.58557 -8.01948,26.68564 l -4.72924,6.24986 1.56019,3.6682 c 0.8581,2.0175 2.22527,5.29983 3.03815,7.29405 1.36003,3.33656 1.93204,3.70883 7.16905,4.66575 14.80931,2.70599 17.98476,3.20839 20.27878,3.20839 1.35701,0 3.46743,0.70052 4.6898,1.5567 2.173,1.52203 2.22251,2.01048 2.22251,21.92858 0,24.70804 0.71119,23.28238 -12.5,25.05739 -2.75,0.36948 -8.375,1.18603 -12.5,1.81455 l -7.5,1.14278 -2.6918,5.5 c -1.48048,3.025 -2.71798,6.44539 -2.75,7.60087 -0.0566,2.04498 6.8959,12.08257 13.612,19.65201 4.07718,4.59522 4.17971,7.28792 0.47016,12.34708 -4.70786,6.42067 -24.44884,25.00966 -27.32657,25.73193 -3.3703,0.84589 -6.02281,-0.32206 -12.31379,-5.42199 -2.75,-2.22935 -7.28854,-5.81931 -10.08565,-7.97769 l -5.08565,-3.92433 -6.41435,2.72417 c -3.52789,1.4983 -6.70406,3.13325 -7.05814,3.63323 -0.35409,0.49998 -1.17614,5.23483 -1.82679,10.52189 -1.64164,13.33961 -2.92807,18.32626 -5.25311,20.36283 -1.75562,1.5378 -4.34894,1.75 -21.38709,1.75 -17.24802,0 -19.58554,-0.19632 -21.167,-1.77778 z"
       id="path3401"
       inkscape:connector-curvature="0"
       sodipodi:nodetypes="ssscssssscsssssssscsssssssssssssssssscsssssssscscssssscscssss" />
  </g>
</svg>
