<?xml version="1.0" encoding="UTF-8" standalone="no"?>
<!-- Created with Inkscape (http://www.inkscape.org/) -->

<svg
   xmlns:dc="http://purl.org/dc/elements/1.1/"
   xmlns:cc="http://creativecommons.org/ns#"
   xmlns:rdf="http://www.w3.org/1999/02/22-rdf-syntax-ns#"
   xmlns:svg="http://www.w3.org/2000/svg"
   xmlns="http://www.w3.org/2000/svg"
   xmlns:sodipodi="http://sodipodi.sourceforge.net/DTD/sodipodi-0.dtd"
   xmlns:inkscape="http://www.inkscape.org/namespaces/inkscape"
   id="svg3390"
   version="1.1"
   inkscape:version="0.91+devel+osxmenu r12922"
   width="160.90428"
   height="159.70335"
   viewBox="0 0 160.90428 159.70335"
   sodipodi:docname="geneontology.svg">
  <metadata
     id="metadata3396">
    <rdf:RDF>
      <cc:Work
         rdf:about="">
        <dc:format>image/svg+xml</dc:format>
        <dc:type
           rdf:resource="http://purl.org/dc/dcmitype/StillImage" />
        <dc:title></dc:title>
      </cc:Work>
    </rdf:RDF>
  </metadata>
  <defs
     id="defs3394" />
  <sodipodi:namedview
     pagecolor="#ffffff"
     bordercolor="#666666"
     borderopacity="1"
     objecttolerance="10"
     gridtolerance="10"
     guidetolerance="10"
     inkscape:pageopacity="0"
     inkscape:pageshadow="2"
     inkscape:window-width="1440"
     inkscape:window-height="855"
     id="namedview3392"
     showgrid="false"
     inkscape:zoom="0.81415489"
     inkscape:cx="-115.69638"
     inkscape:cy="89.969336"
     inkscape:window-x="0"
     inkscape:window-y="23"
     inkscape:window-maximized="0"
     inkscape:current-layer="svg3390"
     fit-margin-top="0"
     fit-margin-left="0"
     fit-margin-right="0"
     fit-margin-bottom="0" />
  <path
     sodipodi:nodetypes="ssccsssssssssssssssssssssssssssssssssssssssssssssscssssssss"
     inkscape:connector-curvature="0"
     id="path3408"
     d="M 58.694095,157.88891 C 41.354901,153.13222 23.181217,139.80111 13.254697,124.55735 -7.7931522,92.234984 -3.4104322,50.119829 23.816217,23.067818 43.498435,7.4193904 60.471071,0.16222144 81.278836,0.00267244 94.690452,-0.09025756 104.4498,2.2324024 116.75993,8.2285164 129.95182,14.654124 145.8322,30.49525 152.17981,43.560814 c 18.45294,37.982559 6.90593,81.225356 -27.75673,103.947106 -14.00941,9.18333 -25.438678,12.32929 -44.290164,12.1911 -8.609802,-0.0631 -17.943145,-0.85113 -21.438821,-1.81011 z m 38.690837,-5.79139 c 12.537378,-2.62748 24.243708,-9.38872 35.111118,-20.27917 15.32818,-15.36065 21.76388,-30.73957 21.76388,-52.007536 0,-21.218401 -6.43385,-36.51726 -21.8333,-51.916703 C 116.82781,12.295288 101.76802,6.0608144 79.686847,6.0608144 c -37.04659,0 -68.1751,27.8155996 -72.85709,65.1031336 -2.78275,22.161896 5.13492,44.808862 21.32655,61.000492 18.339122,18.33912 42.98017,25.43405 69.228625,19.93308 z M 52.670517,139.40224 c -19.8011,-6.15919 -25.64729,-31.54805 -10.483064,-45.525936 3.002204,-2.76733 6.716862,-5.430889 8.254798,-5.919009 2.115548,-0.67145 2.620437,-1.54281 2.074037,-3.579486 -0.397215,-1.480597 -0.729889,-3.89664 -0.739276,-5.368985 -0.01112,-1.746632 -1.020874,-2.928929 -2.905395,-3.401914 -5.374813,-1.348992 -12.989662,-7.988311 -15.78508,-13.762866 -3.56349,-7.361203 -3.68125,-17.481853 -0.28036,-24.095514 8.638145,-16.798454 28.695435,-20.557346 42.913296,-8.042284 3.74279,3.294537 6.115194,4.549542 7.346665,3.886397 5.762559,-3.103124 7.305456,-2.782635 9.272914,1.926155 2.64601,6.332796 2.56911,6.55289 -3.079108,8.812862 -4.570284,1.828664 -5.000001,2.397563 -5.000001,6.619448 0,7.528833 -5.510409,16.95178 -12.599376,21.545275 -5.527892,3.58195 -5.884329,4.458954 -6.150624,8.577067 -0.434258,6.715575 0.411551,4.802075 7.145865,8.246135 21.872524,11.186015 19.419014,42.975115 -3.850196,49.885335 -7.281377,2.16234 -9.721824,2.19218 -16.135095,0.19732 z m 16.68558,-16.99529 c 8.051907,-8.0519 2.54258,-21.34615 -8.846154,-21.34615 -9.799679,0 -15.553248,9.95645 -10.755616,18.61241 3.952245,7.1307 13.82756,8.50795 19.60177,2.73374 z M 64.113852,60.272448 c 3.751788,-2.627854 6.349261,-8.893072 5.509087,-13.288156 -0.362822,-1.897987 -2.323582,-4.850969 -4.357244,-6.562182 -12.767632,-10.743253 -28.640941,7.523562 -16.39767,18.870243 3.875009,3.591236 10.875397,4.041264 15.245827,0.980095 z M 105.35947,106.31802 C 95.939712,101.39708 91.277542,93.707534 91.031372,82.68599 c -0.17333,-7.760732 3.78303,-5.344811 -4.413329,-10.616774 -2.285212,-1.469866 -4.412966,-2.708698 -4.632801,-2.9065 -0.550548,-0.495364 4.668546,-10.601902 5.474904,-10.601902 0.357166,0 2.890488,1.143324 5.629606,2.540719 l 4.98022,2.540719 4.032478,-3.050497 c 11.35848,-8.592473 27.56178,-6.40198 36.95709,4.996156 10.88113,13.2007 6.52875,33.349913 -8.86032,41.018609 -8.71203,4.34138 -16.14234,4.25508 -24.83975,-0.2885 z m 21.49661,-15.161056 c 8.95572,-8.955721 0.81462,-23.202249 -11.89615,-20.817691 -5.72826,1.074626 -9.45,5.893704 -9.45,12.236268 0,11.129063 13.40822,16.519343 21.34615,8.581423 z"
     style="fill-opacity:1" />
</svg>
