<?xml version="1.0" encoding="UTF-8" standalone="no"?>
<!-- Created with Inkscape (http://www.inkscape.org/) -->

<svg
   xmlns:dc="http://purl.org/dc/elements/1.1/"
   xmlns:cc="http://creativecommons.org/ns#"
   xmlns:rdf="http://www.w3.org/1999/02/22-rdf-syntax-ns#"
   xmlns:svg="http://www.w3.org/2000/svg"
   xmlns="http://www.w3.org/2000/svg"
   xmlns:sodipodi="http://sodipodi.sourceforge.net/DTD/sodipodi-0.dtd"
   xmlns:inkscape="http://www.inkscape.org/namespaces/inkscape"
   id="svg3390"
   version="1.1"
   inkscape:version="0.91 r13725"
   width="180"
   height="180"
   viewBox="0 0 180 180"
   sodipodi:docname="geneontology.svg">
  <metadata
     id="metadata3396">
    <rdf:RDF>
      <cc:Work
         rdf:about="">
        <dc:format>image/svg+xml</dc:format>
        <dc:type
           rdf:resource="http://purl.org/dc/dcmitype/StillImage" />
        <dc:title></dc:title>
      </cc:Work>
    </rdf:RDF>
  </metadata>
  <defs
     id="defs3394" />
  <sodipodi:namedview
     pagecolor="#ffffff"
     bordercolor="#666666"
     borderopacity="1"
     objecttolerance="10"
     gridtolerance="10"
     guidetolerance="10"
     inkscape:pageopacity="0"
     inkscape:pageshadow="2"
     inkscape:window-width="1585"
     inkscape:window-height="866"
     id="namedview3392"
     showgrid="false"
     inkscape:zoom="0.81415489"
     inkscape:cx="91.619246"
     inkscape:cy="100.08318"
     inkscape:window-x="0"
     inkscape:window-y="0"
     inkscape:window-maximized="0"
     inkscape:current-layer="svg3390" />
  <path
     sodipodi:nodetypes="ssccsssssssssssssssssssssssssssssssssssssssssssssscssssssss"
     inkscape:connector-curvature="0"
     id="path3408"
     d="M 68.258653,168.07171 C 50.919459,163.31502 32.745775,149.98391 22.819255,134.74015 1.7714058,102.41778 6.1541258,60.302625 33.380775,33.250614 53.062993,17.602186 70.035629,10.345017 90.843394,10.185468 c 13.411616,-0.09293 23.170966,2.22973 35.481096,8.225844 13.19189,6.425608 29.07227,22.266734 35.41988,35.332298 18.45294,37.982559 6.90593,81.22536 -27.75673,103.94711 -14.00941,9.18333 -25.43868,12.32929 -44.290166,12.1911 -8.609802,-0.0631 -17.943145,-0.85113 -21.438821,-1.81011 z m 38.690837,-5.79139 c 12.53738,-2.62748 24.24371,-9.38872 35.11112,-20.27917 15.32818,-15.36065 21.76388,-30.73957 21.76388,-52.00754 0,-21.218401 -6.43385,-36.51726 -21.8333,-51.916703 C 126.39237,22.478084 111.33258,16.24361 89.251405,16.24361 c -37.04659,0 -68.1751,27.8156 -72.85709,65.103134 -2.78275,22.161896 5.13492,44.808866 21.32655,61.000496 18.339122,18.33912 42.98017,25.43405 69.228625,19.93308 z M 62.235075,149.58504 c -19.8011,-6.15919 -25.64729,-31.54805 -10.483064,-45.52594 3.002204,-2.76733 6.716862,-5.430889 8.254798,-5.919009 2.115548,-0.67145 2.620437,-1.54281 2.074037,-3.579486 C 61.683631,93.080008 61.350957,90.663965 61.34157,89.19162 61.33045,87.444988 60.320696,86.262691 58.436175,85.789706 53.061362,84.440714 45.446513,77.801395 42.651095,72.02684 39.087605,64.665637 38.969845,54.544987 42.370735,47.931326 51.00888,31.132872 71.06617,27.37398 85.284031,39.889042 c 3.74279,3.294537 6.115194,4.549542 7.346665,3.886397 5.762559,-3.103124 7.305456,-2.782635 9.272914,1.926155 2.64601,6.332796 2.56911,6.55289 -3.079108,8.812862 -4.570284,1.828664 -5.000001,2.397563 -5.000001,6.619448 0,7.528833 -5.510409,16.95178 -12.599376,21.545275 -5.527892,3.58195 -5.884329,4.458954 -6.150624,8.577067 -0.434258,6.715575 0.411551,4.802075 7.145865,8.246135 21.872524,11.186019 19.419014,42.975119 -3.850196,49.885339 -7.281377,2.16234 -9.721824,2.19218 -16.135095,0.19732 z m 16.68558,-16.99529 c 8.051907,-8.0519 2.54258,-21.34615 -8.846154,-21.34615 -9.799679,0 -15.553248,9.95645 -10.755616,18.61241 3.952245,7.1307 13.82756,8.50795 19.60177,2.73374 z M 73.67841,70.455244 c 3.751788,-2.627854 6.349261,-8.893072 5.509087,-13.288156 -0.362822,-1.897987 -2.323582,-4.850969 -4.357244,-6.562182 -12.767632,-10.743253 -28.640941,7.523562 -16.39767,18.870243 3.875009,3.591236 10.875397,4.041264 15.245827,0.980095 z m 41.24562,46.045576 c -9.41976,-4.92094 -14.08193,-12.61049 -14.3281,-23.632034 -0.17333,-7.760732 3.78303,-5.344811 -4.413329,-10.616774 -2.285212,-1.469866 -4.412966,-2.708698 -4.632801,-2.9065 -0.550548,-0.495364 4.668546,-10.601902 5.474904,-10.601902 0.357166,0 2.890488,1.143324 5.629606,2.540719 l 4.98022,2.540719 4.03248,-3.050497 c 11.35848,-8.592473 27.56178,-6.40198 36.95709,4.996156 10.88113,13.2007 6.52875,33.349913 -8.86032,41.018613 -8.71203,4.34138 -16.14234,4.25508 -24.83975,-0.2885 z m 21.49661,-15.16106 c 8.95572,-8.955721 0.81462,-23.202249 -11.89615,-20.817691 -5.72826,1.074626 -9.45,5.893704 -9.45,12.236268 0,11.129063 13.40822,16.519343 21.34615,8.581423 z"
     style="fill-opacity:1" />
</svg>
