<?xml version="1.0" encoding="UTF-8" standalone="no"?>
<!-- Created with Inkscape (http://www.inkscape.org/) -->

<svg
   xmlns:dc="http://purl.org/dc/elements/1.1/"
   xmlns:cc="http://creativecommons.org/ns#"
   xmlns:rdf="http://www.w3.org/1999/02/22-rdf-syntax-ns#"
   xmlns:svg="http://www.w3.org/2000/svg"
   xmlns="http://www.w3.org/2000/svg"
   xmlns:sodipodi="http://sodipodi.sourceforge.net/DTD/sodipodi-0.dtd"
   xmlns:inkscape="http://www.inkscape.org/namespaces/inkscape"
   id="svg5879"
   version="1.1"
   inkscape:version="0.91 r13725"
   width="337.82623"
   height="384.92441"
   viewBox="0 0 337.82623 384.92441"
   sodipodi:docname="hideplane.svg">
  <metadata
     id="metadata5885">
    <rdf:RDF>
      <cc:Work
         rdf:about="">
        <dc:format>image/svg+xml</dc:format>
        <dc:type
           rdf:resource="http://purl.org/dc/dcmitype/StillImage" />
        <dc:title></dc:title>
      </cc:Work>
    </rdf:RDF>
  </metadata>
  <defs
     id="defs5883" />
  <sodipodi:namedview
     pagecolor="#ffffff"
     bordercolor="#666666"
     borderopacity="1"
     objecttolerance="10"
     gridtolerance="10"
     guidetolerance="10"
     inkscape:pageopacity="0"
     inkscape:pageshadow="2"
     inkscape:window-width="640"
     inkscape:window-height="480"
     id="namedview5881"
     showgrid="false"
     inkscape:zoom="0.472"
     inkscape:cx="178.64407"
     inkscape:cy="200.72768"
     inkscape:window-x="0"
     inkscape:window-y="0"
     inkscape:window-maximized="0"
     inkscape:current-layer="svg5879"
     fit-margin-top="0"
     fit-margin-left="0"
     fit-margin-right="0"
     fit-margin-bottom="0" />
  <path
     style="fill:#000000"
     d="M 32.635187,377.85459 C 27.27739,373.94692 23.03014,370.1486 23.19687,369.41388 23.61751,367.56014 293.31343,0.05052349 294.29009,1.7249214e-4 295.40769,-0.05744751 314.9883,14.339398 314.72061,15.021922 314.1751,16.4128 43.437687,384.89309 42.938327,384.92432 c -0.30892,0.0193 -4.94533,-3.16206 -10.30314,-7.06973 z M 238,308.51119 c -59.41934,-19.67708 -97.40007,-32.73673 -97.24413,-33.43734 0.29484,-1.32472 11.09718,-16.11441 11.76991,-16.11441 0.24589,0 37.23405,12.15 82.19593,27 44.96188,14.85 82.09599,27 82.52024,27 0.42426,0 0.65588,-32.0625 0.51471,-71.25 l -0.25666,-71.25 -39.01606,-13 c -21.45884,-7.15 -39.61506,-13.23957 -40.34715,-13.53238 -1.57898,-0.63153 10.08782,-16.96762 12.11782,-16.96762 0.6946,0 20.60897,6.45064 44.25415,14.33475 l 42.99124,14.33475 0.25518,92.66525 c 0.20334,73.83889 1.7e-4,92.64894 -1,92.58499 C 336.06483,340.83498 291.625,326.26944 238,308.51119 Z M 43.724657,244.32333 0,229.86311 0,137.03782 0,44.212527 l 28.25,9.22538 c 113.54991,37.08112 168.73272,55.742533 168.0716,56.837513 -2.38512,3.95038 -11.539,15.68402 -12.23572,15.68402 -0.45947,0 -36.98202,-11.925 -81.16123,-26.500003 -44.179213,-14.575 -80.91356,-26.5 -81.6319,-26.5 -1.06494,0 -1.25869,13.14322 -1.04941,71.187783 L 20.5,215.335 l 39.864417,13.06222 39.864423,13.06222 -6.389753,8.66205 -6.38976,8.66205 -43.72467,-14.46021 z"
     id="path5889"
     inkscape:connector-curvature="0" />
</svg>
