<?xml version="1.0" encoding="UTF-8" standalone="no"?>
<!-- Generated by IcoMoon.io -->

<svg
   xmlns:dc="http://purl.org/dc/elements/1.1/"
   xmlns:cc="http://creativecommons.org/ns#"
   xmlns:rdf="http://www.w3.org/1999/02/22-rdf-syntax-ns#"
   xmlns:svg="http://www.w3.org/2000/svg"
   xmlns="http://www.w3.org/2000/svg"
   xmlns:sodipodi="http://sodipodi.sourceforge.net/DTD/sodipodi-0.dtd"
   xmlns:inkscape="http://www.inkscape.org/namespaces/inkscape"
   version="1.1"
   width="32"
   height="32"
   viewBox="0 0 32 32"
   id="svg3575"
   inkscape:version="0.91 r13725"
   sodipodi:docname="ionChannel.svg">
  <metadata
     id="metadata3591">
    <rdf:RDF>
      <cc:Work
         rdf:about="">
        <dc:format>image/svg+xml</dc:format>
        <dc:type
           rdf:resource="http://purl.org/dc/dcmitype/StillImage" />
        <dc:title></dc:title>
      </cc:Work>
    </rdf:RDF>
  </metadata>
  <defs
     id="defs3589" />
  <sodipodi:namedview
     pagecolor="#ffffff"
     bordercolor="#666666"
     borderopacity="1"
     objecttolerance="10"
     gridtolerance="10"
     guidetolerance="10"
     inkscape:pageopacity="0"
     inkscape:pageshadow="2"
     inkscape:window-width="1038"
     inkscape:window-height="692"
     id="namedview3587"
     showgrid="false"
     inkscape:zoom="10.429825"
     inkscape:cx="17.23884"
     inkscape:cy="18.240495"
     inkscape:window-x="75"
     inkscape:window-y="43"
     inkscape:window-maximized="0"
     inkscape:current-layer="svg3575" />
  <path
     id="path38"
     style="color:#000000;clip-rule:nonzero;display:inline;overflow:visible;visibility:visible;isolation:auto;mix-blend-mode:normal;color-interpolation:sRGB;color-interpolation-filters:linearRGB;solid-color:#000000;solid-opacity:1;fill:#444444;fill-opacity:1;fill-rule:nonzero;stroke:none;stroke-width:38.11625671;stroke-linecap:butt;stroke-linejoin:miter;stroke-miterlimit:4;stroke-dasharray:none;stroke-dashoffset:0;stroke-opacity:1;color-rendering:auto;image-rendering:auto;shape-rendering:auto;text-rendering:auto;enable-background:accumulate"
     d="M 11.683946,3.8144531 C 9.6934699,3.9292633 8.1528321,6.5095209 8.0257422,8.1796875 c 0.037331,0.6246169 0.1488321,1.2449765 0.2890625,1.8574215 0.8459995,2.301465 0.7680629,2.679788 0.6757812,5.060547 -2.4216378,-0.07594 -6.2209501,0.134283 -8.50000001,0.597656 l 0,1.44336 8.47460941,-0.570313 c -0.029437,0.84377 -0.049735,1.113106 -0.015625,1.951172 -0.067689,2.453804 0.2440228,2.940002 -0.1679687,5.367188 -0.8166872,1.542811 -1.1853044,3.869767 1.4375004,4.068359 2.346377,0.914342 4.17434,-1.010279 3.496094,-3.02539 0.157163,-2.597952 -0.304108,-3.191782 -0.158204,-5.785157 -0.487747,-1.738876 1.575232,-2.944049 1.101563,-4.585937 -0.603294,-1.896308 0.261286,-1.773465 -0.05859,-3.703125 C 14.43041,8.6261362 14.847842,6.010273 13.121446,4.171875 12.626031,3.8943903 12.143285,3.7879585 11.683946,3.8144531 Z m 8.786405,0 c -0.45934,-0.026494 -0.942086,0.079937 -1.4375,0.3574219 -1.726397,1.8383981 -1.308964,4.4542607 -1.478515,6.683594 -0.31988,1.92966 0.5447,1.806818 -0.05859,3.703125 -0.473669,1.641888 1.589309,2.847061 1.101562,4.585937 0.145904,2.593375 -0.315367,3.187205 -0.158203,5.785157 -0.678246,2.015111 1.149716,3.939732 3.496094,3.02539 2.622805,-0.198592 2.254188,-2.525548 1.4375,-4.068359 -0.411991,-2.427186 -0.100279,-2.913384 -0.167969,-5.367188 0.03411,-0.838066 0.01381,-1.107402 -0.01563,-1.951172 l 8.47461,0.570313 0,-1.44336 c -2.27905,-0.463372 -6.078362,-0.673596 -8.5,-0.597656 -0.09228,-2.380758 -0.170218,-2.759082 0.675781,-5.060547 0.140231,-0.6124457 0.251732,-1.2328045 0.289062,-1.8574215 -0.127089,-1.670167 -1.667726,-4.2504244 -3.658202,-4.3652344 z"
     inkscape:connector-curvature="0"
     sodipodi:nodetypes="sccccccccccccccssccccccccccccccs" />
</svg>
