<?xml version="1.0" encoding="UTF-8" standalone="no"?>
<!-- Generated by IcoMoon.io -->

<svg
   xmlns:dc="http://purl.org/dc/elements/1.1/"
   xmlns:cc="http://creativecommons.org/ns#"
   xmlns:rdf="http://www.w3.org/1999/02/22-rdf-syntax-ns#"
   xmlns:svg="http://www.w3.org/2000/svg"
   xmlns="http://www.w3.org/2000/svg"
   xmlns:sodipodi="http://sodipodi.sourceforge.net/DTD/sodipodi-0.dtd"
   xmlns:inkscape="http://www.inkscape.org/namespaces/inkscape"
   version="1.1"
   width="32pt"
   height="32pt"
   viewBox="0 0 39.999999 39.999999"
   id="svg3575"
   inkscape:version="0.91 r13725"
   sodipodi:docname="ion-channel.svg">
  <metadata
     id="metadata3591">
    <rdf:RDF>
      <cc:Work
         rdf:about="">
        <dc:format>image/svg+xml</dc:format>
        <dc:type
           rdf:resource="http://purl.org/dc/dcmitype/StillImage" />
        <dc:title />
      </cc:Work>
    </rdf:RDF>
  </metadata>
  <defs
     id="defs3589" />
  <sodipodi:namedview
     pagecolor="#ffffff"
     bordercolor="#666666"
     borderopacity="1"
     objecttolerance="10"
     gridtolerance="10"
     guidetolerance="10"
     inkscape:pageopacity="0"
     inkscape:pageshadow="2"
     inkscape:window-width="1038"
     inkscape:window-height="692"
     id="namedview3587"
     showgrid="false"
     inkscape:zoom="10.429825"
     inkscape:cx="17.641809"
     inkscape:cy="19.753162"
     inkscape:window-x="75"
     inkscape:window-y="43"
     inkscape:window-maximized="0"
     inkscape:current-layer="svg3575"
     units="pt"
     inkscape:document-units="pt"
     inkscape:snap-page="true"
     inkscape:snap-bbox="true"
     inkscape:bbox-nodes="true" />
  <path
     style="color:#000000;clip-rule:nonzero;display:inline;overflow:visible;visibility:visible;isolation:auto;mix-blend-mode:normal;color-interpolation:sRGB;color-interpolation-filters:linearRGB;solid-color:#000000;solid-opacity:1;fill:#444444;fill-opacity:1;fill-rule:nonzero;stroke:none;stroke-width:38.11625671;stroke-linecap:butt;stroke-linejoin:miter;stroke-miterlimit:4;stroke-dasharray:none;stroke-dashoffset:0;stroke-opacity:1;color-rendering:auto;image-rendering:auto;shape-rendering:auto;text-rendering:auto;enable-background:accumulate"
     d="M 14.427734 3.6015625 C 14.199953 3.6129235 13.975194 3.6423562 13.755859 3.6875 C 12.878521 3.8680751 12.077533 4.3042592 11.414062 4.8671875 C 10.087122 5.993044 9.2181812 7.5866755 9.0976562 8.921875 L 9.09375 8.9589844 L 9.0957031 8.9960938 C 9.1485971 9.7421406 9.3067437 10.46756 9.4980469 11.171875 L 9.5058594 11.205078 L 9.5195312 11.236328 C 10.743868 14.044059 10.452151 17.017895 10.337891 20.070312 C 6.9833698 20.343346 4.1327543 20.622337 0 21.021484 L 0 22.873047 L 10.316406 22.146484 C 10.320477 22.382812 10.316682 22.618473 10.328125 22.855469 L 10.326172 22.818359 C 10.234322 25.625296 10.636503 28.383502 10.115234 31 C 9.5677414 31.908345 9.1435138 33.008379 9.3515625 34.058594 C 9.4602248 34.607114 9.7652006 35.132369 10.287109 35.501953 C 10.796765 35.86286 11.503717 36.069287 12.404297 36.134766 C 14.068111 36.659974 15.603982 36.379674 16.615234 35.587891 C 17.608896 34.80988 18.065347 33.511556 17.615234 32.236328 C 17.813359 29.259715 17.213365 26.368714 17.400391 23.566406 L 17.40625 23.476562 L 17.376953 23.388672 C 17.250453 23.008496 17.284206 22.686812 17.416016 22.324219 C 17.547825 21.961626 17.789808 21.575529 18.052734 21.169922 C 18.31566 20.764315 18.600678 20.339634 18.785156 19.855469 C 18.969634 19.371304 19.040775 18.806175 18.84375 18.230469 L 18.841797 18.222656 L 18.839844 18.216797 C 18.481401 17.267013 18.551351 16.299579 18.683594 15.248047 C 18.814075 14.21052 19.006732 13.102272 18.787109 11.929688 C 18.678693 10.727155 18.762867 9.3567115 18.578125 7.9882812 C 18.393383 6.619851 17.912496 5.2302617 16.666016 4.1113281 L 16.615234 4.0664062 L 16.552734 4.0371094 C 15.827442 3.6946541 15.111078 3.5674795 14.427734 3.6015625 z M 25.572266 3.6015625 C 24.888922 3.5674794 24.172558 3.6946549 23.447266 4.0371094 L 23.384766 4.0664062 L 23.333984 4.1113281 C 22.087504 5.2302621 21.606617 6.6198512 21.421875 7.9882812 C 21.237128 9.3567113 21.321307 10.727154 21.212891 11.929688 C 20.993268 13.102272 21.185925 14.21052 21.316406 15.248047 C 21.448649 16.299579 21.518599 17.267013 21.160156 18.216797 L 21.158203 18.222656 L 21.15625 18.230469 C 20.959225 18.806175 21.030366 19.371304 21.214844 19.855469 C 21.399322 20.339634 21.68434 20.764315 21.947266 21.169922 C 22.210192 21.575529 22.452175 21.961626 22.583984 22.324219 C 22.715794 22.686812 22.749547 23.008496 22.623047 23.388672 L 22.59375 23.476562 L 22.599609 23.566406 C 22.786635 26.368714 22.186688 29.259713 22.384766 32.236328 C 21.934653 33.511556 22.391104 34.80988 23.384766 35.587891 C 24.396018 36.379674 25.931889 36.659974 27.595703 36.134766 C 28.496283 36.069287 29.203235 35.86286 29.712891 35.501953 C 30.2348 35.132369 30.539776 34.607114 30.648438 34.058594 C 30.856487 33.008379 30.432259 31.908345 29.884766 31 C 29.363497 28.383502 29.765678 25.625296 29.673828 22.818359 L 29.671875 22.855469 C 29.683318 22.618473 29.679523 22.382812 29.683594 22.146484 L 40 22.873047 L 40 21.021484 C 35.867245 20.622337 33.016631 20.343346 29.662109 20.070312 C 29.547849 17.017895 29.256132 14.044059 30.480469 11.236328 L 30.494141 11.205078 L 30.501953 11.171875 C 30.693256 10.46756 30.851407 9.7421408 30.904297 8.9960938 L 30.90625 8.9589844 L 30.902344 8.921875 C 30.781819 7.586675 29.912879 5.9930445 28.585938 4.8671875 C 27.922466 4.3042595 27.121479 3.868075 26.244141 3.6875 C 26.024806 3.6423562 25.800047 3.6129235 25.572266 3.6015625 z M 14.433594 4.5195312 C 14.96056 4.4985707 15.516291 4.6100642 16.09375 4.8710938 C 17.098707 5.8052269 17.493712 6.8948535 17.658203 8.1132812 C 17.826307 9.3584699 17.743753 10.710442 17.861328 12.013672 L 17.863281 12.037109 L 17.869141 12.060547 C 18.061616 13.039319 17.897301 14.054752 17.761719 15.132812 C 17.626139 16.210874 17.522787 17.363233 17.96875 18.544922 C 18.081763 18.885879 18.047548 19.180181 17.916016 19.525391 C 17.782655 19.875398 17.537994 20.255938 17.273438 20.664062 C 17.008879 21.072185 16.724304 21.507026 16.542969 22.005859 C 16.373014 22.473384 16.313151 23.014703 16.46875 23.572266 C 16.281888 26.549407 16.885411 29.443616 16.683594 32.255859 L 16.675781 32.361328 L 16.714844 32.460938 C 17.094767 33.412478 16.791184 34.268105 16.041016 34.855469 C 15.290844 35.442833 14.06735 35.718618 12.628906 35.246094 L 12.574219 35.226562 L 12.513672 35.222656 C 11.697641 35.170566 11.161471 34.979625 10.826172 34.742188 C 10.490872 34.504748 10.332918 34.226503 10.263672 33.876953 C 10.12518 33.177854 10.457578 32.167988 10.962891 31.363281 L 11.007812 31.291016 L 11.025391 31.207031 C 11.595849 28.373955 11.167471 25.548734 11.255859 22.847656 L 11.257812 22.830078 L 11.255859 22.810547 C 11.071261 18.987168 12.109194 14.895805 10.390625 10.908203 C 10.215017 10.258842 10.082752 9.6164837 10.033203 8.9804688 C 10.130623 8.0048757 10.886389 6.5342829 12.015625 5.5761719 C 12.58449 5.0935129 13.221567 4.7312969 13.916016 4.5839844 C 14.084788 4.5481828 14.257938 4.5265181 14.433594 4.5195312 z M 25.566406 4.5195312 C 25.742062 4.5265181 25.915212 4.5481829 26.083984 4.5839844 C 26.778433 4.7312974 27.41551 5.0935129 27.984375 5.5761719 C 29.113611 6.5342829 29.869377 8.0048748 29.966797 8.9804688 C 29.917248 9.6164834 29.784983 10.258842 29.609375 10.908203 C 27.890806 14.895805 28.928739 18.987168 28.744141 22.810547 L 28.742188 22.830078 L 28.744141 22.847656 C 28.832529 25.548734 28.404151 28.373955 28.974609 31.207031 L 28.992188 31.291016 L 29.037109 31.363281 C 29.542422 32.167988 29.87482 33.177854 29.736328 33.876953 C 29.667082 34.226503 29.509128 34.504748 29.173828 34.742188 C 28.838529 34.979625 28.302359 35.170566 27.486328 35.222656 L 27.425781 35.226562 L 27.371094 35.246094 C 25.93265 35.718618 24.709156 35.442833 23.958984 34.855469 C 23.208816 34.268105 22.905233 33.412478 23.285156 32.460938 L 23.324219 32.361328 L 23.316406 32.255859 C 23.114589 29.443616 23.718112 26.549407 23.53125 23.572266 C 23.686849 23.014703 23.626986 22.473384 23.457031 22.005859 C 23.275696 21.507026 22.991121 21.072185 22.726562 20.664062 C 22.462006 20.255938 22.217345 19.875398 22.083984 19.525391 C 21.952452 19.180181 21.918237 18.885879 22.03125 18.544922 C 22.477213 17.363233 22.373861 16.210873 22.238281 15.132812 C 22.102699 14.054752 21.938384 13.039319 22.130859 12.060547 L 22.136719 12.037109 L 22.138672 12.013672 C 22.256247 10.710442 22.173693 9.3584702 22.341797 8.1132812 C 22.506288 6.8948533 22.901293 5.8052268 23.90625 4.8710938 C 24.48371 4.6100638 25.03944 4.4985707 25.566406 4.5195312 z "
     id="path38-8" />
</svg>
