<?xml version="1.0" encoding="UTF-8" standalone="no"?>
<!-- Generated by IcoMoon.io -->

<svg
   xmlns:dc="http://purl.org/dc/elements/1.1/"
   xmlns:cc="http://creativecommons.org/ns#"
   xmlns:rdf="http://www.w3.org/1999/02/22-rdf-syntax-ns#"
   xmlns:svg="http://www.w3.org/2000/svg"
   xmlns="http://www.w3.org/2000/svg"
   xmlns:sodipodi="http://sodipodi.sourceforge.net/DTD/sodipodi-0.dtd"
   xmlns:inkscape="http://www.inkscape.org/namespaces/inkscape"
   version="1.1"
   width="32pt"
   height="32pt"
   viewBox="0 0 39.999999 39.999999"
   id="svg3575"
   inkscape:version="0.91 r13725"
   sodipodi:docname="ion-channel.svg">
  <metadata
     id="metadata3591">
    <rdf:RDF>
      <cc:Work
         rdf:about="">
        <dc:format>image/svg+xml</dc:format>
        <dc:type
           rdf:resource="http://purl.org/dc/dcmitype/StillImage" />
        <dc:title />
      </cc:Work>
    </rdf:RDF>
  </metadata>
  <defs
     id="defs3589" />
  <sodipodi:namedview
     pagecolor="#ffffff"
     bordercolor="#666666"
     borderopacity="1"
     objecttolerance="10"
     gridtolerance="10"
     guidetolerance="10"
     inkscape:pageopacity="0"
     inkscape:pageshadow="2"
     inkscape:window-width="1038"
     inkscape:window-height="692"
     id="namedview3587"
     showgrid="false"
     inkscape:zoom="7.375"
     inkscape:cx="-4.4531168"
     inkscape:cy="19.959824"
     inkscape:window-x="75"
     inkscape:window-y="43"
     inkscape:window-maximized="0"
     inkscape:current-layer="svg3575"
     units="pt"
     inkscape:document-units="pt"
     inkscape:snap-page="true"
     inkscape:snap-bbox="true"
     inkscape:bbox-nodes="true" />
  <path
     style="color:#000000;clip-rule:nonzero;display:inline;overflow:visible;visibility:visible;isolation:auto;mix-blend-mode:normal;color-interpolation:sRGB;color-interpolation-filters:linearRGB;solid-color:#000000;solid-opacity:1;fill:#444444;fill-opacity:1;fill-rule:nonzero;stroke:none;stroke-width:38.11625671;stroke-linecap:butt;stroke-linejoin:miter;stroke-miterlimit:4;stroke-dasharray:none;stroke-dashoffset:0;stroke-opacity:1;color-rendering:auto;image-rendering:auto;shape-rendering:auto;text-rendering:auto;enable-background:accumulate"
     d="M 14.498047 4.3652344 C 11.943953 4.5125536 9.9677637 7.8217587 9.8046875 9.9648438 C 9.8525895 10.766323 9.9958437 11.563744 10.175781 12.349609 C 11.261331 15.302748 11.161381 16.57988 11.042969 19.634766 C 7.6479916 19.910207 4.7860376 20.190928 0.61523438 20.59375 L 0.61523438 22.445312 L 11.009766 21.712891 C 10.971996 22.79558 10.946464 22.157052 10.990234 23.232422 C 10.903384 26.381037 11.302088 27.006634 10.773438 30.121094 C 9.7255004 32.100762 9.2536719 35.085019 12.619141 35.339844 C 15.629912 36.513088 17.975765 34.044687 17.105469 31.458984 C 17.307134 28.125405 16.715126 27.362862 16.902344 24.035156 C 16.276488 21.803906 18.922244 20.25719 18.314453 18.150391 C 17.540332 15.717131 18.650685 15.874492 18.240234 13.398438 C 18.022668 10.537852 18.558987 7.1812179 16.34375 4.8222656 C 15.708055 4.4662089 15.087451 4.3312385 14.498047 4.3652344 z M 25.623047 4.3652344 C 25.033643 4.3312384 24.413039 4.4662096 23.777344 4.8222656 C 21.562107 7.1812186 22.098425 10.537852 21.880859 13.398438 C 21.470408 15.874492 22.580762 15.717131 21.806641 18.150391 C 21.19885 20.25719 23.844606 21.803906 23.21875 24.035156 C 23.405968 27.362862 22.81396 28.125405 23.015625 31.458984 C 22.145329 34.044687 24.491182 36.513088 27.501953 35.339844 C 30.867422 35.085019 30.395593 32.100762 29.347656 30.121094 C 28.819006 27.006634 29.217709 26.381037 29.130859 23.232422 C 29.174629 22.157052 29.149098 22.79558 29.111328 21.712891 L 39.505859 22.445312 L 39.505859 20.59375 C 35.335056 20.190928 32.473102 19.910207 29.078125 19.634766 C 28.959713 16.57988 28.859762 15.302748 29.945312 12.349609 C 30.12525 11.563744 30.268506 10.766324 30.316406 9.9648438 C 30.15333 7.8217591 28.177141 4.5125534 25.623047 4.3652344 z "
     id="path38" />
</svg>
