<?xml version="1.0" encoding="UTF-8" standalone="no"?>
<!-- Generated by IcoMoon.io -->

<svg
   xmlns:dc="http://purl.org/dc/elements/1.1/"
   xmlns:cc="http://creativecommons.org/ns#"
   xmlns:rdf="http://www.w3.org/1999/02/22-rdf-syntax-ns#"
   xmlns:svg="http://www.w3.org/2000/svg"
   xmlns="http://www.w3.org/2000/svg"
   xmlns:sodipodi="http://sodipodi.sourceforge.net/DTD/sodipodi-0.dtd"
   xmlns:inkscape="http://www.inkscape.org/namespaces/inkscape"
   version="1.1"
   width="32pt"
   height="32pt"
   viewBox="0 0 39.999999 39.999999"
   id="svg2"
   inkscape:version="0.91 r13725"
   sodipodi:docname="make-group.svg">
  <metadata
     id="metadata18">
    <rdf:RDF>
      <cc:Work
         rdf:about="">
        <dc:format>image/svg+xml</dc:format>
        <dc:type
           rdf:resource="http://purl.org/dc/dcmitype/StillImage" />
        <dc:title></dc:title>
      </cc:Work>
    </rdf:RDF>
  </metadata>
  <defs
     id="defs16" />
  <sodipodi:namedview
     pagecolor="#ffffff"
     bordercolor="#666666"
     borderopacity="1"
     objecttolerance="10"
     gridtolerance="10"
     guidetolerance="10"
     inkscape:pageopacity="0"
     inkscape:pageshadow="2"
     inkscape:window-width="1021"
     inkscape:window-height="663"
     id="namedview14"
     showgrid="false"
     units="pt"
     inkscape:snap-bbox="true"
     inkscape:bbox-paths="true"
     inkscape:snap-page="true"
     inkscape:bbox-nodes="true"
     inkscape:zoom="7.375"
     inkscape:cx="14.644068"
     inkscape:cy="21.423729"
     inkscape:window-x="0"
     inkscape:window-y="0"
     inkscape:window-maximized="0"
     inkscape:current-layer="svg2"
     inkscape:document-units="pt" />
  <path
     d="m 12.5,4.9999998 -5.0000002,0 c -1.375,0 -2.5,1.125 -2.5,2.5 l 0,5.0000002 c 0,1.375001 1.125,2.500001 2.5,2.500001 l 5.0000002,0 c 1.375,0 2.5,-1.125 2.5,-2.500001 l 0,-5.0000002 c 0,-1.375 -1.125,-2.5 -2.5,-2.5 z"
     id="path4"
     inkscape:connector-curvature="0"
     style="fill:#444444" />
  <path
     d="m 27.499999,15.000001 5,0 c 1.375,0 2.5,-1.125 2.5,-2.500001 l 0,-5.0000002 c 0,-1.375 -1.125,-2.5 -2.5,-2.5 l -5,0 c -1.375,0 -2.5,1.125 -2.5,2.5 l 0,5.0000002 c 0,1.375001 1.125,2.500001 2.5,2.500001 z m 0,-7.5000012 5,0 0,5.0000002 -5,0 0,-5.0000002 z"
     id="path6"
     inkscape:connector-curvature="0"
     style="fill:#444444" />
  <path
     d="m 12.5,24.999999 -5.0000002,0 c -1.375,0 -2.5,1.125 -2.5,2.5 l 0,5 c 0,1.375 1.125,2.5 2.5,2.5 l 5.0000002,0 c 1.375,0 2.5,-1.125 2.5,-2.5 l 0,-5 c 0,-1.375 -1.125,-2.5 -2.5,-2.5 z m 0,7.5 -5.0000002,0 0,-5 5.0000002,0 0,5 z"
     id="path8"
     inkscape:connector-curvature="0"
     style="fill:#444444" />
  <path
     d="m 32.499999,24.999999 -5,0 c -1.375,0 -2.5,1.125 -2.5,2.5 l 0,5 c 0,1.375 1.125,2.5 2.5,2.5 l 5,0 c 1.375,0 2.5,-1.125 2.5,-2.5 l 0,-5 c 0,-1.375 -1.125,-2.5 -2.5,-2.5 z"
     id="path10"
     inkscape:connector-curvature="0"
     style="fill:#444444" />
  <path
     d="m 34.999999,20.000001 -2.5,0 c -3.33875,0 -6.4775,-1.3 -8.83875,-3.66125 -2.36125,-2.36125 -3.66125,-5.500001 -3.66125,-8.8387512 l 0,-2.5 C 19.999999,2.2499999 17.749999,0 15,0 L 4.9999998,0 C 2.2499999,0 0,2.2499999 0,4.9999998 L 0,15.000001 c 0,2.75 2.2499999,5 4.9999998,5 l 2.5,0 c 3.3387502,0 6.4775002,1.3 8.8387492,3.66125 2.36125,2.361249 3.66125,5.499999 3.66125,8.838749 l 0,2.5 c 0,2.75 2.25,5 5,5 l 10,0 c 2.75,0 5,-2.25 5,-5 l 0,-10 c 0,-2.749999 -2.25,-4.999999 -5,-4.999999 z M 37.499999,35 c 0,0.6625 -0.26125,1.28875 -0.73625,1.76375 -0.475,0.475 -1.10125,0.73625 -1.76375,0.73625 l -10,0 c -0.6625,0 -1.28875,-0.26125 -1.76375,-0.73625 -0.475,-0.475 -0.73625,-1.10125 -0.73625,-1.76375 l 0,-2.5 c 0,-8.28375 -6.716249,-14.999999 -14.9999992,-14.999999 l -2.5,0 c -0.6624999,0 -1.2887499,-0.26125 -1.7637499,-0.73625 -0.475,-0.475 -0.73625,-1.10125 -0.73625,-1.76375 l 0,-10.0000012 c 0,-0.6624999 0.26125,-1.2887499 0.73625,-1.7637499 0.475,-0.475 1.10125,-0.73625 1.7637499,-0.73625 l 10.0000002,0 c 0.6625,0 1.288749,0.26125 1.763749,0.73625 0.475,0.475 0.73625,1.10125 0.73625,1.7637499 l 0,2.5 c 0,8.2837512 6.71625,15.0000012 15,15.0000012 l 2.5,0 c 0.6625,0 1.28875,0.26125 1.76375,0.73625 0.475,0.475 0.73625,1.101249 0.73625,1.763749 l 0,10 z"
     id="path12"
     inkscape:connector-curvature="0"
     style="fill:#444444" />
</svg>
