<?xml version="1.0" encoding="UTF-8" standalone="no"?>
<svg
   xmlns:dc="http://purl.org/dc/elements/1.1/"
   xmlns:cc="http://creativecommons.org/ns#"
   xmlns:rdf="http://www.w3.org/1999/02/22-rdf-syntax-ns#"
   xmlns:svg="http://www.w3.org/2000/svg"
   xmlns="http://www.w3.org/2000/svg"
   viewBox="0 0 293.75 216.25"
   height="216.25"
   width="293.75"
   version="1.1"
   id="svg3390">
  <metadata
     id="metadata3396">
    <rdf:RDF>
      <cc:Work
         rdf:about="">
        <dc:format>image/svg+xml</dc:format>
        <dc:type
           rdf:resource="http://purl.org/dc/dcmitype/StillImage" />
        <dc:title></dc:title>
      </cc:Work>
    </rdf:RDF>
  </metadata>
  <defs
     id="defs3394" />
  <path
     id="path3400"
     d="m 80.235601,204.0341 -9.0625,-10.08085 0,-84.8307 0,-84.830693 72.812499,-0.322573 72.8125,-0.322572 0.36305,-10.3125 c 0.19969,-5.6718745 0.46743,-10.2089925 0.46743,-10.2089925 0.4744,0.127114 5.74764,4.634617 10.73202,10.1726415 l 9.0625,10.069135 0,84.817364 0,84.81736 -73.4375,0.3225 -73.437499,0.32249 -0.625,10.23411 -0.625,10.23412 z M 193.6731,96.2261 c 0,-29.706967 0.43051,-29.803421 8.09442,-31.241179 2.42307,-0.45457 4.40558,-1.036248 4.40558,-1.292617 0,-0.256367 0.34751,-1.371727 0.77225,-2.478577 0.69149,-1.801979 -1.10609,-1.976086 -17.1875,-1.664734 -14.92504,0.288964 -17.95975,0.662558 -17.95975,2.21097 0,1.27548 2.0167,2.184263 6.393,2.880864 9.58847,1.526253 9.75799,2.156531 10.23789,38.068383 0.22278,16.67188 -0.053,30.30866 -0.61292,30.30396 -0.55988,-0.005 -2.40407,-2.11407 -4.09818,-4.6875 -1.69411,-2.57342 -7.05014,-9.74146 -11.90227,-15.92896 -4.85213,-6.1875 -11.31427,-14.625 -14.36032,-18.75 -3.04604,-4.125 -6.27183,-8.24698 -7.16841,-9.15997 -0.89659,-0.91298 -2.28287,-2.88173 -3.0806,-4.375 -0.79775,-1.49326 -4.51846,-6.793153 -8.26827,-11.777528 l -6.81782,-9.0625 -14.94021,0 c -13.506,0 -14.90011,0.208166 -14.52259,2.168482 0.27125,1.408479 2.0328,2.431026 5.02615,2.91758 8.84071,1.437017 8.49167,-0.329952 8.47041,42.879496 -0.0105,21.40019 -0.50935,39.68335 -1.10849,40.62924 -0.59915,0.9459 -3.82491,2.4144 -7.16836,3.26334 -3.61438,0.91772 -6.07901,2.24762 -6.07901,3.28018 0,1.38234 3.5503,1.80792 17.40084,2.08584 11.16157,0.22396 17.88084,-0.13085 18.73955,-0.98955 1.6646,-1.6646 -1.13625,-3.68761 -5.14407,-3.71547 -5.26744,-0.0366 -9.0682,-2.75334 -10.36051,-7.40554 -1.93168,-6.95384 -1.65922,-71.371817 0.30169,-71.331367 0.85938,0.01772 3.53125,2.969597 5.9375,6.559707 2.40625,3.59011 6.36377,8.77873 8.79449,11.53027 2.43073,2.75153 6.89762,8.37779 9.92642,12.50279 6.51475,8.02323 12.21,16.3244 17.52909,23.77185 3.78125,5.30311 8.70769,11.6864 10.94764,14.18509 2.23995,2.49868 6.17745,7.46918 8.75,11.04557 2.57255,3.57639 7.90122,7.57294 8.65326,7.60593 0.14423,-20.24262 -0.14408,-40.5018 0.3991,-64.02905 z"
     style="fill:#000000" />
</svg>
