<?xml version="1.0" encoding="UTF-8" standalone="no"?>
<svg
   xmlns:dc="http://purl.org/dc/elements/1.1/"
   xmlns:cc="http://creativecommons.org/ns#"
   xmlns:rdf="http://www.w3.org/1999/02/22-rdf-syntax-ns#"
   xmlns:svg="http://www.w3.org/2000/svg"
   xmlns="http://www.w3.org/2000/svg"
   xmlns:sodipodi="http://sodipodi.sourceforge.net/DTD/sodipodi-0.dtd"
   xmlns:inkscape="http://www.inkscape.org/namespaces/inkscape"
   viewBox="0 0 40.000001 40"
   width="32pt"
   height="32pt"
   id="svg3580"
   version="1.1"
   inkscape:version="0.91 r13725"
   sodipodi:docname="neuron.svg">
  <sodipodi:namedview
     pagecolor="#ffffff"
     bordercolor="#666666"
     borderopacity="1"
     objecttolerance="10"
     gridtolerance="10"
     guidetolerance="10"
     inkscape:pageopacity="0"
     inkscape:pageshadow="2"
     inkscape:window-width="1027"
     inkscape:window-height="722"
     id="namedview3460"
     showgrid="false"
     inkscape:document-units="pt"
     units="pt"
     inkscape:zoom="6.5783782"
     inkscape:cx="9.1207891"
     inkscape:cy="35.683125"
     inkscape:window-x="0"
     inkscape:window-y="0"
     inkscape:window-maximized="0"
     inkscape:current-layer="svg3580"
     inkscape:snap-bbox="true"
     inkscape:bbox-nodes="true"
     inkscape:snap-page="true" />
  <defs
     id="defs3582" />
  <metadata
     id="metadata3585">
    <rdf:RDF>
      <cc:Work
         rdf:about="">
        <dc:format>image/svg+xml</dc:format>
        <dc:type
           rdf:resource="http://purl.org/dc/dcmitype/StillImage" />
        <dc:title></dc:title>
      </cc:Work>
    </rdf:RDF>
  </metadata>
  <path
     d="M 15.244014,5.6082206e-5 14.697749,1.1179066 14.150656,0.97296004 13.578696,0.78628401 13.26453,0.34485445 l 0.258627,0.48205991 0.580249,0.31295384 0.440991,0.1570259 0.07046,0.038436 -0.07958,1.485709 -0.493212,0.7741498 -0.08704,0.2931889 -0.730283,-1.6251657 -0.480779,-1.1628713 1.070978,3.2459393 -0.353954,1.1705585 -0.423582,-0.6775183 -0.0033,0.00772 0.0025,-0.00772 -0.60269,-0.7005791 -0.520567,-0.5841811 -0.908507,-1.0245129 1.359445,1.8283118 0.522225,0.8641929 -0.11522,0.2931875 -0.951613,-0.065883 -0.757641,1.4275117 0.685525,-0.9377644 0.184022,-0.2602468 1.02953,0.221813 0.111077,-0.3920155 0.408663,0.9586279 -8.49e-4,0.00113 c 2.800058,2.229199 3.371986,5.3528567 0.140089,9.3425067 -0.875203,1.093681 -1.955353,2.122529 -4.363485,1.613088 L 4.2482439,16.065067 3.5859291,15.43257 3.6845719,14.192832 2.2463793,12.977253 1.5774332,11.795713 2.1958146,13.05302 3.4740239,14.220285 3.3397372,15.197579 3.071993,14.942825 2.553912,14.907685 1.8443485,13.984195 1.2060728,13.752501 0.64737421,12.664298 l 0.50896269,1.223267 0.6316443,0.200949 0.3713604,0.79172 -0.8305873,-0.056 -1.02289904,-0.02416 2.66583734,0.50402 0.9524399,0.908118 -0.5761059,0.429349 -0.1218534,-0.0033 -0.00415,-0.0044 -0.0025,0.0044 L 1.8882957,16.606422 0.98808398,16.293441 0,15.911309 l 1.9123404,0.939961 1.1563567,0.04172 -0.7742203,1.312213 -1.044451,0.103211 -0.99222873,-0.63689 0.95161103,0.786231 1.1762511,-0.06589 0.9996889,-1.448374 -0.2445342,1.423117 -0.8082063,0.282207 -0.2437053,1.008044 0.2975857,-0.908117 0.8562842,-0.248168 0.4401616,-1.598811 0.5346595,-0.471079 3.7293537,1.232051 1.4149829,0.459 c 3.1833521,2.319616 7.2348971,5.041999 7.2348971,9.890453 0,0.640929 -0.0777,0.988196 -0.07295,0.99157 l -1.681069,3.911379 -1.801264,3.89381 -1.506165,0.363466 -1.33872,-0.332719 1.189514,0.494137 0.27769,0.0527 1.208579,-0.180084 -0.601802,1.469238 -1.220184,0.932272 1.235105,-0.684106 0.252823,-0.127373 0.398716,-0.970707 1.353642,-2.825372 c 0.15253,0.477955 0.528065,1.016884 0.925084,1.538417 l -0.580251,1.934826 -0.668945,1.255111 0.188996,-0.308563 0.169101,-0.286599 0.322454,-0.42496 0.0092,-0.07028 0.726971,0.304168 0.661486,0.233892 -1.308052,-0.644575 0.0829,-0.274521 0.573619,-1.483514 c 0.483754,0.608821 0.961876,1.037424 1.059371,1.142008 l 0.555384,0.226207 0.648222,0.219616 0.277691,0.06369 -1.235105,-0.621516 -0.04558,-0.01107 -0.04062,-0.01106 c -0.489666,-0.335926 -0.495237,-0.608823 -1.027874,-1.279269 -0.533697,-0.656392 -1.069936,-1.490937 -1.08424,-1.835998 -3.05e-4,-0.0056 -0.0015,-0.03099 -0.0025,-0.04394 l 1.194489,-2.547558 0.03233,-0.06808 -8.5e-4,0 1.257488,-2.682623 c 5.216551,-8.08466 10.434929,-0.546175 12.015334,2.947317 l 1.450625,1.831607 -1.224328,2.143462 -0.655684,3.20531 0.564502,-2.078676 0.341518,-0.944352 1.008806,-1.625166 0.0059,0.776344 0.907678,1.585636 -0.222982,2.668348 0.222982,-1.626265 0.148377,-1.07832 -0.769246,-1.638343 0.05553,-0.777444 0.949952,1.585635 0.8223,1.191423 0.769247,-0.491942 1.332088,-0.776348 -1.542637,0.623713 -0.493213,0.191067 -0.675577,-0.979491 -1.143094,-1.845881 -1.380169,-2.288409 2.539012,-0.168009 0.944981,1.281467 -0.08456,2.444336 0.144235,-0.880663 0.04808,-0.370055 -8.48e-4,0 0.02652,-0.433743 0.04808,-0.875174 -0.76676,-1.177147 1.168791,0.112014 0.2321,0.289894 0.222983,0.237186 0.708735,-0.200948 0.667287,-0.453512 -1.367733,0.489749 -0.402032,-0.500728 -0.935031,-0.252559 0.322453,-0.259148 1.041135,-0.31625 0.572792,-0.155927 0.2006,-0.208637 0.996373,-1.355036 -1.295616,1.404449 -1.601493,0.354682 -0.656513,0.440332 -3.005698,0.130681 C 23.667051,20.865421 24.45904,20.809389 30.660446,17.987794 l 5.098743,1.057456 0.654855,0.62481 -0.09865,1.239738 1.438194,1.216679 0.668945,1.180441 -0.618379,-1.256209 -1.278211,-1.167265 0.134287,-0.978393 0.267744,0.255853 0.518082,0.03513 0.709563,0.923488 0.638277,0.231696 0.558697,1.088202 -0.508963,-1.224365 -0.631645,-0.200949 -0.370532,-0.790622 0.829761,0.056 1.022897,0.02416 -2.665837,-0.50402 -0.95244,-0.908118 0.576106,-0.42935 0.122679,0.0033 0.0033,0.0033 0.0025,-0.0033 1.331261,0.03075 0.900217,0.314052 0.988053,0.381025 -1.912342,-0.938862 -1.156356,-0.04282 0.77422,-1.311113 1.044452,-0.104327 0.992228,0.636889 -0.951609,-0.785131 -1.176253,0.06478 -0.999688,1.447275 0.244533,-1.42202 0.808207,-0.282209 0.243706,-1.008041 -0.297586,0.909214 -0.856286,0.247069 -0.440161,1.597714 -0.534659,0.473275 -3.729355,-1.23315 -1.3926,-0.451313 C 21.964707,13.86072 24.628371,12.128371 26.171783,9.6181448 l 0.0059,0.020865 c -0.09332,0.1110273 0.386784,-0.4876359 0.846338,-1.4483738 l 0.121027,-0.1043151 2.185059,-0.7873268 0.0092,-0.016471 1.374365,-0.9136074 0.07211,-0.065885 0.12848,-0.1229867 0.116054,-0.4062925 0.505648,-2.1753064 -0.815668,2.4992417 -1.084239,0.6171241 0.856284,-1.6339511 0.125173,-0.4359388 0.02984,-0.4875508 0.175734,-2.0962446 -0.392084,2.5563416 -1.270749,2.3597856 -1.901565,0.6852042 c 0.0656,-0.1630612 0.126947,-0.3344442 0.184851,-0.5106086 l 1.421615,-1.8952954 0.06382,-1.6932462 0.05389,-2.2367996 -0.385453,3.7697259 -0.965703,1.3759006 c 0.155925,-0.6905446 0.216501,-1.4393734 0.07626,-2.1961704 -0.0091,-0.046378 -0.0183,-0.093385 -0.02736,-0.1383581 L 27.665673,4.0640645 27.355654,3.8609189 27.305921,2.4707439 27.18656,0.48760166 27.0846,3.6830291 26.567348,3.3437206 25.625683,2.9396259 l 1.799608,1.37041 c 0.0043,0.018945 0.0078,0.03664 0.0116,0.054908 0.271091,1.4434991 -0.08071,2.474293 -0.505649,3.263509 l -0.930887,1.3001324 -0.0033,-0.00331 C 24.041568,12.430011 20.370669,13.261567 13.907938,6.1009979 l -0.0025,0.00213 -0.150037,-0.16032 L 13.739619,5.7308782 14.104366,4.3473194 14.284243,3.7894918 14.745957,3.0570687 14.80481,1.3133094 15.244143,0 Z M 12.118121,19.101246 l 0.22464,0.13726 c 0.06771,0.04802 0.142737,0.11592 0.218836,0.187772 -0.147824,-0.11232 -0.295664,-0.221314 -0.443476,-0.325032 z m 5.29603,20.238806 -8.49e-4,0.0011 z M 12.388352,40 12.3892,40 Z"
     style="fill:#000000;fill-opacity:1;fill-rule:nonzero;stroke:none"
     id="path28"
     inkscape:connector-curvature="0"
     sodipodi:nodetypes="cccccccccccccccccccccccccccccccccccccccccccccccccccccccccccccccccccccccccccccccscccccccccccccccccccccccccccccccccccccccccccccccccccccccccccccccccccccccccccccccccccccccccccccccccccccccccccccccccccccccccccccccccccccccccccccccccccccccccccccccccccccccccccccccccccccccccccccccccc" />
</svg>
