<?xml version="1.0" encoding="UTF-8" standalone="no"?>
<svg
   xmlns:dc="http://purl.org/dc/elements/1.1/"
   xmlns:cc="http://creativecommons.org/ns#"
   xmlns:rdf="http://www.w3.org/1999/02/22-rdf-syntax-ns#"
   xmlns:svg="http://www.w3.org/2000/svg"
   xmlns="http://www.w3.org/2000/svg"
   viewBox="0 0 94.248154 71.366249"
   width="94.248154"
   height="71.366249"
   id="svg3580"
   version="1.1">
  <defs
     id="defs3582" />
  <metadata
     id="metadata3585">
    <rdf:RDF>
      <cc:Work
         rdf:about="">
        <dc:format>image/svg+xml</dc:format>
        <dc:type
           rdf:resource="http://purl.org/dc/dcmitype/StillImage" />
        <dc:title></dc:title>
      </cc:Work>
    </rdf:RDF>
  </metadata>
  <path
     d="M 35.917969,0 34.630859,1.9882812 33.341797,1.7304688 31.994141,1.3984375 31.253906,0.61328125 31.863281,1.4707031 33.230469,2.0273438 34.269531,2.3066406 34.435547,2.375 34.248047,5.0175781 33.085938,6.3945312 32.880859,6.9160156 31.160156,4.0253906 30.027344,1.9570312 32.550781,7.7304688 31.716797,9.8125 30.71875,8.6074219 l -0.0078,0.013672 0.0059,-0.013672 L 29.296875,7.3613281 28.070312,6.3222656 25.929688,4.5 l 3.203124,3.2519531 1.230469,1.5371094 -0.271484,0.5214844 -2.242188,-0.1171875 -1.785156,2.5390626 1.615235,-1.667969 0.433593,-0.462891 2.425781,0.394532 0.261719,-0.6972659 0.962891,1.7050779 -0.002,0.002 c 6.5975,3.965 7.945078,9.520938 0.330078,16.617188 -2.062153,1.94529 -4.607205,3.775265 -10.28125,2.869141 l -11.800781,-2.417969 -1.5605472,-1.125 0.2324218,-2.205078 -3.3886718,-2.16211 -1.5761719,-2.101562 1.4570312,2.236328 3.0117188,2.076172 -0.3164063,1.738281 -0.6308594,-0.453125 -1.2207031,-0.0625 -1.671875,-1.642578 -1.5039062,-0.412109 -1.3164063,-1.935547 1.1992188,2.175781 1.4882812,0.357422 0.875,1.408203 -1.9570312,-0.09961 -2.41015628,-0.04297 6.28124998,0.896484 2.2441407,1.615235 -1.3574219,0.763671 -0.2871094,-0.0059 -0.00977,-0.0078 -0.00586,0.0078 L 4.4492188,29.537109 2.328125,28.980469 0,28.300781 4.5058594,29.972656 7.2304688,30.046875 5.40625,32.380859 2.9453125,32.564453 0.60742188,31.431641 2.8496094,32.830078 5.6210938,32.712891 7.9765625,30.136719 7.4003906,32.667969 5.4960938,33.169922 4.921875,34.962891 5.6230469,33.347656 7.640625,32.90625 8.6777344,30.0625 9.9375,29.224609 l 8.787109,2.191407 3.333985,0.816406 c 7.500619,4.125819 17.046875,8.968026 17.046875,17.591797 0,1.14 -0.183075,1.757672 -0.171875,1.763672 l -3.960938,6.957031 -4.24414,6.925781 -3.548828,0.646485 -3.154297,-0.591797 2.802734,0.878906 0.654297,0.09375 2.847656,-0.320313 -1.417969,2.613282 -2.875,1.658203 2.910157,-1.216797 0.595703,-0.226563 0.939453,-1.726562 3.189453,-5.025391 c 0.359394,0.850124 1.24423,1.808698 2.179687,2.736328 l -1.367187,3.441407 -1.576172,2.232421 0.445313,-0.548828 0.398437,-0.509765 0.759766,-0.75586 0.02148,-0.125 1.712891,0.541016 1.558594,0.416016 -3.082032,-1.146485 0.195313,-0.488281 1.351562,-2.638672 c 1.139824,1.082888 2.266376,1.845228 2.496094,2.03125 l 1.308594,0.402344 1.527343,0.390625 0.654297,0.113281 -2.910156,-1.105469 -0.107422,-0.01953 -0.0957,-0.01953 c -1.15375,-0.5975 -1.166875,-1.082891 -2.421875,-2.275391 -1.2575,-1.1675 -2.520987,-2.651875 -2.554687,-3.265625 -7.23e-4,-0.0099 -0.0039,-0.05512 -0.0059,-0.07813 l 2.814453,-4.53125 0.07617,-0.121093 -0.002,0 2.962891,-4.771485 c 12.29125,-14.38 24.586797,-0.971562 28.310547,5.242188 l 3.417968,3.257812 -2.884765,3.8125 -1.544922,5.701172 1.330078,-3.697266 0.804687,-1.679687 2.376954,-2.890625 0.01367,1.380859 2.138671,2.820313 -0.52539,4.746093 0.52539,-2.892578 0.34961,-1.917968 -1.8125,-2.914063 0.130859,-1.382812 2.238281,2.820312 1.9375,2.119141 1.8125,-0.875 3.138672,-1.38086 -3.634765,1.109375 -1.16211,0.339844 -1.591797,-1.742187 -2.693359,-3.283204 -3.251953,-4.070312 5.982422,-0.298828 2.226562,2.279297 -0.199219,4.347656 0.339844,-1.566406 0.113282,-0.658203 -0.002,0 0.0625,-0.771485 0.113282,-1.55664 -1.806641,-2.09375 2.753906,0.199218 0.546875,0.515625 0.525391,0.421875 1.669922,-0.357421 1.572265,-0.806641 -3.222656,0.871094 -0.947266,-0.890625 -2.203124,-0.449219 0.759765,-0.460938 2.453125,-0.5625 1.34961,-0.277343 0.472656,-0.371094 2.347656,-2.410156 -3.052734,2.498046 -3.773438,0.63086 -1.546875,0.783203 -7.082031,0.232422 C 55.764342,37.112476 57.630428,37.01281 72.242188,31.994141 l 12.013671,1.880859 1.542969,1.111328 -0.232422,2.205078 3.388672,2.164063 1.576172,2.099609 -1.457031,-2.234375 -3.011719,-2.076172 0.316406,-1.740234 0.63086,0.455078 1.220703,0.0625 1.671875,1.642578 1.503906,0.412109 1.316406,1.935547 -1.199218,-2.177734 -1.488282,-0.357422 -0.873047,-1.40625 1.955079,0.09961 2.410156,0.04297 -6.28125,-0.896484 -2.244141,-1.615235 1.357422,-0.763671 0.289063,0.0059 0.0078,0.0059 0.0059,-0.0059 3.136719,0.05469 2.121094,0.558593 2.328125,0.677735 -4.505859,-1.669922 -2.72461,-0.07617 1.824219,-2.332031 2.460937,-0.185547 2.337891,1.132812 -2.242187,-1.396484 -2.771485,0.115234 -2.355469,2.574219 0.576172,-2.529297 1.904297,-0.501953 0.574219,-1.792969 -0.701172,1.617188 -2.017578,0.439453 -1.03711,2.841797 -1.259765,0.841797 -8.787109,-2.19336 -3.28125,-0.802734 C 51.753295,24.65354 58.029423,21.572273 61.666016,17.107422 l 0.01367,0.03711 c -0.219882,0.19747 0.91134,-0.86734 1.99414,-2.576172 l 0.285156,-0.185547 5.148438,-1.40039 0.02148,-0.0293 3.238282,-1.625 0.169921,-0.117187 0.302735,-0.21875 0.273437,-0.722657 1.191407,-3.8691404 -1.921876,4.4453124 -2.554687,1.097656 2.017578,-2.9062496 0.294922,-0.7753906 0.07031,-0.8671876 0.414062,-3.7285156 -0.923828,4.546875 -2.994141,4.1972654 -4.480469,1.21875 c 0.154551,-0.290033 0.299108,-0.594865 0.435547,-0.908203 l 3.34961,-3.3710936 0.15039,-3.0117188 0.126953,-3.9785156 -0.908203,6.7050781 -2.27539,2.4472659 c 0.36739,-1.228247 0.510117,-2.5601643 0.179687,-3.9062502 -0.0213,-0.0825 -0.04315,-0.1660938 -0.06445,-0.2460938 l -0.03516,-0.1308594 -0.730469,-0.3613281 -0.117187,-2.4726563 -0.28125,-3.5273437 -0.240235,5.6835937 -1.21875,-0.6035156 -2.21875,-0.71875 4.240235,2.4375 c 0.01,0.0337 0.01834,0.065156 0.02734,0.097656 0.63875,2.5675001 -0.190156,4.4009371 -1.191406,5.8046871 l -2.193359,2.3125 -0.0078,-0.0059 c -4.6075,6.23375 -13.256875,7.712812 -28.484375,-5.023438 l -0.0059,0.0039 -0.353516,-0.285157 -0.03711,-0.376953 L 33.232422,7.7324219 33.65625,6.7402344 34.744141,5.4375 34.882812,2.3359375 35.917969,0 Z m -7.365235,33.974609 0.529297,0.244141 c 0.159547,0.08542 0.336319,0.20618 0.515625,0.333984 -0.348304,-0.199766 -0.696648,-0.393645 -1.044922,-0.578125 z m 25.96875,9.669922 c 3.300069,0.322965 5.626974,2.019203 6.667969,2.9375 l 0.02734,0.03711 c -2.267243,-1.794625 -4.518906,-2.68777 -6.695313,-2.97461 z m -13.490234,26.328125 -0.002,0.002 0.002,-0.002 z m -11.841797,1.173828 0.002,0 -0.002,0 z"
     style="fill:#000000;fill-opacity:1;fill-rule:nonzero;stroke:none"
     id="path28" />
</svg>
