<?xml version="1.0" encoding="UTF-8" standalone="no"?>
<svg
   xmlns:dc="http://purl.org/dc/elements/1.1/"
   xmlns:cc="http://creativecommons.org/ns#"
   xmlns:rdf="http://www.w3.org/1999/02/22-rdf-syntax-ns#"
   xmlns:svg="http://www.w3.org/2000/svg"
   xmlns="http://www.w3.org/2000/svg"
   xmlns:sodipodi="http://sodipodi.sourceforge.net/DTD/sodipodi-0.dtd"
   xmlns:inkscape="http://www.inkscape.org/namespaces/inkscape"
   version="1.1"
   id="svg3473"
   viewBox="0 0 9.0311113 9.0311111"
   height="32"
   width="32"
   inkscape:version="0.91 r13725"
   sodipodi:docname="osb.svg">
  <defs
     id="defs3485" />
  <sodipodi:namedview
     pagecolor="#ffffff"
     bordercolor="#666666"
     borderopacity="1"
     objecttolerance="10"
     gridtolerance="10"
     guidetolerance="10"
     inkscape:pageopacity="0"
     inkscape:pageshadow="2"
     inkscape:window-width="1276"
     inkscape:window-height="755"
     id="namedview3483"
     showgrid="false"
     inkscape:zoom="3.604943"
     inkscape:cx="11.132043"
     inkscape:cy="12.482866"
     inkscape:window-x="4"
     inkscape:window-y="0"
     inkscape:window-maximized="1"
     inkscape:current-layer="svg3473"
     units="px" />
  <metadata
     id="metadata3478">
    <rdf:RDF>
      <cc:Work
         rdf:about="">
        <dc:format>image/svg+xml</dc:format>
        <dc:type
           rdf:resource="http://purl.org/dc/dcmitype/StillImage" />
        <dc:title></dc:title>
      </cc:Work>
    </rdf:RDF>
  </metadata>
  <path
     style="color:#000000;font-style:normal;font-variant:normal;font-weight:normal;font-stretch:normal;font-size:medium;line-height:normal;font-family:sans-serif;text-indent:0;text-align:start;text-decoration:none;text-decoration-line:none;text-decoration-style:solid;text-decoration-color:#000000;letter-spacing:normal;word-spacing:normal;text-transform:none;direction:ltr;block-progression:tb;writing-mode:lr-tb;baseline-shift:baseline;text-anchor:start;white-space:normal;clip-rule:nonzero;display:inline;overflow:visible;visibility:visible;opacity:1;isolation:auto;mix-blend-mode:normal;color-interpolation:sRGB;color-interpolation-filters:linearRGB;solid-color:#000000;solid-opacity:1;fill:#000000;fill-opacity:1;fill-rule:nonzero;stroke:none;stroke-width:1.12421441;stroke-linecap:butt;stroke-linejoin:miter;stroke-miterlimit:4;stroke-dasharray:none;stroke-dashoffset:0;stroke-opacity:1;color-rendering:auto;image-rendering:auto;shape-rendering:auto;text-rendering:auto;enable-background:accumulate"
     d="M 4.1572668,-0.04789994 C 2.7965358,-0.03319688 1.7239678,0.61042155 1.0224497,1.4314017 0.32093167,2.2523819 -0.01802446,3.2484514 0.09538492,4.0005419 l 0,0.0015 2.9866e-4,0.00119 c 0.0881196,0.4795188 0.28676429,0.774819 0.54029004,0.9972517 0.2535257,0.2224329 0.55545358,0.3761208 0.86673388,0.6000236 0.021763,0.015651 0.047817,0.048436 0.070784,0.068094 C 1.1852564,5.6072716 0.81144922,5.4849203 0.49410641,5.2432986 l -0.003883,-0.00269 -0.004181,-0.00269 c -0.052326,-0.031245 -0.1080241,-0.045171 -0.16008557,-0.037623 -0.0520615,0.00755 -0.0967623,0.037176 -0.12454448,0.074965 -0.0555644,0.075579 -0.0539296,0.1864068 0.0176214,0.2613344 l 0,3.058e-4 C 0.60750857,5.9422244 1.3578622,6.0602384 2.0465813,6.2277141 2.3256845,6.6463869 2.565985,7.1525052 2.6328662,7.4552387 2.5798467,7.6247394 2.509158,7.7860194 2.5325139,7.9372885 c 0.012267,0.079454 0.074518,0.1587367 0.1636701,0.1842782 0.089152,0.02554 0.1969888,0.017115 0.3473505,-0.017024 l 0.00477,-0.00119 0.00477,-0.0015 C 3.2095408,8.0471537 3.3114615,7.9815053 3.3675843,7.893981 3.4237073,7.806457 3.4174863,7.702052 3.3810243,7.6207 3.3114997,7.4655678 3.1586631,7.3527742 3.0518973,7.2754375 2.9665256,7.0253883 2.7834807,6.7213044 2.6143489,6.4137809 2.8121745,6.4834105 3.018051,6.5487122 3.1588204,6.649131 3.3563532,6.7900429 3.4832929,6.9618556 3.5181176,7.2046532 l 0,3.059e-4 0,3.058e-4 c 0.042348,0.282456 0.038934,0.4990158 0.00387,0.6558746 C 3.4869493,8.0179979 3.4234851,8.1131541 3.3427994,8.1708578 3.181428,8.2862653 2.9092499,8.26166 2.5919485,8.1173963 1.9573464,7.8288514 1.2007926,7.0818382 0.98332422,6.4911325 l -0.005077,-0.013737 -0.009557,-0.011349 C 0.88570972,6.3663117 0.76144152,6.3365092 0.66016572,6.3668871 0.6095278,6.3820765 0.56103926,6.4145984 0.5341279,6.4669408 0.50721655,6.5192833 0.50890433,6.5862693 0.53591995,6.6452456 1.1510005,8.0004977 2.2149355,8.7159903 3.2758981,8.9691795 4.3359066,9.2221412 5.3933597,9.0226494 6.0236417,8.5393966 6.340531,8.3178938 6.50001,8.0014154 6.5881239,7.6523533 6.6763755,7.302746 6.6981368,6.9168646 6.7437298,6.5320503 c 0.00253,-0.021364 0.016068,-0.049349 0.020608,-0.071979 0.127658,0.3594664 0.1985811,0.7346503 0.1442566,1.1182121 l -5.964e-4,0.00477 -3.058e-4,0.00477 c -0.00173,0.060922 0.013403,0.116244 0.045397,0.1579952 0.031995,0.041752 0.079497,0.066472 0.1260377,0.072277 0.093083,0.011611 0.1890652,-0.043745 0.2195209,-0.1427632 l 0,-3.059e-4 C 7.4565715,7.1582765 7.2175999,6.4789758 7.0307496,5.8194288 7.2611561,5.4142825 7.5693347,4.9823259 7.7597976,4.6104216 7.9383055,4.5709378 8.1210425,4.5264308 8.2376661,4.423157 8.3000444,4.3679188 8.341276,4.2753501 8.3159171,4.1851186 8.2906726,4.0952942 8.220529,4.0175523 8.1065509,3.9309524 7.9863373,3.8335774 7.8907389,3.7753575 7.7989233,3.7538425 7.7067625,3.7322464 7.612348,3.762776 7.5570022,3.8246265 7.4488808,3.9454542 7.4301517,4.131129 7.3888523,4.3362445 7.2506449,4.5746153 7.0727327,4.9107108 6.8867918,5.2122372 6.8434222,4.9865908 6.8147097,4.7698032 6.8327328,4.5829442 6.8567256,4.3341911 6.9443204,4.1337479 7.1436459,3.9814273 l 3.06e-4,0 0,-3.059e-4 C 7.3694378,3.8065263 7.5593294,3.7074856 7.7111221,3.6669228 7.8629145,3.62636 7.9736118,3.6413686 8.062654,3.6914138 8.2407383,3.7915033 8.3520542,4.0701683 8.3777485,4.4437579 8.4291368,5.1909372 8.1374646,6.2670896 7.7296393,6.7434999 l -0.00956,0.011349 -0.00537,0.013737 c -0.046523,0.1211016 -0.011725,0.2442212 0.064213,0.3177825 0.03797,0.036781 0.089919,0.063296 0.1487367,0.061228 0.058684,-0.00207 0.1164317,-0.036539 0.1547099,-0.088704 l 3.059e-4,-3.058e-4 C 8.9653875,5.859682 9.1055543,4.5110393 8.8308203,3.3996224 8.5562719,2.2889561 7.8728611,1.4070459 7.0785364,1.1404993 6.2743735,0.83729516 5.4150245,1.2742996 4.9756166,1.4977058 4.9167037,1.5276586 4.8007247,1.5446258 4.7086075,1.5678929 4.958243,1.2246489 5.2640913,0.92992353 5.6571764,0.7570098 l 0.00448,-0.002091 0.00418,-0.002386 C 5.71852,0.72189293 5.757421,0.68017289 5.7760402,0.63097527 5.7946598,0.58177785 5.7905526,0.52843948 5.7709617,0.48582283 5.7317909,0.40058504 5.6340403,0.34780969 5.533827,0.37411724 l 0,3.0584e-4 C 4.9800065,0.52088544 4.5047125,1.1415418 4.0148023,1.6703432 3.4634145,1.6987478 2.8623896,1.6614372 2.590157,1.6064282 2.475599,1.4732279 2.3762349,1.3305865 2.236833,1.271323 2.1715957,1.2435888 2.0893953,1.2639829 2.0229867,1.3083576 2.0832716,1.2471378 2.1270446,1.1850973 2.2054727,1.1258717 2.8059419,0.67242216 3.8663939,0.33706386 4.4849052,0.43236505 l 0.014635,0.002091 0.014336,-0.002689 C 4.6413107,0.4074795 4.7276598,0.31316646 4.7501225,0.20985696 4.7613547,0.1582022 4.7563052,0.1001463 4.7235409,0.05126442 4.6907727,0.00238252 4.6311157,-0.02862724 4.5664417,-0.03355731 4.4274233,-0.04463317 4.2909315,-0.04933732 4.1572668,-0.04789336 Z m 0.00179,0.17173399 c 0.1286005,-0.001392 0.2600933,0.003332 0.3942415,0.0140379 l 3.058e-4,0 c 0.02506,0.00191 0.025696,0.006748 0.027179,0.00896 0.00149,0.002213 0.00468,0.0102764 0.00119,0.0262827 -0.00693,0.0318136 -0.041403,0.0777432 -0.099456,0.0893017 -0.703128,-0.0960754 -1.74502,0.24603512 -2.380682,0.72606088 C 1.7800853,1.2314493 1.553079,1.5160947 1.5693104,1.8226562 c 0.00812,0.153281 0.082131,0.3034724 0.2216115,0.4357564 0.1393509,0.1321616 0.3435498,0.2503042 0.6245143,0.355116 0.2745124,0.1043223 0.5446868,0.068216 0.792963,-0.049877 C 3.4566753,2.445557 3.6884137,2.2489735 3.9135538,2.0245558 L 4.0533304,1.8847792 3.855911,1.877612 C 3.3571556,1.8594706 2.7999164,1.9128947 2.5211648,1.8889613 l -0.020609,-0.00179 -0.019414,0.00807 C 2.3643996,1.9431263 2.1827303,2.0025899 2.0818239,1.9890143 2.0313709,1.9822343 2.0077459,1.9695853 1.9886399,1.9295793 1.9698349,1.8902053 1.9610749,1.8059556 1.9907299,1.6685436 2.0354679,1.5412988 2.0806889,1.466878 2.1095997,1.44066 c 0.029557,-0.026804 0.02982,-0.023894 0.060032,-0.011051 0.060425,0.025688 0.182317,0.1683271 0.3124063,0.3150946 l 0.018816,0.021205 0.027478,0.00567 c 0.3053456,0.065942 0.9428522,0.1037036 1.5291791,0.070486 l 0.034346,-0.00209 0.023595,-0.025088 C 4.6216261,1.272555 5.1142278,0.66313428 5.5774355,0.54047259 c 0.017544,-0.004603 0.032807,0.00718 0.037333,0.0170242 0.00226,0.00492 0.00277,0.00681 5.965e-4,0.0125433 -0.00216,0.005733 -0.00931,0.0184485 -0.036139,0.0340484 l 0.00867,-0.004477 C 5.0812987,0.82245294 4.6849798,1.2077868 4.4057584,1.6718286 L 4.3128726,1.8268371 4.491476,1.8014503 C 4.7149055,1.7698433 4.9098163,1.7240089 5.0535688,1.6509219 5.4916654,1.4281824 6.304896,1.0316317 7.0188029,1.3014805 l 0.00179,5.964e-4 0.0015,5.964e-4 C 7.7352209,1.5410686 8.4001142,2.3738386 8.6638681,3.440836 8.9276218,4.5078332 8.7957413,5.8005425 7.9440786,6.9570518 l -3.058e-4,0 0,3.057e-4 c -0.014828,0.020288 -0.01945,0.018126 -0.022101,0.018219 -0.00265,9.34e-5 -0.011223,-0.00144 -0.022997,-0.012842 C 7.8752915,6.9400815 7.8549774,6.8864069 7.8756792,6.8310218 8.3274547,6.2851049 8.6035421,5.2223093 8.549175,4.4318234 8.521654,4.0316748 8.4101389,3.6897605 8.1468694,3.5417936 8.0152346,3.4678099 7.850546,3.4517243 7.6666116,3.500876 7.4828489,3.5499817 7.276432,3.6615037 7.0394093,3.8449413 6.8000777,4.0278336 6.6887649,4.2845272 6.6615946,4.566224 6.6344242,4.8479207 6.6852188,5.1578214 6.761947,5.4762646 L 6.8064481,5.6608415 6.9157605,5.5055342 C 7.1710291,5.142621 7.382548,4.6879663 7.5444565,4.4106179 l 0.00717,-0.011946 0.00269,-0.014038 c 0.04432,-0.2151766 0.087554,-0.3969664 0.1308166,-0.4453138 0.021632,-0.024173 0.02769,-0.029226 0.074666,-0.018218 0.046977,0.011009 0.1289749,0.054029 0.2398303,0.1439578 l 9.022e-4,9.022e-4 0.00119,9.022e-4 c 0.1001623,0.075906 0.1407609,0.136187 0.1487366,0.164566 0.00797,0.028379 0.00531,0.034785 -0.026581,0.063019 -0.063766,0.056467 -0.2534521,0.1174601 -0.4375485,0.1576966 l -0.04032,0.00867 -0.018219,0.037035 C 7.4467986,4.8621376 7.1093878,5.3249434 6.8631992,5.7641929 l -0.017322,0.031061 0.00956,0.034346 c 0.189972,0.6772845 0.4111114,1.3619547 0.2789556,1.7949934 -0.00533,0.017349 -0.023314,0.024038 -0.034048,0.022698 -0.00536,-6.728e-4 -0.00703,-0.00111 -0.010751,-0.00598 -0.00372,-0.00486 -0.011035,-0.01766 -0.010157,-0.048682 l -5.963e-4,0.00985 C 7.1512917,7.0908903 7.052292,6.5861996 6.8378102,6.129446 L 6.7550793,5.953232 6.680711,6.13303 C 6.6267375,6.2634404 6.5876138,6.3900073 6.5731904,6.5117406 6.5268097,6.9032039 6.5039216,7.2838983 6.4214673,7.6105395 6.339013,7.9371808 6.2017603,8.2061587 5.9241854,8.3996197 l -0.00179,9.023e-4 -0.0015,0.0015 C 5.3474751,8.8427398 4.3310927,9.0442585 3.315621,8.8019253 2.3001492,8.5595921 1.2861697,7.8823043 0.69242182,6.5738636 c -0.010464,-0.022844 -0.00659,-0.026003 -0.00538,-0.028373 0.00122,-0.00238 0.00669,-0.00932 0.0224,-0.014038 0.031132,-0.00934 0.087818,-6.423e-4 0.1260378,0.044203 0.25420688,0.6579289 1.00691708,1.3897551 1.68538218,1.698225 0.3434891,0.1561701 0.6814306,0.2085607 0.9216888,0.036736 0.1201293,-0.085913 0.2055798,-0.225469 0.247297,-0.4121617 0.0417,-0.1866151 0.042885,-0.4220931 -0.0015,-0.718296 l 0,-3.059e-4 C 3.6464765,6.8885109 3.4833058,6.6694476 3.2588689,6.5093437 3.034356,6.3491855 2.7490758,6.2419241 2.4426098,6.1536304 l -0.1869659,-0.05406 0.086016,0.1744219 c 0.1993188,0.4046139 0.478666,0.8223823 0.5605994,1.0829695 l 0.00867,0.027179 0.022997,0.016725 c 0.1022296,0.073972 0.2486679,0.197108 0.2903052,0.2900064 0.020819,0.046449 0.022438,0.073187 -0.0015,0.1105072 -0.023519,0.036678 -0.090489,0.088431 -0.2225074,0.1355951 -0.1320408,0.029169 -0.2192785,0.02988 -0.2568542,0.019115 -0.038361,-0.01099 -0.03591,-0.012664 -0.040918,-0.045099 -0.01002,-0.06487 0.046873,-0.2436679 0.1030405,-0.431575 l 0.00627,-0.020906 -0.00448,-0.021205 C 2.7336755,7.0832083 2.4748164,6.5497028 2.173814,6.1046566 L 2.155297,6.0771796 2.123041,6.0694096 C 1.4159583,5.8950664 0.66843642,5.7569369 0.34327921,5.4180195 c -0.0125312,-0.013122 -0.009702,-0.032189 -0.003286,-0.040918 0.003209,-0.00436 0.004702,-0.00569 0.0107519,-0.00657 0.00605,-8.716e-4 0.0205476,-9.786e-4 0.0471895,0.014934 l -0.008064,-0.00537 C 0.81251362,5.7018841 1.3169497,5.8629823 1.8354235,5.8926024 L 2.0373229,5.903952 1.9056104,5.7507353 C 1.8049734,5.6336762 1.7039033,5.5335641 1.6030599,5.4610275 1.2797463,5.2284691 0.98065962,5.0742591 0.74916872,4.8711587 0.51805963,4.6683933 0.34778616,4.4204392 0.26532692,3.9739608 0.16339631,3.2955262 0.4789959,2.3318464 1.1529676,1.5431035 1.8272112,0.7540424 2.8514471,0.13796306 4.1590588,0.12383421 Z M 1.9647465,1.3668894 c -0.051657,0.06159 -0.097764,0.1306958 -0.139179,0.2508811 l -0.00179,0.00448 -9.022e-4,0.00477 c -0.035971,0.1617906 -0.034057,0.2827958 0.010752,0.37662 0.044808,0.093824 0.1368386,0.1440175 0.2251955,0.1559045 0.1699996,0.022871 0.3486615,-0.049419 0.4707005,-0.099456 0.2587391,0.019472 0.675154,-0.0049 1.068932,-0.00836 C 3.4437091,2.188508 3.288658,2.3350756 3.1346215,2.4083441 2.9162741,2.5122025 2.7050083,2.5397396 2.4763577,2.4528456 L 2.476052,2.4525398 C 2.2089835,2.3529858 2.0245296,2.2432592 1.9091804,2.1338613 1.7938313,2.0244634 1.7466367,1.9192747 1.7410305,1.8133908 1.7336843,1.6746414 1.8292524,1.5209043 1.9647327,1.3668824 Z m 2.3075074,0.5483541 -0.028672,0.061824 C 3.9502517,2.6089765 3.8479366,3.3437267 3.9523808,4.0241367 l 0.015829,0.1021441 0.097365,-0.034048 c 0.2741,-0.095344 0.5100804,-0.2486043 0.6089846,-0.5157992 l 0,-3.057e-4 C 4.7319501,3.4198907 4.81419,3.1394653 4.8624214,2.8655972 4.8865371,2.728663 4.9020919,2.5940732 4.9003522,2.4752384 4.898612,2.3564037 4.8846588,2.2506178 4.8191146,2.1705972 4.7110947,2.0387272 4.537873,1.9705085 4.3388567,1.9292808 L 4.2722539,1.9152425 Z M 4.3755932,2.131479 c 0.1319777,0.037864 0.2559315,0.081379 0.3106145,0.1481392 0.018818,0.022974 0.040926,0.096583 0.04241,0.1980169 0.00149,0.1014335 -0.012608,0.2278855 -0.035541,0.3581024 C 4.6472113,3.0961716 4.5658943,3.3734628 4.5132787,3.5167001 4.4510006,3.6849479 4.3058261,3.7894852 4.122024,3.8724135 4.0557607,3.2895899 4.1406823,2.6749975 4.375593,2.131479 Z m -0.3942416,2.0643918 0.029567,0.1120005 c 0.055785,0.210641 0.1422709,0.4207104 0.2622304,0.6277995 l 0.054955,0.095275 0.079147,-0.076459 C 4.5589449,4.807403 4.6964687,4.635463 4.8161279,4.4371943 L 4.8728745,4.3431147 4.7680423,4.310858 C 4.5598786,4.2463808 4.335949,4.2078282 4.0969358,4.1997533 l -0.1155842,-0.00387 z m 0.9590222,0.1729286 -0.018218,0.1078189 c -0.047955,0.281311 -0.026952,0.557189 0.1553071,0.7708617 l 0,3.059e-4 c 0.1083293,0.1263628 0.3128893,0.3349156 0.5283435,0.510722 0.1077268,0.087903 0.2177063,0.1674988 0.3222622,0.2240007 0.1045567,0.056502 0.2034023,0.095787 0.3052387,0.077654 0.1382879,-0.024624 0.263561,-0.099553 0.3778147,-0.2007049 L 6.666375,5.8104767 6.626055,5.7483537 C 6.2456864,5.1625592 5.6751026,4.6849441 5.0407261,4.4121061 L 4.9403738,4.3687998 Z m -0.7081414,0.026283 c 0.1227874,0.011358 0.2410427,0.030189 0.3539213,0.058241 C 4.5188346,4.552134 4.4467411,4.6429335 4.3702169,4.726006 4.3142732,4.6159585 4.2687839,4.5055463 4.2322324,4.3950821 Z M 5.0873184,4.640886 C 5.6132751,4.893599 6.0859433,5.2885692 6.4205714,5.772538 6.347546,5.8246539 6.2741341,5.878169 6.2031412,5.8908105 6.1739046,5.8960157 6.0991485,5.8793049 6.0099031,5.8310769 5.9206577,5.7828488 5.8169632,5.7088858 5.7145207,5.6252948 5.5096355,5.4581126 5.3072993,5.2516312 5.2079801,5.1357783 5.0956351,5.0038763 5.0738988,4.8329608 5.0873184,4.6408857 Z m -1.509467,0.1096112 c -0.04761,-1.517e-4 -0.095676,0.00446 -0.1442568,0.014336 l -3.058e-4,0 C 3.2702684,4.798402 2.9886966,4.8762337 2.7305236,4.9795751 2.6014371,5.0312456 2.4787705,5.0889953 2.3786929,5.153101 2.2786153,5.2172066 2.1962175,5.2848983 2.1627562,5.3827764 c -0.04679,0.1368692 -0.036048,0.2873082 0.00299,0.4411324 l 0.017622,0.069888 0.071979,-0.00537 C 2.9522048,5.8369274 3.6457446,5.5673067 4.1898143,5.1429457 l 0.08512,-0.066603 -0.084225,-0.067798 C 4.0051415,4.8586379 3.8024978,4.7512106 3.577844,4.7504962 Z M 3.5775455,4.9222311 C 3.7098553,4.9226441 3.840347,4.9840801 3.9714883,5.0709676 3.495822,5.4121058 2.91887,5.6367994 2.3306074,5.696975 2.31625,5.6024264 2.3015957,5.5074663 2.3252309,5.4383288 2.3348396,5.410231 2.3858555,5.352674 2.4712794,5.2979549 2.5567027,5.2432362 2.6716832,5.1881997 2.7944379,5.1390635 c 0.24541,-0.098233 0.5236903,-0.1749798 0.6731972,-0.2057821 0.037311,-0.00759 0.073987,-0.011164 0.1099098,-0.011051 z"
     id="path4005"
     inkscape:connector-curvature="0" />
</svg>
