<?xml version="1.0" encoding="UTF-8" standalone="no"?>
<svg
   xmlns:dc="http://purl.org/dc/elements/1.1/"
   xmlns:cc="http://creativecommons.org/ns#"
   xmlns:rdf="http://www.w3.org/1999/02/22-rdf-syntax-ns#"
   xmlns:svg="http://www.w3.org/2000/svg"
   xmlns="http://www.w3.org/2000/svg"
   xmlns:sodipodi="http://sodipodi.sourceforge.net/DTD/sodipodi-0.dtd"
   xmlns:inkscape="http://www.inkscape.org/namespaces/inkscape"
   version="1.1"
   id="svg3473"
   viewBox="0 0 11.288889 11.288889"
   height="32pt"
   width="32pt"
   inkscape:version="0.91 r13725"
   sodipodi:docname="osb.svg">
  <defs
     id="defs3485" />
  <sodipodi:namedview
     pagecolor="#ffffff"
     bordercolor="#666666"
     borderopacity="1"
     objecttolerance="10"
     gridtolerance="10"
     guidetolerance="10"
     inkscape:pageopacity="0"
     inkscape:pageshadow="2"
     inkscape:window-width="1276"
     inkscape:window-height="755"
     id="namedview3483"
     showgrid="false"
     inkscape:zoom="3.604943"
     inkscape:cx="11.132043"
     inkscape:cy="12.482866"
     inkscape:window-x="4"
     inkscape:window-y="0"
     inkscape:window-maximized="1"
     inkscape:current-layer="svg3473"
     units="pt"
     inkscape:document-units="pt"
     inkscape:snap-page="true"
     inkscape:snap-bbox="true"
     inkscape:snap-bbox-edge-midpoints="false"
     inkscape:bbox-nodes="true" />
  <metadata
     id="metadata3478">
    <rdf:RDF>
      <cc:Work
         rdf:about="">
        <dc:format>image/svg+xml</dc:format>
        <dc:type
           rdf:resource="http://purl.org/dc/dcmitype/StillImage" />
        <dc:title></dc:title>
      </cc:Work>
    </rdf:RDF>
  </metadata>
  <path
     style="color:#000000;font-style:normal;font-variant:normal;font-weight:normal;font-stretch:normal;font-size:medium;line-height:normal;font-family:sans-serif;text-indent:0;text-align:start;text-decoration:none;text-decoration-line:none;text-decoration-style:solid;text-decoration-color:#000000;letter-spacing:normal;word-spacing:normal;text-transform:none;direction:ltr;block-progression:tb;writing-mode:lr-tb;baseline-shift:baseline;text-anchor:start;white-space:normal;clip-rule:nonzero;display:inline;overflow:visible;visibility:visible;opacity:1;isolation:auto;mix-blend-mode:normal;color-interpolation:sRGB;color-interpolation-filters:linearRGB;solid-color:#000000;solid-opacity:1;fill:#000000;fill-opacity:1;fill-rule:nonzero;stroke:none;stroke-width:1.12421441;stroke-linecap:butt;stroke-linejoin:miter;stroke-miterlimit:4;stroke-dasharray:none;stroke-dashoffset:0;stroke-opacity:1;color-rendering:auto;image-rendering:auto;shape-rendering:auto;text-rendering:auto;enable-background:accumulate"
     d="M 5.1458032,3.0725657e-4 C 3.4556563,0.01856979 2.1234331,0.8180001 1.2520863,1.8377293 0.38073962,2.8574584 -0.04027352,4.0946638 0.10059084,5.028826 l 0,0.00186 3.7097e-4,0.00148 C 0.21041405,5.6277714 0.45714812,5.9945601 0.77204926,6.2708409 1.0869503,6.547122 1.4619712,6.7380159 1.8486085,7.0161227 c 0.027031,0.01944 0.059393,0.060162 0.08792,0.084579 C 1.4543065,7.0245247 0.99000529,6.8725537 0.59583779,6.5724384 l -0.004823,-0.00334 -0.005193,-0.00334 c -0.0649935,-0.038809 -0.13417537,-0.056106 -0.19884027,-0.046731 -0.0646649,0.00938 -0.12018723,0.046176 -0.15469513,0.093113 -0.0690158,0.093876 -0.0669853,0.2315335 0.0218873,0.3246002 l 0,3.798e-4 C 0.73669318,7.4405653 1.668698,7.587149 2.5241473,7.7951685 2.8708179,8.3151967 3.1692921,8.9438399 3.2523644,9.3198613 3.1865095,9.530396 3.098708,9.7307201 3.1277181,9.9186094 c 0.015237,0.098684 0.092558,0.1971656 0.2032925,0.2288896 0.1107346,0.03172 0.2446773,0.02126 0.4314397,-0.02114 l 0.00592,-0.0015 0.00592,-0.0019 C 3.9686446,10.055063 4.0952391,9.9735234 4.1649485,9.8648097 4.2346582,9.7561022 4.2269311,9.6264176 4.1816421,9.5253713 4.0952865,9.332691 3.9054501,9.1925915 3.7728376,9.0965325 3.6667985,8.7859496 3.4394408,8.4082508 3.2293643,8.0262797 3.475081,8.1127658 3.7307976,8.1938762 3.9056455,8.3186051 4.1509985,8.49363 4.3086687,8.7070364 4.351924,9.0086122 l 0,3.8e-4 0,3.798e-4 c 0.0526,0.3508351 0.048359,0.6198213 0.00481,0.8146537 C 4.3132106,10.018857 4.2343828,10.13705 4.1341635,10.208723 3.9337261,10.352069 3.5956571,10.321504 3.201541,10.142321 2.4133097,9.7839212 1.4736038,8.8560653 1.2034891,8.1223572 L 1.197183,8.1052946 1.1853124,8.0911982 C 1.0822433,7.9673186 0.92789136,7.9303015 0.80209796,7.968034 0.73920127,7.9869001 0.67897419,8.0272953 0.64554797,8.0923095 0.61212166,8.1573228 0.61421806,8.2405259 0.6477738,8.3137796 1.4117576,9.997121 2.7332579,10.885826 4.0510661,11.200309 5.3676894,11.51451 6.6811385,11.266723 7.4640039,10.666481 7.8576081,10.391354 8.055695,9.9982608 8.1651402,9.5646949 8.2747564,9.1304521 8.3017858,8.6511536 8.3584163,8.1731807 c 0.00314,-0.026536 0.019958,-0.061296 0.025597,-0.089404 0.1585624,0.4464887 0.2466551,0.9124999 0.1791793,1.3889172 l -7.407e-4,0.00592 -3.799e-4,0.00592 c -0.00215,0.075671 0.016648,0.1443852 0.056387,0.1962439 0.039741,0.051857 0.098742,0.082561 0.1565498,0.089778 0.1156172,0.014421 0.2348355,-0.054329 0.2726641,-0.1773243 l 0,-3.8e-4 C 9.243828,8.9510083 8.9470044,8.1072575 8.71492,7.2880425 9.001105,6.7848153 9.3838897,6.2482875 9.6204613,5.7863498 9.8421837,5.7373075 10.069159,5.6820259 10.214016,5.5537508 10.291495,5.4851402 10.342708,5.3701618 10.31121,5.2580863 10.279854,5.1465166 10.19273,5.0499544 10.051159,4.9423897 9.9018434,4.8214415 9.7831018,4.7491272 9.6690588,4.7224037 9.5545871,4.6955795 9.437316,4.7334999 9.3685717,4.8103236 9.2342755,4.9604022 9.2110123,5.1910265 9.1597148,5.4457979 8.9880491,5.7418753 8.7670666,6.1593353 8.5361118,6.5338574 8.482243,6.2535849 8.4465795,5.9843157 8.4689658,5.7522205 8.4987669,5.4432474 8.6075673,5.1942794 8.855147,5.0050839 l 3.801e-4,0 0,-3.799e-4 C 9.1356003,4.7878416 9.3714623,4.6648244 9.5600021,4.6144419 9.7485415,4.5640593 9.8860372,4.5827013 9.9966354,4.6448618 10.217832,4.7691817 10.356096,5.115308 10.38801,5.579339 10.451839,6.507401 10.089557,7.8440763 9.5830021,8.4358195 l -0.011874,0.014097 -0.00667,0.017062 c -0.057786,0.1504188 -0.014563,0.3033441 0.079758,0.3947137 0.047162,0.045685 0.1116872,0.078619 0.1847439,0.07605 0.072891,-0.00257 0.1446184,-0.045385 0.1921632,-0.1101781 l 3.8e-4,-3.798e-4 C 11.117909,7.3380405 11.292009,5.6629083 10.950765,4.2824314 10.609752,2.9028868 9.7608961,1.8074772 8.7742753,1.4764031 7.7754347,1.0997969 6.7080482,1.6425947 6.1622652,1.9200848 6.0890902,1.9572888 5.9450341,1.9783635 5.8306165,2.0072633 6.1406856,1.5809242 6.5205759,1.2148495 7.008822,1.0000756 l 0.00556,-0.002596 0.00519,-0.002969 c 0.065438,-0.0380537 0.113756,-0.0898736 0.1368827,-0.15098144 0.023127,-0.0611075 0.018026,-0.1273583 -0.00631,-0.18029197 C 7.1014997,0.55736483 6.9800849,0.49181329 6.8556113,0.52448951 l 0,3.7995e-4 C 6.1677178,0.70678844 5.5773611,1.4776979 4.9688498,2.1345155 4.283978,2.1697965 3.5374525,2.1234535 3.1993158,2.0551275 3.0570248,1.8896811 2.9336059,1.712508 2.7604565,1.6388975 c -0.08103,-0.034448 -0.1831305,-0.00912 -0.2656158,0.046 0.074879,-0.07604 0.129249,-0.1531 0.2266636,-0.2266634 C 3.4673395,0.89501026 4.7845136,0.47846594 5.5527587,0.59683836 l 0.018178,0.002596 0.017806,-0.003341 C 5.747028,0.5659284 5.8542811,0.44878328 5.8821818,0.32046386 5.8961331,0.2563042 5.8898612,0.1841937 5.8491651,0.12347811 5.8084641,0.06276252 5.7343649,0.02424563 5.6540342,0.01812214 5.4813612,0.00436491 5.3118264,-0.001478 5.1458032,3.1545435e-4 Z M 5.1480265,0.2136159 c 0.1597331,-0.001727 0.3230586,0.004136 0.4896824,0.0174364 l 3.798e-4,0 c 0.031127,0.002372 0.031917,0.008384 0.033759,0.0111291 0.00185,0.002745 0.00581,0.0127637 0.00148,0.0326458 -0.00861,0.0395158 -0.051426,0.0965636 -0.123533,0.11092089 C 4.676446,0.26641455 3.3823251,0.69134519 2.5927773,1.2875792 2.193136,1.5893709 1.9111743,1.9429254 1.9313351,2.3237016 1.9414209,2.51409 2.033349,2.7006408 2.206596,2.8649491 2.379682,3.0291053 2.6333149,3.1758488 2.9822973,3.3060342 3.3232657,3.4356116 3.6588459,3.3907644 3.9672267,3.2440826 4.2756073,3.0973988 4.5634466,2.8532249 4.8430903,2.5744785 L 5.0167051,2.4008637 4.7714929,2.3919615 C 4.1519951,2.3694283 3.4598553,2.4357857 3.1136215,2.4060583 l -0.025598,-0.00222 -0.024114,0.010024 C 2.9189054,2.4733359 2.6932563,2.5471949 2.5679217,2.5303329 2.5052546,2.5219115 2.4759103,2.5062003 2.452179,2.4565094 2.4288216,2.4076034 2.4179409,2.3029579 2.454775,2.1322802 2.5103435,1.9742311 2.5665119,1.8817939 2.6024217,1.8492289 c 0.036712,-0.033293 0.037039,-0.029678 0.074565,-0.013726 0.075053,0.031907 0.2264537,0.2090769 0.388036,0.391375 l 0.023371,0.026339 0.03413,0.00704 c 0.3792659,0.081906 1.1711048,0.1288089 1.8993741,0.08755 l 0.042661,-0.0026 0.029307,-0.031162 C 5.722578,1.6404278 6.3344324,0.88347401 6.9097768,0.73111745 c 0.021791,-0.005714 0.040749,0.008918 0.046371,0.0211453 0.00281,0.006111 0.00344,0.008459 7.409e-4,0.0155795 -0.00268,0.007117 -0.011564,0.022914 -0.044888,0.0422906 l 0.010769,-0.005565 C 6.2935316,1.0813616 5.8012688,1.55998 5.4544515,2.1363605 L 5.3390792,2.3288946 5.5609202,2.297362 C 5.8384392,2.2581033 6.0805354,2.201173 6.2590886,2.1103925 6.8032429,1.8337306 7.8133464,1.34118 8.7000811,1.6763558 l 0.00222,7.408e-4 0.00186,7.407e-4 c 0.8857673,0.2961078 1.7116224,1.330481 2.0392284,2.655785 0.327605,1.3253038 0.163798,2.9309617 -0.8940416,4.3674474 l -3.798e-4,0 0,3.797e-4 c -0.018418,0.025199 -0.024159,0.022514 -0.027451,0.02263 -0.00329,1.16e-4 -0.01394,-0.00179 -0.028564,-0.015951 C 9.7639148,8.6799911 9.7386829,8.6133225 9.7643964,8.5445294 10.325541,7.8664529 10.668466,6.5463679 10.600937,5.5645153 10.566754,5.0674957 10.428242,4.6428083 10.101238,4.4590205 9.9377364,4.3671262 9.7331788,4.3471465 9.5047161,4.4081972 9.2764668,4.4691908 9.020079,4.6077109 8.7256761,4.8355564 8.4284053,5.0627246 8.2901451,5.3815605 8.2563972,5.7314526 8.2226492,6.0813445 8.2857405,6.4662682 8.3810436,6.8618025 L 8.4363179,7.0910632 8.5720935,6.8981579 C 8.8891594,6.447388 9.1518843,5.8826671 9.3529888,5.5381762 l 0.00891,-0.014838 0.00334,-0.017436 c 0.055049,-0.2672682 0.1087497,-0.493067 0.1624857,-0.5531187 0.026869,-0.030025 0.034393,-0.036301 0.092742,-0.022628 0.05835,0.013674 0.1601981,0.067109 0.2978902,0.1788081 l 0.00112,0.00112 0.00148,0.00112 c 0.1244099,0.094282 0.1748369,0.1691561 0.1847439,0.2044053 0.0099,0.035249 0.0066,0.043206 -0.03302,0.078275 -0.079203,0.070137 -0.3148097,0.1458957 -0.5434735,0.195873 l -0.050081,0.010769 -0.02263,0.046001 C 9.2316892,6.0990031 8.8125955,6.6738484 8.5068077,7.2194346 l -0.021515,0.038581 0.011874,0.042661 c 0.2359619,0.8412465 0.5106363,1.6916667 0.3464873,2.2295387 -0.00662,0.021549 -0.028958,0.029857 -0.042291,0.028193 -0.00666,-8.357e-4 -0.00873,-0.00138 -0.013354,-0.00743 -0.00462,-0.00604 -0.013706,-0.021935 -0.012616,-0.060467 L 8.7746531,9.502747 C 8.8646438,8.8673088 8.7416775,8.2404388 8.4752724,7.6731109 L 8.3725134,7.4542377 8.2801414,7.6775626 C 8.2131016,7.8395437 8.1645066,7.9967508 8.1465914,8.1479542 8.0889826,8.6341859 8.0605535,9.1070416 7.9581381,9.5127585 7.8557226,9.9184753 7.6852428,10.252569 7.3404705,10.492865 l -0.00222,0.0011 -0.00186,0.0019 C 6.6241459,11.043259 5.3617101,11.293563 4.1004055,10.992564 2.8391008,10.691565 1.5796496,9.8503145 0.84216286,8.2251164 c -0.0129972,-0.028374 -0.008185,-0.032298 -0.006682,-0.035242 0.001515,-0.00296 0.00831,-0.011576 0.0278228,-0.017436 0.0386687,-0.011601 0.10907763,-7.978e-4 0.15655001,0.054904 0.3157471,0.8172052 1.250679,1.7261972 2.0933919,2.1093438 0.4266435,0.193977 0.8463964,0.259051 1.1448181,0.04563 0.1492111,-0.106707 0.2553481,-0.280052 0.3071645,-0.5119408 0.051795,-0.2317919 0.053267,-0.5242762 -0.00186,-0.892186 l 0,-3.8e-4 C 4.511357,8.6159359 4.3086847,8.3438401 4.0299145,8.1449771 3.7510498,7.9460466 3.3967069,7.8128186 3.0160493,7.7031501 l -0.232228,-0.067147 0.1068394,0.2166473 c 0.2475714,0.5025658 0.594545,1.0214707 0.6963135,1.3451427 l 0.010769,0.033759 0.028564,0.020774 c 0.1269781,0.09188 0.3088673,0.2448254 0.3605845,0.3602133 0.025859,0.057694 0.02787,0.090905 -0.00186,0.1372599 C 3.955816,9.7953584 3.8726334,9.8596364 3.708655,9.9182194 3.5446488,9.9544511 3.4362919,9.955333 3.3896196,9.9419681 3.3419719,9.9283176 3.3450163,9.9262433 3.3387959,9.88595 3.3263502,9.8053758 3.3970163,9.583293 3.4667812,9.349896 l 0.00779,-0.025967 -0.00556,-0.026338 C 3.3775783,8.8577671 3.0560527,8.1951066 2.6821814,7.6423203 l -0.023,-0.034129 -0.040065,-0.00965 C 1.7408584,7.381991 0.8123709,7.2104221 0.40849722,6.789457 c -0.0155649,-0.016299 -0.0120507,-0.039981 -0.004082,-0.050824 0.003986,-0.00542 0.00584,-0.00707 0.0133548,-0.00816 0.007515,-0.00108 0.0255219,-0.00122 0.0586135,0.018549 l -0.0100162,-0.00667 C 0.99132737,7.1420417 1.6178811,7.3421397 2.2618709,7.3789305 L 2.5126476,7.3930277 2.3490491,7.2027191 C 2.2240492,7.0573215 2.0985113,6.9329735 1.9732549,6.8428767 1.5716712,6.5540189 1.2001794,6.3624766 0.91264747,6.1102081 0.62558978,5.8583558 0.41409525,5.5503751 0.31167366,4.9958099 0.18506694,4.1531348 0.57706921,2.9561603 1.414201,1.9764727 2.2516705,0.99638981 3.523861,0.23116535 5.148029,0.21361614 Z M 2.4225013,1.7575994 c -0.064163,0.0765 -0.1214314,0.1623356 -0.1728725,0.3116162 l -0.00222,0.00556 -0.00112,0.00592 C 2.2016058,2.281663 2.2039831,2.431962 2.2596398,2.5484999 2.3152953,2.6650375 2.4296053,2.7273822 2.5393523,2.7421469 2.7505067,2.7705547 2.9724204,2.6807642 3.1240035,2.6186138 3.44538,2.6427998 3.9626038,2.6125276 4.4517104,2.60823 4.2595021,2.7781215 4.0669151,2.9601712 3.8755883,3.0511771 3.6043818,3.1801783 3.3419712,3.2143818 3.0579671,3.1064519 L 3.0575874,3.106072 C 2.725865,2.9824173 2.4967572,2.8461272 2.3534834,2.7102455 2.2102097,2.5743637 2.1515899,2.4437102 2.1446265,2.3121931 2.1355019,2.1398542 2.2542058,1.9488993 2.4224842,1.7575907 Z m 2.8661259,0.6811037 -0.035613,0.076791 C 4.8886723,3.3003801 4.761588,4.2130041 4.8913169,5.0581328 l 0.019661,0.1268719 0.1209358,-0.042291 C 5.3723699,5.0242885 5.6654781,4.8339258 5.7883258,4.5020464 l 0,-3.797e-4 C 5.8596101,4.3076064 5.9617592,3.9592936 6.0216668,3.6191254 6.0516206,3.4490412 6.070941,3.2818689 6.0687802,3.1342657 6.0666187,2.9866626 6.0492876,2.8552673 5.967876,2.7558747 5.8337058,2.5920806 5.6185493,2.507347 5.3713537,2.4561386 L 5.288627,2.4387022 Z m 0.1283564,0.2685834 c 0.1639279,0.04703 0.3178893,0.1010798 0.3858104,0.1840018 0.023374,0.028536 0.050834,0.1199645 0.052677,0.2459543 0.00185,0.1259893 -0.01566,0.2830537 -0.044145,0.4447945 C 5.7543571,3.905519 5.6533542,4.2499389 5.5880011,4.4278521 5.5106462,4.6368306 5.3303268,4.7666751 5.1020285,4.8696793 5.0197237,4.1457614 5.1252038,3.3823839 5.4169834,2.7072865 Z m -0.4896825,2.564155 0.036725,0.1391144 c 0.06929,0.2616346 0.1767129,0.5225591 0.3257131,0.7797819 l 0.068259,0.1183399 0.098307,-0.094969 C 5.6447225,6.031018 5.8155391,5.8174535 5.9641662,5.5711864 L 6.034651,5.4543308 5.9044402,5.4142648 C 5.6458822,5.3341794 5.3677421,5.2862937 5.0708668,5.2762639 L 4.9273011,5.271457 Z M 6.1184905,5.486234 6.0958622,5.6201545 c -0.059564,0.3494128 -0.033477,0.6920774 0.192905,0.9574776 l 0,3.799e-4 C 6.4233216,6.7349657 6.677403,6.9940065 6.945016,7.2123734 7.0788221,7.3215566 7.2154262,7.4204215 7.3452938,7.4906018 7.4751623,7.5607823 7.5979372,7.6095777 7.7244269,7.5870549 7.8961926,7.5564697 8.0517927,7.4634014 8.1937058,7.3377619 L 8.2623349,7.2769232 8.2122539,7.199761 C 7.7398029,6.472153 7.0310879,5.8789133 6.2431368,5.5400247 L 6.1184905,5.4862345 Z M 5.238917,5.5188797 c 0.1525127,0.014108 0.2993961,0.037497 0.4396012,0.072341 C 5.594902,5.7139516 5.5053556,5.8267325 5.4103058,5.9299158 5.3408188,5.7932272 5.2843172,5.6560856 5.238917,5.5188794 Z M 6.3010085,5.8241893 C 6.9542927,6.1380809 7.541388,6.6286684 7.9570253,7.2298 7.8663214,7.2945325 7.7751374,7.3610029 7.686958,7.3767048 7.6506436,7.3831701 7.55779,7.3624138 7.4469394,7.3025104 7.3360888,7.2426069 7.2072912,7.1507384 7.0800486,7.0469111 6.8255633,6.8392562 6.5742441,6.5827882 6.4508809,6.4388888 6.3113386,6.275055 6.2843402,6.062763 6.3010085,5.8241889 Z M 4.4261186,5.960336 c -0.059136,-1.884e-4 -0.118838,0.00554 -0.1791796,0.017807 l -3.798e-4,0 C 4.0440736,6.0198379 3.6943368,6.1165117 3.3736634,6.2448708 3.2133267,6.30905 3.0609641,6.3807802 2.9366589,6.4604051 2.8123538,6.5400299 2.7100085,6.6241089 2.6684467,6.745682 c -0.058117,0.1700035 -0.044775,0.3568619 0.00371,0.547925 l 0.021888,0.086807 0.089404,-0.00667 C 3.6490108,7.3097773 4.5104479,6.9748848 5.18623,6.4477913 L 5.2919565,6.3650646 5.1873417,6.2808535 C 4.9568503,6.0946562 4.7051491,5.9612221 4.4261094,5.9603347 Z m -3.8e-4,0.2133085 C 4.590079,6.1741575 4.7521611,6.2504664 4.91505,6.3583882 4.3242309,6.7821117 3.6076061,7.0612008 2.8769325,7.1359441 2.8590994,7.0185065 2.8408975,6.9005578 2.8702545,6.814683 c 0.011936,-0.0349 0.075301,-0.106391 0.181405,-0.1743567 0.1061028,-0.067966 0.248919,-0.1363256 0.4013911,-0.197357 0.3048206,-0.122014 0.6504691,-0.2173402 0.8361697,-0.2555994 0.046343,-0.00943 0.091898,-0.013867 0.1365176,-0.013726 z"
     id="path4005"
     inkscape:connector-curvature="0" />
</svg>
