<?xml version="1.0" encoding="UTF-8" standalone="no"?>
<!-- Created with Inkscape (http://www.inkscape.org/) -->

<svg
   xmlns:dc="http://purl.org/dc/elements/1.1/"
   xmlns:cc="http://creativecommons.org/ns#"
   xmlns:rdf="http://www.w3.org/1999/02/22-rdf-syntax-ns#"
   xmlns:svg="http://www.w3.org/2000/svg"
   xmlns="http://www.w3.org/2000/svg"
   xmlns:sodipodi="http://sodipodi.sourceforge.net/DTD/sodipodi-0.dtd"
   xmlns:inkscape="http://www.inkscape.org/namespaces/inkscape"
   id="svg4578"
   version="1.1"
   inkscape:version="0.91 r13725"
   width="250"
   height="89"
   viewBox="0 0 250 89"
   sodipodi:docname="pubmed.svg">
  <metadata
     id="metadata4584">
    <rdf:RDF>
      <cc:Work
         rdf:about="">
        <dc:format>image/svg+xml</dc:format>
        <dc:type
           rdf:resource="http://purl.org/dc/dcmitype/StillImage" />
        <dc:title></dc:title>
      </cc:Work>
    </rdf:RDF>
  </metadata>
  <defs
     id="defs4582" />
  <sodipodi:namedview
     pagecolor="#ffffff"
     bordercolor="#666666"
     borderopacity="1"
     objecttolerance="10"
     gridtolerance="10"
     guidetolerance="10"
     inkscape:pageopacity="0"
     inkscape:pageshadow="2"
     inkscape:window-width="640"
     inkscape:window-height="480"
     id="namedview4580"
     showgrid="false"
     inkscape:zoom="1.24"
     inkscape:cx="125"
     inkscape:cy="44.5"
     inkscape:window-x="261"
     inkscape:window-y="137"
     inkscape:window-maximized="0"
     inkscape:current-layer="svg4578" />
  <path
     style="fill:#000000"
     d="m 154.33871,83.373365 c -8.55897,-6.645395 -18.65679,-11.848921 -25.91957,-13.356669 -7.75331,-1.60958 -12.91033,-0.03798 -18.31361,5.581076 -4.77933,4.970199 -6.26682,5.456812 -6.26682,2.050111 C 103.83871,71.269169 94.404959,64 86.126819,64 l -4.28811,0 0,-30.127808 0,-30.1278085 3.91258,0.625647 c 2.15192,0.344105 4.62692,0.899764 5.5,1.234797 1.23999,0.475827 1.58742,-0.07087 1.58742,-2.497839 0,-1.958687 0.50454,-3.10698898387096 1.36514,-3.10698898387096 2.34051,0 6.595841,4.00746498387096 8.860631,8.34452698387096 C 105.12812,12.296366 105.23314,13.749599 105.2076,38 l -0.0269,25.5 0.57898,-20.197147 0.57903,-20.197147 3.5,-3.640482 C 115.21639,13.871692 119.67071,12 127.6047,12 c 8.57937,0 16.60329,2.629051 26.9405,8.827109 l 7.79351,4.672891 0.26405,31.75 c 0.14522,17.4625 -0.0798,31.706875 -0.5,31.654165 -0.42023,-0.0527 -3.91405,-2.54157 -7.76405,-5.5308 z M 121.78969,56 c 0.70092,-5.5 1.62311,-10 2.04931,-10 0.42621,0 2.54104,4.3875 4.69962,9.75 3.40127,8.449662 4.23776,9.75 6.27208,9.75 2.02227,0 2.89248,-1.315777 6.28302,-9.5 2.1646,-5.225 4.11774,-9.6875 4.34031,-9.916667 0.91882,-0.946039 1.39984,0.994143 2.53344,10.218463 L 149.15931,66 l 4.8397,0 c 2.66184,0 4.84461,-0.3375 4.85061,-0.75 0.006,-0.4125 -1.19964,-8.9625 -2.6792,-19 l -2.6901,-18.25 -5.15202,0 -5.15202,0 -3.76003,9.5 c -2.06801,5.225 -4.1022,9.5 -4.52041,9.5 -0.41822,0 -2.29504,-4.1625 -4.17073,-9.25 l -3.41034,-9.25 -5.14778,-0.29913 c -4.92912,-0.286423 -5.17206,-0.18023 -5.7191,2.5 -0.9809,4.805882 -5.60918,33.012944 -5.60918,34.185157 0,0.665137 1.94942,1.113973 4.8383,1.113973 l 4.83829,0 1.27439,-10 z m -19.34133,4.212046 c -0.8458,-1.635598 -3.016482,-4.217259 -4.823731,-5.737026 L 94.338709,51.711809 93.809779,29.605904 93.280849,7.4999995 93.098299,30 l -0.18255,22.5 3.21148,2.016547 c 1.76631,1.1091 4.100721,3.66986 5.187571,5.690577 1.08685,2.020718 2.13253,3.51759 2.32374,3.326384 0.1912,-0.191206 -0.34438,-1.685864 -1.19018,-3.321462 z"
     id="path4590"
     inkscape:connector-curvature="0" />
</svg>
