<?xml version="1.0" encoding="UTF-8" standalone="no"?>
<!-- Created with Inkscape (http://www.inkscape.org/) -->

<svg
   xmlns:dc="http://purl.org/dc/elements/1.1/"
   xmlns:cc="http://creativecommons.org/ns#"
   xmlns:rdf="http://www.w3.org/1999/02/22-rdf-syntax-ns#"
   xmlns:svg="http://www.w3.org/2000/svg"
   xmlns="http://www.w3.org/2000/svg"
   xmlns:sodipodi="http://sodipodi.sourceforge.net/DTD/sodipodi-0.dtd"
   xmlns:inkscape="http://www.inkscape.org/namespaces/inkscape"
   id="svg3390"
   version="1.1"
   inkscape:version="0.91 r13725"
   width="201.71028"
   height="153.91878"
   viewBox="0 0 201.71028 153.91878"
   sodipodi:docname="query.svg">
  <metadata
     id="metadata3396">
    <rdf:RDF>
      <cc:Work
         rdf:about="">
        <dc:format>image/svg+xml</dc:format>
        <dc:type
           rdf:resource="http://purl.org/dc/dcmitype/StillImage" />
        <dc:title></dc:title>
      </cc:Work>
    </rdf:RDF>
  </metadata>
  <defs
     id="defs3394" />
  <sodipodi:namedview
     pagecolor="#ffffff"
     bordercolor="#666666"
     borderopacity="1"
     objecttolerance="10"
     gridtolerance="10"
     guidetolerance="10"
     inkscape:pageopacity="0"
     inkscape:pageshadow="2"
     inkscape:window-width="1336"
     inkscape:window-height="750"
     id="namedview3392"
     showgrid="false"
     inkscape:zoom="1.3684211"
     inkscape:cx="177.98094"
     inkscape:cy="36.242085"
     inkscape:window-x="0"
     inkscape:window-y="0"
     inkscape:window-maximized="0"
     inkscape:current-layer="svg3390"
     fit-margin-top="0"
     fit-margin-left="0"
     fit-margin-right="0"
     fit-margin-bottom="0" />
  <path
     style="fill:#000000"
     d="m 184.20866,153.37827 c -2.63527,-0.70183 -6.83193,-4.42916 -13.1231,-11.6555 -7.62385,-8.75711 -9.68849,-10.46151 -11.75082,-9.70055 -1.37603,0.50773 -7.0019,0.92315 -12.5019,0.92315 -12.57763,0 -21.52652,-3.96448 -29.85266,-13.22516 -17.4587,-19.41827 -11.09405,-50.327511 12.77699,-62.050113 6.05227,-2.972153 8.61244,-3.474727 17.70067,-3.474727 8.85259,0 11.78989,0.546283 17.6081,3.274769 8.5154,3.993347 15.02188,10.29778 19.56198,18.95451 2.94589,5.61699 3.4202,7.99328 3.42239,17.14572 0.003,8.524161 -0.53672,11.638371 -2.72475,15.750081 l -2.7273,5.12509 9.18405,10.31806 c 9.783,10.99096 11.37828,14.70617 8.8805,20.68145 -2.7816,6.65425 -9.35545,9.82377 -16.45415,7.93322 z m -20.26709,-36.71095 c 6.51634,-4.51736 12.26627,-14.9419 12.26627,-22.238571 0,-16.64575 -11.69496,-28.39203 -28.20715,-28.33092 -9.43993,0.0349 -16.23221,3.08481 -22.07687,9.91299 -8.98848,10.501 -8.98848,24.618111 0,35.119111 6.51862,7.61554 12.61235,10.10172 23.64275,9.64599 7.59582,-0.31383 9.81662,-0.94857 14.375,-4.1086 z M 11.145866,150.7317 c -14.8357698,-7.72243 -14.8685098,-31.58394 -0.0539,-39.29413 5.42494,-2.82339 6.15076,-2.8672 47.507314,-2.8672 l 41.99821,0 2.8694,6.25469 c 7.89001,17.19861 29.53417,29.01676 49.12809,26.82495 6.95577,-0.77809 7.04351,-0.74629 10.92176,3.95871 2.69965,3.27514 3.50851,5.14445 2.6135,6.03988 -0.85829,0.85869 -26.31698,1.41199 -75.35875,1.63779 l -74.062574,0.34102 -5.56302,-2.89571 z m 21.52604,-14.23006 c 4.78677,-4.33197 1.38583,-12.95037 -5.0953,-12.91213 -3.96357,0.0234 -5.55181,1.01521 -7.47562,4.66836 -1.54198,2.92809 -0.20326,7.31282 2.85648,9.35587 2.39478,1.59903 7.34485,1.03235 9.71444,-1.1121 z M 16.361336,98.567779 C 7.2739062,96.422239 1.3608362,89.445799 0.40915623,79.746829 c -0.89538,-9.1252 1.46979997,-15.58887 7.47585997,-20.430394 l 4.8021798,-3.871065 52.690324,-0.352586 52.69031,-0.352587 -5.86811,5.977587 c -8.09251,8.243485 -12.65725,18.572225 -13.27609,30.040085 l -0.48904,9.0625 -38.92587,-0.12795 c -21.409244,-0.0704 -40.825554,-0.57646 -43.147384,-1.12464 z m 15.81837,-15.69329 c 5.72389,-4.00916 2.4898,-13.47078 -4.60446,-13.47078 -7.46858,0 -10.92685,7.22086 -5.87686,12.27085 3.62192,3.62192 6.54558,3.95663 10.48132,1.19993 z M 11.486146,42.74422 C 2.6128762,38.370656 -1.2202338,29.533425 0.57202623,17.581745 1.6679362,10.273725 8.2750162,3.2064548 15.941106,1.1421948 19.658496,0.14120483 42.2965,-0.17005517 92.86353,0.08456483 l 71.65478,0.3608 5.18491,3.43216997 c 7.45325,4.93371 9.35786,9.3589502 8.79819,20.4421002 -0.40867,8.092564 -0.88515,9.581758 -4.18983,13.094806 -7.15247,7.60344 -4.90087,7.408591 -85.25109,7.377466 C 23.976106,44.766697 15.114876,44.532791 11.486146,42.74422 Z m 18.86637,-13.110985 c 3.60136,-1.89561 4.56311,-3.48865 4.58618,-7.59655 0.0224,-3.98097 -4.5898,-7.6309 -8.84568,-7.00022 -1.51765,0.2249 -3.82801,1.84595 -5.13412,3.60235 -3.60215,4.84397 -0.47924,10.99766 6.26862,12.35232 0.21707,0.0436 1.62332,-0.56747 3.125,-1.3579 z"
     id="path3402"
     inkscape:connector-curvature="0" />
</svg>
