<?xml version="1.0" encoding="UTF-8" standalone="no"?>
<!-- Created with Inkscape (http://www.inkscape.org/) -->

<svg
   xmlns:dc="http://purl.org/dc/elements/1.1/"
   xmlns:cc="http://creativecommons.org/ns#"
   xmlns:rdf="http://www.w3.org/1999/02/22-rdf-syntax-ns#"
   xmlns:svg="http://www.w3.org/2000/svg"
   xmlns="http://www.w3.org/2000/svg"
   xmlns:sodipodi="http://sodipodi.sourceforge.net/DTD/sodipodi-0.dtd"
   xmlns:inkscape="http://www.inkscape.org/namespaces/inkscape"
   id="svg5591"
   version="1.1"
   inkscape:version="0.91 r13725"
   width="442.90457"
   height="287.37793"
   viewBox="0 0 442.90457 287.37793"
   sodipodi:docname="shapeshow.svg"
   inkscape:export-filename="/Users/matteocantarelli/Documents/Development/org.geppetto.frontend.icons/svg/shapeshow.png"
   inkscape:export-xdpi="179.38184"
   inkscape:export-ydpi="179.38184">
  <metadata
     id="metadata5597">
    <rdf:RDF>
      <cc:Work
         rdf:about="">
        <dc:format>image/svg+xml</dc:format>
        <dc:type
           rdf:resource="http://purl.org/dc/dcmitype/StillImage" />
        <dc:title></dc:title>
      </cc:Work>
    </rdf:RDF>
  </metadata>
  <defs
     id="defs5595" />
  <sodipodi:namedview
     pagecolor="#ffffff"
     bordercolor="#666666"
     borderopacity="1"
     objecttolerance="10"
     gridtolerance="10"
     guidetolerance="10"
     inkscape:pageopacity="0"
     inkscape:pageshadow="2"
     inkscape:window-width="942"
     inkscape:window-height="656"
     id="namedview5593"
     showgrid="false"
     inkscape:zoom="0.472"
     inkscape:cx="224.17931"
     inkscape:cy="58.396648"
     inkscape:window-x="414"
     inkscape:window-y="36"
     inkscape:window-maximized="0"
     inkscape:current-layer="svg5591"
     fit-margin-top="0"
     fit-margin-left="0"
     fit-margin-right="0"
     fit-margin-bottom="0" />
  <path
     style="fill:#000000"
     d="m 342.56727,286.13328 c -2.50867,-0.67649 -5.88367,-2.17305 -7.5,-3.32568 -3.70158,-2.63966 -13.73409,-13.12177 -15.22307,-15.90527 -0.63451,-1.18616 -1.61393,-12.68887 -2.2564,-26.5 -0.96744,-20.79734 -1.42518,-24.97699 -3.09714,-28.28055 -1.07906,-2.13206 -2.3907,-6.13742 -2.91476,-8.90081 -0.52407,-2.76339 -1.45673,-5.63147 -2.07258,-6.37353 -1.5727,-1.89499 -7.94594,-1.64024 -10.58346,0.42305 -2.12982,1.66611 -2.17539,2.06674 -1.2771,11.22776 0.51234,5.225 0.94372,15.3627 0.95862,22.52821 0.0267,12.8455 -0.0218,13.13019 -3.45754,20.29944 -3.13239,6.53619 -3.96636,7.48936 -8.25,9.42911 -4.06241,1.83957 -6.60928,2.15895 -17.26536,2.1651 -15.34441,0.009 -21.60592,-1.33321 -30,-6.43005 -3.575,-2.17072 -9.65783,-5.51734 -13.5174,-7.43694 -5.81467,-2.89199 -9.2185,-5.76669 -19.85972,-16.77253 -24.5862,-25.42863 -23.31511,-23.8924 -25.09937,-30.33485 -0.90596,-3.27112 -2.15027,-6.96908 -2.76514,-8.2177 -0.83583,-1.69728 -0.82022,-2.56794 0.0618,-3.45 0.64888,-0.64888 1.17979,-1.81349 1.17979,-2.58801 0,-0.77452 1.0125,-3.62012 2.25,-6.32355 1.6838,-3.67842 3.05657,-5.20752 5.45518,-6.07646 2.11938,-0.76778 3.59118,-2.19955 4.34463,-4.22645 3.04006,-8.17825 4.52409,-10.83779 7.05193,-12.63776 1.50963,-1.07495 4.18646,-4.98591 5.94851,-8.69101 1.76205,-3.7051 4.30153,-9.05233 5.64329,-11.88273 2.51684,-5.30918 2.91779,-12.85382 0.68309,-12.85382 -0.61785,0 -2.94132,2.29989 -5.16327,5.11086 -2.22194,2.81097 -6.44143,6.62198 -9.37663,8.46891 -4.76453,2.998 -6.24943,3.3979 -13.84912,3.72977 -8.14337,0.3556 -8.8153,0.21628 -15.5,-3.21403 -3.84318,-1.97216 -7.70537,-3.58794 -8.58262,-3.59063 -0.87726,-0.003 -2.38642,-0.87937 -3.35369,-1.9482 -0.96728,-1.06883 -3.0728,-2.23195 -4.67895,-2.58472 -1.60614,-0.35276 -4.14698,-1.64704 -5.6463,-2.87617 -1.49933,-1.22913 -5.72417,-3.89101 -9.38853,-5.91529 -6.47911,-3.57922 -9.83748,-4.55031 -9.83748,-2.84456 0,0.45977 2.925,5.24151 6.5,10.62609 3.575,5.38458 6.5,10.28009 6.5,10.87892 0,0.59882 1.83396,4.92958 4.07547,9.62391 2.2415,4.69433 4.69436,9.88514 5.45078,11.53514 0.92067,2.00826 1.54887,8.78515 1.90031,20.5 0.28874,9.625 0.94219,19.20388 1.45211,21.2864 0.92225,3.76647 9.96525,18.23021 15.31686,24.4984 1.54246,1.80663 2.80447,3.76066 2.80447,4.34227 0,0.58161 0.9,2.20164 2,3.60006 5.4,6.86499 -0.10899,18.59269 -12.84641,27.34781 -5.66525,3.89404 -12.68173,5.33645 -22.10809,4.54487 -9.77753,-0.82107 -14.30368,-2.12473 -17.9088,-5.15824 -1.60898,-1.35386 -3.43707,-2.46157 -4.06244,-2.46157 -0.62537,0 -1.38832,-0.65485 -1.69545,-1.45523 -0.30713,-0.80037 -2.9073,-2.78085 -5.77815,-4.40105 -9.804538,-5.53334 -12.758498,-10.60129 -14.072668,-24.14372 -0.346921,-3.575 -1.14372,-8.64142 -1.770665,-11.25872 -0.87084,-3.63548 -0.858711,-5.0399 0.05139,-5.95 0.655206,-0.6552 1.19568,-1.88878 1.201053,-2.74128 0.0054,-0.8525 1.075626,-3.83902 2.37834,-6.63671 2.073568,-4.45316 2.213408,-5.45572 1.122776,-8.04957 -1.439768,-3.4242 -6.638061,-8.09143 -11.090491,-9.95748 -1.693784,-0.70988 -3.651501,-1.97978 -4.350483,-2.822 -2.008246,-2.41979 -7.93204,-3.15068 -9.865493,-1.21723 -1.399986,1.39999 -1.456583,2.2411 -0.413275,6.14191 0.664871,2.48588 1.208857,6.31943 1.208857,8.519 0,2.19957 0.540827,4.86522 1.201837,5.92366 1.005712,1.6104 0.676686,2.96952 -2.016242,8.32858 -3.486459,6.93822 -8.540008,11.37807 -15.685595,13.78076 -5.964996,2.00571 -18.109774,1.66805 -23.25667,-0.64661 -4.406928,-1.98188 -22.2433349,-18.80284 -22.2433349,-20.97699 0,-0.67075 -1.7522084,-3.33997 -3.8937965,-5.93158 -3.3521038,-4.05651 -4.0655418,-5.81607 -5.12833782,-12.64803 -1.5587416,-10.02004 -0.1490795,-17.60724 4.65745312,-25.06775 1.8505747,-2.87238 3.3646812,-5.98278 3.3646812,-6.912 0,-1.71157 8.2929019,-7.87796 10.5947189,-7.87796 0.688507,0 2.680279,-1.20196 4.426161,-2.67102 2.691017,-2.26434 4.355012,-2.73937 10.928877,-3.11993 5.774097,-0.33426 8.366939,-0.0666 10.152395,1.04785 11.556506,7.21365 19.890142,12.88555 20.574815,14.0033 0.452668,0.739 3.03333,2.67027 5.734803,4.29172 6.919227,4.15297 13.564309,11.30216 13.577565,14.60757 l 0.01067,2.65949 4.796128,-1.2652 c 6.513858,-1.71832 8.672991,-2.99949 11.320081,-6.71699 1.59673,-2.24239 2.18609,-4.34037 2.01827,-7.18455 -0.31524,-5.34267 -2.35752,-8.5335 -7.777978,-12.15224 -5.029886,-3.35799 -12.964256,-14.28877 -13.950199,-19.21849 -0.472881,-2.3644 -2.52e-4,-4.31395 1.847157,-7.61932 1.36545,-2.44305 2.78466,-6.05185 3.153801,-8.01954 0.981158,-5.23002 10.515865,-16.738688 16.620229,-20.061101 4.95808,-2.69852 5.38099,-3.29713 5.00312,-7.08155 -0.26702,-2.67428 -5.73099,-11.17105 -7.659619,-11.91113 -3.832003,-1.47048 -5.276036,-0.43668 -10.274699,7.35579 -2.80296,4.36957 -5.096291,8.37819 -5.096291,8.90804 0,0.52985 -2.323881,3.89473 -5.16418,7.477493 -3.538236,4.463158 -6.4506,7.042988 -9.25,8.193838 -2.247201,0.92383 -4.76082,2.08494 -5.58582,2.58022 -4.220625,2.53385 -7.228882,3.18848 -15,3.26419 -7.754405,0.0755 -12.204634,-0.97963 -14,-3.31948 -0.275,-0.3584 -2.587316,-1.43409 -5.138479,-2.39042 -3.715737,-1.39288 -5.456394,-2.93063 -8.75,-7.730048 -2.261337,-3.295213 -4.111521,-6.787153 -4.111521,-7.759893 0,-0.97273 -0.506789,-2.27539 -1.126198,-2.8948 -0.834931,-0.83493 -0.548741,-2.6324 1.106566,-6.95 3.775777,-9.8485 5.328634,-12.46216 8.990364,-15.13196 1.941097,-1.41526 5.103785,-3.7249 7.028195,-5.13253 3.46258,-2.53273 7.216026,-4.20124 14.001073,-6.22389 1.925,-0.57385 3.989297,-1.44092 4.587328,-1.92683 0.59803,-0.48591 4.635962,-1.37704 8.973183,-1.98029 9.131801,-1.27012 10.82537,-2.00754 13.121632,-5.71349 2.853944,-4.60599 6.604012,-8.21481 8.536333,-8.21481 2.235651,0 3.565585,-2.89739 1.823996,-3.97375 -0.903785,-0.55857 -0.964832,-1.2907 -0.220888,-2.64908 1.961474,-3.58148 10.694005,-11.13475 13.678416,-11.83126 1.65,-0.38508 4.504449,-1.41162 6.343219,-2.28121 1.97205,-0.93261 3.61259,-1.19741 4,-0.64564 0.36123,0.51448 3.35678,1.76111 6.65678,2.77029 3.3,1.00918 8.84255,3.47192 12.31679,5.47276 3.47423,2.00084 7.37209,4.20594 8.66192,4.90024 4.38885,2.36245 17.52129,15.39234 17.52129,17.38447 0,1.07209 1.61065,4.4671 3.57921,7.54446 4.46638,6.98207 5.13132,8.73697 6.45858,17.04528 0.58746,3.67737 1.54939,7.26601 2.13761,7.97478 0.76689,0.92405 0.72026,1.70946 -0.16483,2.77592 -0.67888,0.818 -0.97713,2.15749 -0.66279,2.97665 0.49587,1.29221 0.94091,1.30508 3.36187,0.0971 1.53469,-0.76573 6.15646,-1.89655 10.27059,-2.51295 4.11413,-0.61639 9.95937,-2.29353 12.98941,-3.72697 4.58923,-2.17105 7.3672,-2.68825 16.63612,-3.09729 15.06263,-0.66471 19.40009,0.10366 24.46291,4.33353 2.2663,1.89344 4.75297,3.44262 5.52593,3.44262 0.77297,0 1.40539,0.4151 1.40539,0.92245 0,0.50734 1.62126,1.45751 3.6028,2.11148 4.80826,1.58686 6.08696,0.19172 6.90512,-7.53393 0.63074,-5.95583 0.59766,-6.05706 -4.49366,-13.75 -4.16874,-6.29895 -5.60642,-7.75 -7.67858,-7.75 -3.60364,0 -16.35319,-2.94528 -19.33568,-4.46674 -1.375,-0.70143 -4.3,-1.84583 -6.5,-2.5431 -2.2,-0.69728 -5.20777,-2.11478 -6.68393,-3.15002 -1.47616,-1.03523 -4.40116,-2.50165 -6.5,-3.25871 -9.14978,-3.30036 -17.16214,-7.52107 -17.74124,-9.34565 -0.3373,-1.06275 -1.72962,-2.44091 -3.09405,-3.06259 -2.16701,-0.98735 -2.48078,-1.77265 -2.48078,-6.20893 0,-8.93462 1.7961,-13.80401 6.29331,-17.06177 2.20372,-1.59637 4.72675,-2.9041702 5.60673,-2.9062302 0.87998,-0.002 3.17496,-1.01456 5.09996,-2.25 3.15088,-2.02220004 4.74686,-2.24608004 16,-2.2444500365688 C 218.30443,0.00100876 221.80625,0.37113876 224.12848,1.6364788 c 1.65,0.89905 5.52076,2.36269 8.6017,3.25253 6.70832,1.9375102 15.62967,7.5421502 22.18668,13.9382802 2.63361,2.569 5.02472,4.67091 5.31357,4.67091 0.28886,0 4.9699,3.84876 10.40232,8.55279 10.4233,9.02575 11.52407,9.55501 24.99573,12.01806 4.675,0.85474 10.3,2.14402 12.5,2.86506 2.2,0.72104 5.8,1.85984 8,2.53066 2.2,0.67083 5.87356,2.52777 8.16348,4.12655 2.28991,1.59878 4.42065,2.90688 4.73497,2.90688 0.31433,0 2.94076,1.42023 5.83653,3.15608 7.56519,4.53491 13.21911,10.30024 17.9746,18.32882 2.28536,3.8583 4.68835,7.6901 5.33999,8.5151 0.65163,0.825 1.29456,2.2875 1.42872,3.25 0.4064,2.91556 0.31482,16.113651 -0.12664,18.250001 -0.70588,3.41598 -5.53724,11.89837 -8.00266,14.05022 -3.35888,2.93167 -10.2852,7.44978 -11.42061,7.44978 -0.53026,0 -2.6197,1.125 -4.64319,2.5 -3.26434,2.21818 -4.7145,2.5 -12.8641,2.5 -9.87394,0 -13.29479,-1.24235 -19.03957,-6.91458 -1.44016,-1.42198 -5.11624,-4.38542 -8.16905,-6.58542 -3.05281,-2.2 -5.79893,-4.675 -6.10249,-5.5 -0.30355,-0.825 -0.95404,-2.175 -1.44553,-3 -3.09588,-5.19668 -6.16645,-13.198488 -6.1781,-16.099918 -0.0381,-9.494733 -3.13801,-10.391733 -8.41867,-2.436083 -1.99474,3.005203 -4.58618,6.135981 -5.75877,6.957291 -4.41456,3.09208 -24.11446,22.98082 -29.60605,29.88984 -7.4489,9.37154 -11.77054,15.66425 -12.6123,18.36465 -0.88905,2.85214 2.16588,4.83581 4.40881,2.86279 2.38349,-2.09666 16.26195,-7.30066 22.58953,-8.47037 8.39501,-1.5519 34.10044,-1.36699 39.58888,0.28479 2.4726,0.74414 6.24857,2.54414 8.39106,4 2.14249,1.45585 4.69097,2.64701 5.66329,2.64701 0.97233,0 1.76787,0.40284 1.76787,0.8952 0,0.49235 2.36148,2.12997 5.24772,3.63915 2.88625,1.50918 7.49102,4.70634 10.23283,7.10481 2.7418,2.39846 5.74767,4.36084 6.67969,4.36084 1.86428,0 5.83976,4.4928 5.83976,6.59967 0,0.73148 1.0125,1.85078 2.25,2.48733 3.68488,1.89546 7.78278,6.1797 9.48183,9.913 0.87608,1.925 2.68183,4.68826 4.01278,6.14058 2.30328,2.51331 2.34499,2.78547 0.86549,5.64651 -1.46223,2.82764 -1.43387,3.08621 0.47811,4.35942 1.77342,1.18094 2.21925,3.31195 3.49715,16.71591 0.80553,8.44933 1.88699,16.15165 2.40324,17.11627 0.61118,1.14201 0.52646,2.84581 -0.24287,4.88398 -0.98522,2.61016 -0.91835,3.39328 0.40251,4.71415 2.65013,2.65013 15.15556,-2.39895 24.15737,-9.75357 3.95692,-3.23285 9.75875,-7.55283 12.89297,-9.59994 3.13421,-2.04711 5.93137,-4.61222 6.21589,-5.70025 0.70523,-2.69678 -1.73627,-6.1266 -5.87619,-8.25489 -5.22334,-2.68526 -14.09004,-10.38136 -16.01328,-13.89917 -0.94147,-1.72205 -2.81369,-3.72072 -4.16047,-4.4415 -3.14679,-1.68411 -12.03827,-12.77606 -16.16244,-20.16235 -2.35725,-4.22178 -3.20062,-6.99208 -3.19651,-10.5 0.0136,-11.5985 4.70256,-17.58376 14.65565,-18.70723 12.80664,-1.44557 30.44883,3.9567 34.14706,10.45627 0.93044,1.63524 2.02921,2.97601 2.44171,2.97949 0.4125,0.003 0.75,0.64382 0.75,1.42299 0,0.77916 0.35418,1.56666 0.78707,1.75 1.08426,0.45919 6.21293,9.41873 6.21293,10.85367 0,0.64031 0.9,2.30837 2,3.70679 1.1,1.39842 2,3.13692 2,3.86332 0,0.7264 1.0125,2.90349 2.25,4.83797 5.19436,8.11991 6.39087,10.29904 8.04534,14.65247 0.9575,2.5195 2.63275,5.53818 3.72279,6.70819 1.09003,1.17001 1.98187,2.42332 1.98187,2.78513 0,0.36181 1.63712,2.88804 3.63804,5.61384 l 3.63804,4.95601 -0.68982,9.13789 c -0.3794,5.02585 -1.052,9.60593 -1.49467,10.17798 -0.44267,0.57204 -2.06518,4.38494 -3.60559,8.47312 -5.24991,13.93304 -14.18237,24.23805 -23.82438,27.48522 -3.13282,1.05505 -6.19102,2.51469 -6.796,3.24365 -2.67819,3.22702 -12.29782,7.58162 -19.64063,8.89089 -9.69462,1.72861 -37.98602,1.78114 -44.2862,0.0822 z"
     id="path3432"
     inkscape:connector-curvature="0" />
</svg>
