<?xml version="1.0" encoding="UTF-8" standalone="no"?>
<!-- Created with Inkscape (http://www.inkscape.org/) -->

<svg
   xmlns:dc="http://purl.org/dc/elements/1.1/"
   xmlns:cc="http://creativecommons.org/ns#"
   xmlns:rdf="http://www.w3.org/1999/02/22-rdf-syntax-ns#"
   xmlns:svg="http://www.w3.org/2000/svg"
   xmlns="http://www.w3.org/2000/svg"
   xmlns:sodipodi="http://sodipodi.sourceforge.net/DTD/sodipodi-0.dtd"
   xmlns:inkscape="http://www.inkscape.org/namespaces/inkscape"
   id="svg3843"
   version="1.1"
   inkscape:version="0.91 r13725"
   width="500"
   height="500"
   viewBox="0 0 500 500"
   sodipodi:docname="shapeshow.svg">
  <metadata
     id="metadata3849">
    <rdf:RDF>
      <cc:Work
         rdf:about="">
        <dc:format>image/svg+xml</dc:format>
        <dc:type
           rdf:resource="http://purl.org/dc/dcmitype/StillImage" />
        <dc:title></dc:title>
      </cc:Work>
    </rdf:RDF>
  </metadata>
  <defs
     id="defs3847" />
  <sodipodi:namedview
     pagecolor="#ffffff"
     bordercolor="#666666"
     borderopacity="1"
     objecttolerance="10"
     gridtolerance="10"
     guidetolerance="10"
     inkscape:pageopacity="0"
     inkscape:pageshadow="2"
     inkscape:window-width="640"
     inkscape:window-height="480"
     id="namedview3845"
     showgrid="false"
     inkscape:zoom="0.472"
     inkscape:cx="250"
     inkscape:cy="250"
     inkscape:window-x="0"
     inkscape:window-y="0"
     inkscape:window-maximized="0"
     inkscape:current-layer="svg3843" />
  <path
     style="fill:#000000"
     d="m 376.5,392.70452 c -7.02112,-0.86914 -11.83463,-2.56594 -14.84346,-5.23245 -8.81092,-7.80848 -13.54261,-12.6086 -12.98175,-13.16946 0.3622,-0.3622 0.18603,-0.65854 -0.39149,-0.65854 -1.82906,0 -2.25771,-3.88704 -3.30832,-30 -0.94494,-23.48666 -1.18085,-25.61843 -2.98787,-27 -1.28855,-0.98517 -2.16512,-3.21611 -2.55394,-6.5 -0.9501,-8.02427 -2.05335,-9.5 -7.10215,-9.5 -2.38206,0 -4.33102,0.41968 -4.33102,0.93261 0,0.51294 -0.90653,1.22034 -2.01452,1.572 -1.10799,0.35166 -1.81335,0.96488 -1.56748,1.36271 0.24587,0.39783 0.97887,9.18768 1.62888,19.53301 0.93577,14.89335 0.92137,20.03707 -0.0692,24.70467 -0.68806,3.24225 -1.60462,5.895 -2.03681,5.895 -0.43219,0 -1.28376,1.50883 -1.89238,3.35295 -2.58184,7.82318 -9.39467,10.64705 -25.68688,10.64705 -11.25767,0 -24.84261,-2.54221 -26.3149,-4.92443 -0.32308,-0.52274 -1.70326,-1.42753 -3.06706,-2.01062 -3.23358,-1.38252 -6.17902,-3.26573 -7.45661,-4.7675 -0.56267,-0.66141 -3.19919,-1.92987 -5.85893,-2.81882 -5.52962,-1.84812 -7.00013,-3.04617 -21.64603,-17.63533 -5.88398,-5.86119 -11.27473,-12.04869 -11.97943,-13.75 -0.70471,-1.70132 -1.7892,-3.10752 -2.40997,-3.1249 -3.85308,-0.10788 -8.99067,-8.31243 -10.15577,-16.2184 -0.385,-2.6125 -1.0989,-4.75 -1.58645,-4.75 -0.48755,0 -0.88646,-0.675 -0.88646,-1.5 0,-0.825 0.41045,-1.5 0.9121,-1.5 0.50166,0 1.22425,-1.8476 1.60577,-4.10577 0.38151,-2.25817 1.46169,-4.87379 2.4004,-5.8125 0.9387,-0.9387 1.55445,-2.16356 1.36833,-2.72192 -0.35119,-1.05358 3.83645,-3.35981 6.10074,-3.35981 0.74774,0 1.87494,-2.42486 2.67234,-5.74876 1.0599,-4.41816 2.29182,-6.617 5.32248,-9.5 2.16885,-2.06318 4.30601,-3.75124 4.74922,-3.75124 0.44322,0 0.55576,-0.65173 0.25009,-1.44828 -0.30566,-0.79655 0.33344,-2.40272 1.42024,-3.56926 1.0868,-1.16653 2.24498,-3.46593 2.57375,-5.10975 0.32876,-1.64383 1.27423,-3.66526 2.10104,-4.49207 2.05037,-2.05037 4.80962,-11.90379 4.02536,-14.37477 -0.81144,-2.55664 -3.53234,-2.60532 -4.19402,-0.075 -0.27771,1.06195 -1.13558,2.17283 -1.90638,2.46861 -0.7708,0.29578 -1.40146,1.14847 -1.40146,1.89486 0,1.76813 -3.59809,5.01912 -8,7.22826 -1.925,0.96608 -3.725,2.08644 -4,2.48969 -1.9938,2.92362 -21.28812,3.25461 -23.58429,0.40458 -1.23263,-1.53 -9.84931,-5.41687 -12.0084,-5.41687 -0.78479,0 -2.19749,-0.9 -3.13934,-2 -0.94185,-1.1 -2.30979,-2 -3.03987,-2 -1.91878,0 -7.59775,-3.04918 -8.48243,-4.55443 -0.41488,-0.7059 -2.77738,-2.05607 -5.25,-3.00037 C 163.02305,228.14496 161,227.05572 161,226.66873 c 0,-0.88474 -4.61448,-3.02466 -6.5223,-3.02466 -1.13871,0 -1.22139,0.55742 -0.40792,2.75 0.56115,1.5125 1.56251,3.2 2.22525,3.75 0.66273,0.55 1.83945,2.2299 2.61492,3.73312 0.77547,1.50322 2.12547,3.52822 3,4.5 1.90486,2.1167 3.49786,5.36884 5.27395,10.76688 0.72385,2.2 2.1036,4.87235 3.0661,5.93856 0.9625,1.06621 1.75,2.72715 1.75,3.69098 0,0.96384 0.45,2.03054 1,2.37046 0.55,0.33992 1,1.49148 1,2.55902 0,1.06754 0.37797,1.94098 0.83994,1.94098 1.79888,0 3.45165,7.86219 2.66941,12.69833 -0.92286,5.70549 -0.92179,5.76469 0.35992,19.80167 1.20587,13.20638 1.74791,15.28747 4.78893,18.38636 1.28799,1.3125 2.3418,3.01413 2.3418,3.78139 0,0.76726 0.67242,1.65305 1.49426,1.96842 0.82184,0.31537 1.24528,0.97625 0.94098,1.46861 -0.3043,0.49237 -0.0828,0.89522 0.49232,0.89522 0.57508,0 1.69253,1.54832 2.48322,3.4407 0.79069,1.89239 2.59673,4.44854 4.01342,5.68034 1.41669,1.2318 2.5758,3.05467 2.5758,4.05082 0,0.99616 0.9,2.37325 2,3.06021 1.65396,1.03292 2,2.33203 2,7.50848 0,3.4427 -0.36665,6.25945 -0.81479,6.25945 -0.44813,0 -1.56585,1.575 -2.48382,3.5 -0.91797,1.925 -2.37787,3.5 -3.24423,3.5 -0.86636,0 -1.35021,0.36404 -1.07522,0.80897 0.69779,1.12905 -4.85567,6.19103 -6.79213,6.19103 -0.8744,0 -1.58981,0.44396 -1.58981,0.98658 0,2.18928 -7.3667,4.01342 -16.20799,4.01342 -11.34364,0 -21.15365,-2.4387 -22.89444,-5.69139 -0.67954,-1.26974 -2.10162,-2.30861 -3.16017,-2.30861 -1.06477,0 -2.15163,-0.86801 -2.43271,-1.94288 -0.28733,-1.09872 -1.70526,-2.20583 -3.26346,-2.54806 -3.50692,-0.77025 -13.06443,-8.60356 -12.5172,-10.25906 0.22726,-0.6875 -0.002,-1.25 -0.50841,-1.25 -1.4729,0 -2.94979,-6.76585 -3.65628,-16.75 -0.36,-5.0875 -1.03812,-9.25 -1.50694,-9.25 -0.46882,0 -0.8524,-1.125 -0.8524,-2.5 0,-1.375 0.45,-2.5 1,-2.5 0.55,0 1,-0.65927 1,-1.46505 0,-2.83149 3.24959,-10.9975 4.86587,-12.22763 1.05346,-0.80177 1.18995,-1.25501 0.38413,-1.27552 -0.6875,-0.0175 -1.25,-0.57011 -1.25,-1.22805 0,-3.19147 -5.37942,-8.72546 -10.5033,-10.80509 -2.94186,-1.19401 -5.58345,-2.78234 -5.87021,-3.52962 -0.74629,-1.9448 -7.2929,-2.99079 -9.13745,-1.45994 -1.68716,1.40021 -2.00033,5.55687 -0.48904,6.4909 0.55,0.33992 1,3.51648 1,7.05902 0,3.62732 0.43684,6.44098 1,6.44098 0.55,0 1,1.35 1,3 0,1.65 -0.45,3 -1,3 -0.55,0 -1,0.71807 -1,1.59571 0,2.06011 -3.1017,7.65212 -4.86284,8.76713 -0.74956,0.47456 -2.26457,1.76457 -3.3667,2.8667 -1.10213,1.10213 -4.53885,2.89897 -7.63716,3.99299 -6.91427,2.44142 -18.56595,2.10956 -24.45375,-0.69649 C 55.16933,327.49718 49,322.24752 49,320.9335 c 0,-0.7749 -5.3324,-5.28671 -6.25,-5.28821 -0.4125,-6.7e-4 -0.75,-0.60018 -0.75,-1.33224 0,-0.73206 -1.14493,-1.94377 -2.5443,-2.69269 -1.66572,-0.89147 -2.44267,-2.05744 -2.25,-3.37657 0.18902,-1.29408 -1.22611,-3.51106 -3.9557,-6.19709 -2.55591,-2.51513 -4.25,-5.099 -4.25,-6.48222 0,-1.26501 -0.52254,-4.82989 -1.16119,-7.92195 -0.98137,-4.7513 -0.88279,-6.80409 0.63651,-13.25559 0.98873,-4.19851 2.36179,-7.85012 3.05124,-8.11469 C 33.09217,265.67147 36,259.9631 36,257.49043 c 0,-1.0155 0.3421,-1.84636 0.76022,-1.84636 0.41812,0 1.88062,-1.02445 3.25,-2.27657 1.36938,-1.25211 4.43471,-2.90984 6.81185,-3.68384 2.37713,-0.774 4.95048,-2.30447 5.71855,-3.40105 1.15482,-1.64873 2.84059,-2.06957 9.74092,-2.43174 6.34647,-0.33311 8.68851,-0.0963 9.78145,0.98893 0.79035,0.78479 3.57451,2.49157 6.18701,3.79284 2.6125,1.30127 4.75,2.69603 4.75,3.09948 0,0.40345 2.00422,1.70377 4.45383,2.8896 2.44961,1.18584 4.74206,3.06419 5.09434,4.17411 0.35227,1.10993 1.94805,2.47386 3.54617,3.03097 1.59811,0.55711 2.90566,1.42254 2.90566,1.92319 0,0.50065 1.8,1.63049 4,2.51076 2.2,0.88026 4,2.21624 4,2.96885 0,0.7526 1.125,2.10549 2.5,3.00643 1.87665,1.22963 2.5,2.50874 2.5,5.13004 0,2.91315 0.28971,3.38081 1.74777,2.8213 0.96127,-0.36888 3.77377,-1.1279 6.25,-1.68672 3.67672,-0.82974 5.1926,-1.91819 8.26743,-5.93631 2.07087,-2.70615 3.25913,-4.92027 2.6406,-4.92027 -0.69643,0 -0.96904,-1.33257 -0.71601,-3.5 0.22474,-1.925 0.0793,-3.5 -0.3232,-3.5 -0.4025,0 -1.01903,-0.90494 -1.37007,-2.01097 -0.35104,-1.10603 -1.84387,-2.64239 -3.31739,-3.41413 -3.43229,-1.79762 -10.17876,-7.82835 -10.18035,-9.1003 -6.7e-4,-0.53603 -1.13014,-2.28729 -2.50992,-3.89168 -1.37978,-1.60439 -3.02431,-4.63805 -3.6545,-6.74146 -0.96379,-3.21684 -0.85866,-4.46116 0.66179,-7.83292 0.99418,-2.20469 2.13816,-4.00854 2.54218,-4.00854 0.40402,0 1.04672,-2.0815 1.42823,-4.62556 0.42617,-2.84193 1.60923,-5.54114 3.06809,-7 1.30594,-1.30594 2.17287,-2.37444 1.92651,-2.37444 -0.51538,0 2.94849,-4.17677 6.37811,-7.69079 1.2866,-1.31826 4.0991,-3.10099 6.25,-3.96161 2.1509,-0.86062 3.91073,-2.1534 3.91073,-2.87285 0,-0.71944 0.5625,-1.53506 1.25,-1.81247 1,-0.40351 1,-0.52017 0,-0.58333 -0.6875,-0.0434 -1.25,-1.13824 -1.25,-2.43293 0,-1.29468 -1.13234,-3.57579 -2.5163,-5.06911 -1.38397,-1.49332 -2.29808,-3.06823 -2.03136,-3.4998 0.60234,-0.9746 -3.85316,-3.07711 -6.52083,-3.07711 -1.19112,0 -2.45893,1.09097 -3.19578,2.75 -0.67176,1.5125 -2.01181,3.62203 -2.97789,4.68784 -0.96607,1.06581 -2.31665,3.20331 -3.00128,4.75 -0.68463,1.54669 -1.58493,2.81216 -2.00067,2.81216 -0.41574,0 -0.75589,0.83026 -0.75589,1.84501 0,1.01476 -0.9,2.6595 -2,3.65499 -1.1,0.99549 -2,2.23797 -2,2.76107 0,0.5231 -1.125,1.83601 -2.5,2.91759 -1.375,1.08158 -2.51107,2.49634 -2.5246,3.14392 -0.0298,1.42789 -6.29385,4.67742 -9.0165,4.67742 -1.07739,0 -1.9589,0.40114 -1.9589,0.89142 0,1.87854 -8.20628,4.10858 -15.11911,4.10858 C 70.02141,217.64407 63,215.5631 63,213.53013 c 0,-0.48733 -0.54745,-0.88606 -1.21657,-0.88606 -2.72542,0 -9.78343,-3.36706 -9.78343,-4.66724 0,-0.76754 -0.6475,-1.644 -1.43889,-1.94768 -0.79139,-0.30369 -1.71889,-1.82697 -2.06111,-3.38508 -0.34222,-1.55811 -1.26972,-3.08139 -2.06111,-3.38508 C 45.62491,198.94664 45,197.39031 45,195.67545 c 0,-1.66726 -0.45,-3.03138 -1,-3.03138 -0.55,0 -1,-0.675 -1,-1.5 0,-0.825 0.35027,-1.5 0.77837,-1.5 0.65179,0 4.22163,-10.31594 4.22163,-12.19948 0,-0.6552 6.60011,-7.439 7.775,-7.99138 2.96406,-1.39358 8.225,-5.17245 8.225,-5.90792 0,-0.49567 0.91583,-0.90122 2.03518,-0.90122 1.11935,0 3.03185,-0.62449 4.25,-1.38776 1.21815,-0.76327 3.86957,-1.67751 5.89204,-2.03166 2.02247,-0.35414 3.84199,-1.13822 4.04338,-1.74238 0.20139,-0.60417 3.94664,-1.41355 8.32278,-1.79863 9.55184,-0.84051 11.34994,-1.70418 13.95662,-6.70367 2.4774,-4.75154 5.31034,-7.25916 8.25,-7.30263 1.57224,-0.0232 2.25,-0.63572 2.25,-2.03327 0,-1.1 -0.45,-2 -1,-2 -2.22032,0 -0.66515,-2.86205 3.99382,-7.35 0.6566,-0.6325 2.37681,-2.3875 3.82269,-3.9 1.44587,-1.5125 3.21074,-2.75 3.92192,-2.75 2.25173,0 9.26157,-2.45491 9.26157,-3.24348 0,-0.41609 0.675,-0.75652 1.5,-0.75652 0.825,0 1.5,0.45 1.5,1 0,0.55 0.6892,1 1.53155,1 1.94315,0 13.80022,3.97041 14.46795,4.84468 0.74535,0.97591 6.24379,4.19721 8.2505,4.8336 0.9625,0.30524 1.75,0.9525 1.75,1.43835 0,0.48585 0.60526,0.88337 1.34501,0.88337 0.73976,0 2.1595,0.9 3.15499,2 0.99549,1.1 2.13992,2 2.54319,2 0.77553,0 8.2023,7.22446 11.27766,10.97044 1.00147,1.21985 1.57809,2.85053 1.28138,3.62374 -0.2967,0.7732 -0.15237,1.40582 0.32075,1.40582 0.47311,0 1.12313,1.04757 1.44448,2.32794 0.32135,1.28036 1.70449,3.53666 3.07363,5.014 2.78326,3.00319 4.07808,7.18723 5.07772,16.40806 0.37266,3.4375 1.08338,6.25 1.57938,6.25 0.49599,0 0.90181,0.675 0.90181,1.5 0,0.825 -0.45,1.5 -1,1.5 -1.377,0 -1.26219,2.71993 0.1517,3.59376 0.63344,0.39148 1.69555,-0.032 2.36025,-0.94098 0.80028,-1.09446 2.69142,-1.66084 5.59829,-1.67664 6.23393,-0.0339 17.4334,-3.16833 19.00643,-5.31943 0.95237,-1.30234 12.50052,-2.93558 21.38333,-3.02421 9.61228,-0.0959 16.89682,1.87193 18.58137,5.01955 0.66288,1.23859 2.49075,2.53433 4.06193,2.87942 1.57119,0.34509 2.8567,0.93184 2.8567,1.30387 0,1.10212 5.81955,3.34606 7.72578,2.97895 1.97793,-0.38091 2.97807,-3.90167 3.15591,-11.10974 0.0926,-3.75211 -0.37555,-5.28932 -2.15158,-7.06535 -1.24844,-1.24844 -3.41668,-4.49048 -4.81832,-7.20454 -2.46214,-4.76759 -2.68154,-4.9244 -6.48011,-4.6315 -2.16242,0.16674 -5.90076,-0.39576 -8.30741,-1.25 -2.40665,-0.85424 -5.44415,-1.55316 -6.75,-1.55316 -1.30585,0 -2.37427,-0.40003 -2.37427,-0.88895 0,-0.48893 -2.94829,-1.68702 -6.55174,-2.66243 -3.70772,-1.00363 -6.94532,-2.50888 -7.45842,-3.4676 -0.49867,-0.93177 -3.62538,-2.45696 -6.94826,-3.38932 C 222.71871,147.30342 220,146.17012 220,145.71733 c 0,-0.45279 -1.34808,-1.09288 -2.99572,-1.4224 C 213.15991,143.52605 209,140.80267 209,139.05474 c 0,-0.74762 -1.40656,-2.08667 -3.12569,-2.97567 l -3.12569,-1.61635 0.48862,-7.61363 c 0.28336,-4.41546 0.96887,-7.77372 1.63192,-7.99474 0.62881,-0.2096 0.9099,-0.75876 0.62462,-1.22034 -1.16575,-1.88622 5.05937,-6.88738 9.92707,-7.97524 2.70647,-0.60486 5.46579,-1.84499 6.13182,-2.75584 C 224.00139,103.5541 253,104.38481 253,107.80378 c 0,0.46216 1.11589,0.84029 2.47976,0.84029 4.86838,0 17.6891,6.61935 23.12548,11.93969 1.15788,1.13317 2.52336,2.06031 3.03439,2.06031 0.51104,0 1.72662,1.35 2.7013,3 0.97468,1.65 2.38904,3 3.14303,3 0.75398,0 2.2558,1.125 3.33738,2.5 1.08158,1.375 2.30826,2.5 2.72596,2.5 0.4177,0 3.27793,2.263 6.35608,5.02889 3.07814,2.76588 6.31991,5.62667 7.20393,6.35731 1.8864,1.55909 12.9508,4.27986 21.14269,5.19905 3.1625,0.35486 5.75,1.00379 5.75,1.44208 0,0.43828 1.9125,1.11534 4.25,1.50456 5.90844,0.98385 11.52219,3.35248 14.51153,6.12291 1.39178,1.28986 3.10766,2.3452 3.81306,2.3452 0.70541,0 1.88406,0.5625 2.61924,1.25 0.73517,0.6875 3.08821,2.14654 5.22897,3.24232 4.97581,2.54692 11.51665,8.95085 14.0546,13.7604 1.08758,2.061 2.28786,3.74728 2.6673,3.74728 0.37943,0 1.46324,2.025 2.40845,4.5 0.94521,2.475 2.15991,4.5 2.69934,4.5 0.53942,0 0.75106,0.87842 0.4703,1.95205 -0.28076,1.07363 -0.0527,2.10464 0.50678,2.29114 1.35675,0.45225 1.45432,14.02885 0.10406,14.47893 -0.57362,0.19121 -0.83089,1.45695 -0.57171,2.81277 0.25918,1.35581 0.0408,2.46511 -0.48528,2.46511 -0.52609,0 -1.55917,1.82604 -2.29574,4.05787 -1.28497,3.8935 -7.31173,9.94213 -9.90619,9.94213 -0.62561,0 -1.39492,0.67089 -1.70958,1.49086 -0.31465,0.81998 -2.31315,2.0125 -4.44111,2.65005 -2.12795,0.63755 -4.88564,2.10416 -6.12819,3.25914 -1.96922,1.83043 -3.4901,2.09983 -11.8499,2.09898 -8.02904,-8.1e-4 -9.89476,-0.305 -11.45784,-1.86808 -1.02691,-1.02692 -3.13183,-2.308 -4.6776,-2.84686 C 332.26472,234.8893 331,233.80332 331,233.01486 c 0,-0.78846 -0.7875,-1.72376 -1.75,-2.07846 -0.9625,-0.35469 -3.72586,-2.36557 -6.14079,-4.46861 -2.41493,-2.10305 -4.77743,-3.82372 -5.25,-3.82372 -0.47257,0 -0.85921,-0.6199 -0.85921,-1.37756 0,-0.75765 -0.675,-1.93775 -1.5,-2.62244 -0.825,-0.68469 -1.5,-2.31479 -1.5,-3.62244 0,-1.30766 -0.99629,-3.37385 -2.21399,-4.59155 -1.76151,-1.76151 -2.32353,-3.75415 -2.75,-9.75 -0.4816,-6.77111 -0.73901,-7.51786 -2.53601,-7.35721 -1.1,0.0983 -2.45,0.95885 -3,1.91225 -0.55,0.9534 -1.75,2.52294 -2.66667,3.48787 -0.91666,0.96493 -1.44877,1.97231 -1.18245,2.23862 0.69839,0.6984 -7.91177,8.62767 -9.40088,8.65746 -0.6875,0.0138 -1.25,0.59219 -1.25,1.28542 0,1.58022 -13.23931,14.73958 -14.82914,14.73958 -0.64397,0 -1.17166,0.3375 -1.17263,0.75 -9.8e-4,0.4125 -2.23568,3.225 -4.966,6.25 -2.73032,3.025 -4.97952,5.81432 -4.99823,6.19848 -0.0187,0.38416 -1.159,1.91237 -2.534,3.39602 -1.375,1.48365 -2.5,3.30684 -2.5,4.05152 0,0.74469 -0.44085,1.35398 -0.97968,1.35398 -0.53882,0 -1.90573,1.81523 -3.03758,4.03384 -1.80815,3.54426 -1.87997,4.21179 -0.59176,5.5 1.83934,1.83933 3.24044,1.86904 3.92572,0.0832 0.29187,-0.7606 3.04002,-2.1722 6.10699,-3.13689 3.06697,-0.96468 5.57631,-2.05647 5.57631,-2.4262 0,-0.36974 4.1625,-1.54563 9.25,-2.61311 6.88643,-1.44494 12.8273,-1.90771 23.25,-1.81108 15.32388,0.14206 21.64536,1.56955 26.37611,5.95615 1.4319,1.32773 3.63467,2.41406 4.89506,2.41406 1.26038,0 2.55062,0.675 2.8672,1.5 0.31659,0.825 1.14178,1.5 1.83376,1.5 0.69198,0 2.40232,0.9 3.80074,2 1.39842,1.1 3.03669,2 3.64058,2 0.6039,0 3.09433,2.025 5.53429,4.5 2.43996,2.475 5.29353,4.5 6.34127,4.5 2.69235,0 6.21099,3.33608 6.21099,5.88873 0,1.35179 0.97258,2.59729 2.61117,3.34387 3.41455,1.55578 9.54247,7.70979 8.82809,8.86568 -0.30651,0.49595 -0.11649,0.90172 0.42227,0.90172 0.53876,0 1.27159,1.3296 1.62851,2.95467 0.36412,1.65779 1.49631,3.22361 2.57946,3.56739 2.3035,0.7311 2.52965,4.02164 0.42131,6.12999 -1.67191,1.6719 -1.14668,3.34795 1.04915,3.34795 1.82224,0 2.09518,1.51401 3.42526,19 0.60662,7.975 1.53761,14.65 2.06886,14.83333 1.27012,0.43832 1.24501,3.87615 -0.0341,4.66667 -1.64327,1.01559 -1.13649,3.93865 1,5.76797 1.1,0.94185 2,1.36601 2,0.94257 0,-0.42344 3.59378,-1.83853 7.98618,-3.14465 5.6203,-1.67124 8.44147,-3.06963 9.52305,-4.72033 0.84528,-1.29006 2.05705,-2.34556 2.69282,-2.34556 0.63577,0 2.62361,-1.4625 4.41743,-3.25 5.02214,-5.00446 6.73278,-6.2862 11.70176,-8.76782 2.53084,-1.26397 4.33626,-2.72735 4.01203,-3.25195 -0.32423,-0.52461 0.0306,-1.38778 0.78861,-1.91816 1.06577,-0.74577 1.09481,-1.07929 0.12812,-1.47153 -0.6875,-0.27897 -1.25,-1.17001 -1.25,-1.9801 0,-0.8101 -2.0772,-2.39175 -4.616,-3.51478 -2.5388,-1.12303 -6.6541,-4.02273 -9.14512,-6.44377 -2.49099,-2.42101 -4.83045,-4.40186 -5.19877,-4.40186 -0.36831,0 -1.42561,-1.58522 -2.34953,-3.52272 -0.92393,-1.93749 -2.69478,-3.92141 -3.93522,-4.4087 -1.93777,-0.76123 -6.47132,-5.06858 -5.33475,-5.06858 0.22056,0 -1.60179,-2.06073 -4.04966,-4.57941 -2.44786,-2.51867 -5.19664,-6.45617 -6.10838,-8.75 -0.91174,-2.29382 -2.26491,-4.78634 -3.00704,-5.53892 -1.90255,-1.92937 -1.00704,-16.52299 1.14603,-18.67606 0.85465,-0.85465 2.1769,-2.44335 2.93833,-3.53045 2.14772,-3.06631 11.53445,-4.33712 22.30472,-3.01971 4.8683,0.5955 8.9997,1.52742 9.18087,2.07094 0.18118,0.54352 2.03433,1.44731 4.11811,2.00841 3.99718,1.07633 9.05643,5.35077 9.05643,7.65156 0,0.75 0.72314,1.36364 1.60699,1.36364 1.01759,0 1.39587,0.55016 1.03138,1.5 -0.31658,0.825 -0.11676,1.5 0.44404,1.5 0.5608,0 1.72226,1.6875 2.58101,3.75 0.85875,2.0625 2.01563,4.03546 2.57086,4.38435 0.55522,0.34889 0.80758,1.24008 0.5608,1.98042 -0.24678,0.74034 0.59837,2.47529 1.87811,3.85544 1.27975,1.38014 2.32681,3.50409 2.32681,4.71988 0,1.21579 0.56292,2.57039 1.25094,3.01022 0.68801,0.43983 2.29458,2.93719 3.57015,5.54969 1.27557,2.6125 2.68423,4.75 3.13035,4.75 0.44612,0 1.32321,2.03366 1.94909,4.51924 0.62588,2.48559 1.9918,5.37309 3.03538,6.41667 1.04358,1.04358 1.63492,2.15992 1.31409,2.48076 -0.32083,0.32083 -0.0583,0.58333 0.58333,0.58333 0.64167,0 1.17104,0.5625 1.17638,1.25 0.005,0.6875 1.619,3.27469 3.58591,5.74931 l 3.57622,4.4993 -0.33592,9.91827 c -0.22131,6.53436 -0.74323,10.05372 -1.52974,10.3153 -0.65661,0.21837 -0.94596,1.04296 -0.64301,1.83243 0.30294,0.78946 0.0884,1.43539 -0.47673,1.43539 -0.56514,0 -1.34578,1.4625 -1.73476,3.25 -0.38898,1.7875 -1.32473,4.13763 -2.07945,5.22251 -0.75473,1.08487 -1.37223,2.72423 -1.37223,3.64301 0,0.91878 -0.675,1.92952 -1.5,2.24611 -0.825,0.31658 -1.5,1.24921 -1.5,2.07251 0,0.8233 -1.2375,2.79632 -2.75,4.3845 -1.5125,1.58818 -3.41184,3.85369 -4.22076,5.03448 -0.80892,1.18078 -2.06054,2.14688 -2.78138,2.14688 -0.72085,0 -1.55407,0.63439 -1.8516,1.40975 -0.29754,0.77537 -1.74591,1.69559 -3.21862,2.04495 -5.20603,1.23498 -11.17019,4.06139 -11.17389,5.2953 -0.002,0.6875 -0.6992,1.25 -1.5492,1.25 -0.85,0 -2.56263,1.0125 -3.80585,2.25 -3.47163,3.45567 -14.16978,5.58491 -30.6487,6.09997 -7.975,0.24926 -17.2,0.11898 -20.5,-0.28952 z"
     id="path3853"
     inkscape:connector-curvature="0" />
</svg>
