<?xml version="1.0" encoding="UTF-8" standalone="no"?>
<!-- Created with Inkscape (http://www.inkscape.org/) -->

<svg
   xmlns:dc="http://purl.org/dc/elements/1.1/"
   xmlns:cc="http://creativecommons.org/ns#"
   xmlns:rdf="http://www.w3.org/1999/02/22-rdf-syntax-ns#"
   xmlns:svg="http://www.w3.org/2000/svg"
   xmlns="http://www.w3.org/2000/svg"
   xmlns:sodipodi="http://sodipodi.sourceforge.net/DTD/sodipodi-0.dtd"
   xmlns:inkscape="http://www.inkscape.org/namespaces/inkscape"
   id="svg5591"
   version="1.1"
   inkscape:version="0.91 r13725"
   width="442.9729"
   height="384.92441"
   viewBox="0 0 442.9729 384.92441"
   sodipodi:docname="shapehide.svg">
  <metadata
     id="metadata5597">
    <rdf:RDF>
      <cc:Work
         rdf:about="">
        <dc:format>image/svg+xml</dc:format>
        <dc:type
           rdf:resource="http://purl.org/dc/dcmitype/StillImage" />
        <dc:title></dc:title>
      </cc:Work>
    </rdf:RDF>
  </metadata>
  <defs
     id="defs5595" />
  <sodipodi:namedview
     pagecolor="#ffffff"
     bordercolor="#666666"
     borderopacity="1"
     objecttolerance="10"
     gridtolerance="10"
     guidetolerance="10"
     inkscape:pageopacity="0"
     inkscape:pageshadow="2"
     inkscape:window-width="640"
     inkscape:window-height="480"
     id="namedview5593"
     showgrid="false"
     inkscape:zoom="0.472"
     inkscape:cx="218.56379"
     inkscape:cy="196.96497"
     inkscape:window-x="0"
     inkscape:window-y="0"
     inkscape:window-maximized="0"
     inkscape:current-layer="svg5591"
     fit-margin-top="0"
     fit-margin-left="0"
     fit-margin-right="0"
     fit-margin-bottom="0" />
  <path
     style="fill:#000000"
     d="M 70.436274,377.85459 C 65.078477,373.94692 60.831227,370.1486 60.997947,369.41388 61.418597,367.56014 331.1145,0.05052349 332.09116,1.7249211e-4 333.20876,-0.05744751 352.78937,14.3394 352.52168,15.02192 351.97617,16.4128 81.238764,384.89309 80.739404,384.92432 c -0.30892,0.0193 -4.94533,-3.16206 -10.30313,-7.06973 z m 278.864796,-48.8347 c -7.02112,-0.86914 -11.83463,-2.56594 -14.84346,-5.23245 -8.81092,-7.80848 -13.54261,-12.6086 -12.98175,-13.16946 0.3622,-0.3622 0.18603,-0.65854 -0.39149,-0.65854 -1.82906,0 -2.25771,-3.88704 -3.30832,-30 -0.94494,-23.48666 -1.18085,-25.61843 -2.98787,-27 -1.28855,-0.98517 -2.16512,-3.21611 -2.55394,-6.5 -0.9501,-8.02427 -2.05335,-9.5 -7.10215,-9.5 -2.38206,0 -4.33102,0.41968 -4.33102,0.93261 0,0.51294 -0.90653,1.22034 -2.01452,1.572 -1.10799,0.35166 -1.81335,0.96488 -1.56748,1.36271 0.24587,0.39783 0.97887,9.18768 1.62888,19.53301 0.93577,14.89335 0.92137,20.03707 -0.0692,24.70467 -0.68806,3.24225 -1.60462,5.895 -2.03681,5.895 -0.43219,0 -1.28376,1.50883 -1.89238,3.35295 -2.58184,7.82318 -9.39467,10.64705 -25.68688,10.64705 -11.25767,0 -24.84261,-2.54221 -26.3149,-4.92443 -0.32308,-0.52274 -1.70326,-1.42753 -3.06706,-2.01062 -3.23358,-1.38252 -6.17902,-3.26573 -7.45661,-4.7675 -0.56267,-0.66141 -3.19919,-1.92987 -5.85893,-2.81882 -2.65974,-0.88894 -6.21109,-2.82279 -7.89189,-4.29745 -8.55337,-7.50431 -24.60342,-24.35946 -25.68703,-26.97553 -1.21722,-2.9386 -0.87509,-3.47052 24.09003,-37.45293 l 25.32478,-34.47199 9,-1.89036 c 6.62374,-1.39126 12.69641,-1.8561 23,-1.76058 15.32388,0.14206 21.64536,1.56955 26.37611,5.95615 1.4319,1.32773 3.63467,2.41406 4.89506,2.41406 1.26038,0 2.55062,0.675 2.8672,1.5 0.31659,0.825 1.14178,1.5 1.83376,1.5 0.69198,0 2.40232,0.9 3.80074,2 1.39842,1.1 3.03669,2 3.64058,2 0.6039,0 3.09433,2.025 5.53429,4.5 2.43996,2.475 5.29353,4.5 6.34127,4.5 2.69235,0 6.21099,3.33608 6.21099,5.88873 0,1.35179 0.97258,2.59729 2.61117,3.34387 3.41455,1.55578 9.54247,7.70979 8.82809,8.86568 -0.30651,0.49595 -0.11649,0.90172 0.42227,0.90172 0.53876,0 1.27159,1.3296 1.62851,2.95467 0.36412,1.65779 1.49631,3.22361 2.57946,3.56739 2.3035,0.7311 2.52965,4.02164 0.42131,6.12999 -1.67191,1.6719 -1.14668,3.34795 1.04915,3.34795 1.82224,0 2.09518,1.51401 3.42526,19 0.60662,7.975 1.53761,14.65 2.06886,14.83333 1.27012,0.43832 1.24501,3.87615 -0.0341,4.66667 -1.64327,1.01559 -1.13649,3.93865 1,5.76797 1.1,0.94185 2,1.36601 2,0.94257 0,-0.42344 3.59378,-1.83853 7.98618,-3.14465 5.6203,-1.67124 8.44147,-3.06963 9.52305,-4.72033 0.84528,-1.29006 2.05705,-2.34556 2.69282,-2.34556 0.63577,0 2.62361,-1.4625 4.41743,-3.25 5.02214,-5.00446 6.73278,-6.2862 11.70176,-8.76782 2.53084,-1.26397 4.33626,-2.72735 4.01203,-3.25195 -0.32423,-0.52461 0.0306,-1.38778 0.78861,-1.91816 1.06577,-0.74577 1.09481,-1.07929 0.12812,-1.47153 -0.6875,-0.27897 -1.25,-1.17001 -1.25,-1.9801 0,-0.8101 -2.0772,-2.39175 -4.616,-3.51478 -2.5388,-1.12303 -6.6541,-4.02273 -9.14512,-6.44377 -2.49099,-2.42104 -4.83045,-4.40189 -5.19877,-4.40189 -0.36831,0 -1.42561,-1.58522 -2.34953,-3.52272 -0.92393,-1.93749 -2.69478,-3.92141 -3.93522,-4.4087 -1.93777,-0.76123 -6.47132,-5.06858 -5.33475,-5.06858 0.22056,0 -1.60179,-2.06073 -4.04966,-4.57941 -2.44786,-2.51867 -5.19664,-6.45617 -6.10838,-8.75 -0.91174,-2.29382 -2.26491,-4.78634 -3.00704,-5.53892 -1.90255,-1.92937 -1.00704,-16.52299 1.14603,-18.67606 0.85465,-0.85465 2.1769,-2.44335 2.93833,-3.53045 2.14772,-3.06631 11.53445,-4.33712 22.30472,-3.01971 4.8683,0.5955 8.9997,1.52742 9.18087,2.07094 0.18118,0.54352 2.03433,1.44731 4.11811,2.00841 3.99718,1.07633 9.05643,5.35077 9.05643,7.65156 0,0.75 0.72314,1.36364 1.60699,1.36364 1.01759,0 1.39587,0.55016 1.03138,1.5 -0.31658,0.825 -0.11676,1.5 0.44404,1.5 0.5608,0 1.72226,1.6875 2.58101,3.75 0.85875,2.0625 2.01563,4.03546 2.57086,4.38435 0.55522,0.34889 0.80758,1.24008 0.5608,1.98042 -0.24678,0.74034 0.59837,2.47529 1.87811,3.85544 1.27975,1.38014 2.32681,3.50409 2.32681,4.71988 0,1.21579 0.56292,2.57039 1.25094,3.01022 0.68801,0.43983 2.29458,2.93719 3.57015,5.54969 1.27557,2.6125 2.68423,4.75 3.13035,4.75 0.44612,0 1.32321,2.03366 1.94909,4.51924 0.62588,2.48559 1.9918,5.37309 3.03538,6.41667 1.04358,1.04358 1.63492,2.15992 1.31409,2.48076 -0.32083,0.32083 -0.0583,0.58333 0.58333,0.58333 0.64167,0 1.17104,0.5625 1.17638,1.25 0.005,0.6875 1.619,3.27469 3.58591,5.74931 l 3.57622,4.4993 -0.33592,9.91827 c -0.22131,6.53436 -0.74323,10.05372 -1.52974,10.3153 -0.65661,0.21837 -0.94596,1.04296 -0.64301,1.83243 0.30294,0.78946 0.0884,1.43539 -0.47673,1.43539 -0.56514,0 -1.34578,1.4625 -1.73476,3.25 -0.38898,1.7875 -1.32473,4.13763 -2.07945,5.22251 -0.75473,1.08487 -1.37223,2.72423 -1.37223,3.64301 0,0.91878 -0.675,1.92952 -1.5,2.24611 -0.825,0.31658 -1.5,1.24921 -1.5,2.07251 0,0.8233 -1.2375,2.79632 -2.75,4.3845 -1.5125,1.58818 -3.41184,3.85369 -4.22076,5.03448 -0.80892,1.18078 -2.06054,2.14688 -2.78138,2.14688 -0.72085,0 -1.55407,0.63439 -1.8516,1.40975 -0.29754,0.77537 -1.74591,1.69559 -3.21862,2.04495 -5.20603,1.23498 -11.17019,4.06139 -11.17389,5.2953 -0.002,0.6875 -0.6992,1.25 -1.5492,1.25 -0.85,0 -2.56263,1.0125 -3.80585,2.25 -3.47163,3.45567 -14.16978,5.58491 -30.6487,6.09997 -7.975,0.24926 -17.2,0.11898 -20.5,-0.28952 z M 154.55044,306.70944 c 0.54684,-0.6875 5.10194,-6.84665 10.12244,-13.68701 l 9.12819,-12.43701 0,5.18701 c 0,2.85286 -0.36665,5.18701 -0.81479,5.18701 -0.44813,0 -1.56585,1.575 -2.48382,3.5 -0.91797,1.925 -2.37787,3.5 -3.24423,3.5 -0.86636,0 -1.35021,0.36404 -1.07522,0.80897 0.67626,1.09421 -4.82734,6.19103 -6.68514,6.19103 -0.81555,0 -1.74184,0.675 -2.05843,1.5 -0.31658,0.825 -1.31982,1.5 -2.22943,1.5 -1.18667,0 -1.37298,-0.35309 -0.65957,-1.25 z M 98.929324,289.86221 c -1.25445,-1.01579 -1.99493,-2.30947 -1.64552,-2.87483 0.34942,-0.56537 0.1799,-1.02794 -0.37671,-1.02794 -1.55857,0 -3.02548,-6.558 -3.74668,-16.75 -0.36,-5.0875 -1.03812,-9.25 -1.50694,-9.25 -0.46882,0 -0.8524,-1.125 -0.8524,-2.5 0,-1.375 0.45,-2.5 1,-2.5 0.55,0 1,-0.65927 1,-1.46505 0,-2.83149 3.24959,-10.9975 4.86587,-12.22763 1.05346,-0.80177 1.18995,-1.25501 0.38413,-1.27552 -0.6875,-0.0175 -1.25,-0.57011 -1.25,-1.22805 0,-3.19147 -5.37942,-8.72546 -10.5033,-10.80509 -2.94186,-1.19401 -5.58345,-2.78234 -5.87021,-3.52962 -0.74629,-1.9448 -7.2929,-2.99079 -9.13745,-1.45994 -1.68715,1.40021 -2.00033,5.55687 -0.48904,6.4909 0.55,0.33992 1,3.51648 1,7.05902 0,3.62732 0.43684,6.44098 1,6.44098 0.55,0 1,1.35 1,3 0,1.65 -0.45,3 -1,3 -0.55,0 -1,0.71807 -1,1.59571 0,2.06011 -3.1017,7.65212 -4.862827,8.76713 -0.74956,0.47456 -2.26458,1.76457 -3.36671,2.8667 -1.10212,1.10213 -4.53885,2.89897 -7.63716,3.99299 -6.91426,2.44142 -18.56595,2.10956 -24.45374,-0.69649 -3.51023,-1.67293 -9.67956,-6.92259 -9.67956,-8.23661 0,-0.7749 -5.3324,-5.28671 -6.25,-5.28821 -0.4125,-6.7e-4 -0.75,-0.60018 -0.75,-1.33224 0,-0.73206 -1.14493,-1.94377 -2.5443,-2.69269 -1.66572,-0.89147 -2.4426697,-2.05744 -2.25,-3.37657 0.18902,-1.29408 -1.2261097,-3.51106 -3.9556997,-6.19709 -2.55591,-2.51513 -4.25,-5.099 -4.25,-6.48222 0,-1.26501 -0.52253,-4.82989 -1.16118997,-7.92195 -0.98136,-4.7513 -0.88279,-6.80409 0.63650997,-13.25559 0.98874,-4.19851 2.3618,-7.85012 3.05125,-8.11469 1.5656,-0.60078 4.47343,-6.30915 4.47343,-8.78182 0,-1.0155 0.3421,-1.84636 0.76022,-1.84636 0.41812,0 1.8806197,-1.02445 3.2499997,-2.27657 1.36938,-1.25211 4.43471,-2.90984 6.81185,-3.68384 2.37713,-0.774 4.95049,-2.30447 5.71856,-3.40105 1.15481,-1.64873 2.84059,-2.06957 9.74092,-2.43174 6.34647,-0.33311 8.6885,-0.0963 9.78144,0.98893 0.79036,0.78479 3.57451,2.49157 6.18701,3.79284 2.6125,1.30127 4.75,2.69603 4.75,3.09948 0,0.40345 2.00423,1.70377 4.45384,2.8896 2.4496,1.18584 4.74205,3.06419 5.09433,4.17411 0.35228,1.10993 1.94805,2.47386 3.546167,3.03097 1.59812,0.55711 2.90566,1.42254 2.90566,1.92319 0,0.50065 1.8,1.63049 4,2.51076 2.2,0.88026 4,2.21624 4,2.96885 0,0.7526 1.125,2.10549 2.5,3.00643 1.87665,1.22963 2.5,2.50874 2.5,5.13004 0,2.91315 0.28971,3.38081 1.74777,2.8213 0.96127,-0.36888 3.77377,-1.1279 6.25,-1.68672 3.67672,-0.82974 5.1926,-1.91819 8.267426,-5.93631 2.07087,-2.70615 3.25913,-4.92027 2.6406,-4.92027 -0.69643,0 -0.96904,-1.33257 -0.71601,-3.5 0.22474,-1.925 0.0793,-3.5 -0.3232,-3.5 -0.4025,0 -1.01903,-0.90494 -1.37007,-2.01097 -0.35104,-1.10603 -1.843866,-2.64239 -3.317386,-3.41413 -3.43229,-1.79762 -10.17876,-7.82835 -10.18035,-9.1003 -6.7e-4,-0.53603 -1.13014,-2.28729 -2.50992,-3.89168 -1.37978,-1.60439 -3.02431,-4.63805 -3.6545,-6.74146 -0.96379,-3.21684 -0.85866,-4.46116 0.66179,-7.83292 0.99418,-2.20469 2.13816,-4.00854 2.54218,-4.00854 0.40402,0 1.04672,-2.0815 1.42823,-4.62556 0.42617,-2.84193 1.60923,-5.54114 3.06809,-7 1.30594,-1.30594 2.17287,-2.37444 1.92651,-2.37444 -0.51538,0 2.94849,-4.17677 6.37811,-7.69079 1.2866,-1.31826 4.099096,-3.10099 6.249996,-3.96161 2.1509,-0.86062 3.91073,-2.1534 3.91073,-2.87285 0,-0.71944 0.5625,-1.53506 1.25,-1.81247 1,-0.40351 1,-0.52017 0,-0.58333 -0.6875,-0.0434 -1.25,-1.13824 -1.25,-2.43293 0,-1.29468 -1.13234,-3.57579 -2.5163,-5.06911 -1.38397,-1.49332 -2.29808,-3.06823 -2.03136,-3.4998 0.60234,-0.9746 -3.853156,-3.07711 -6.520826,-3.07711 -1.19112,0 -2.45893,1.09097 -3.19578,2.75 -0.67176,1.5125 -2.01181,3.62203 -2.97789,4.68784 -0.96607,1.06581 -2.31665,3.20331 -3.00128,4.75 -0.68463,1.54669 -1.58493,2.81216 -2.00067,2.81216 -0.41574,0 -0.75589,0.83026 -0.75589,1.84501 0,1.01476 -0.9,2.6595 -2,3.65499 -1.1,0.99549 -2,2.23797 -2,2.76107 0,0.5231 -1.125,1.83601 -2.5,2.91759 -1.375,1.08158 -2.51107,2.49634 -2.5246,3.14392 -0.0298,1.42789 -6.29384,4.67742 -9.016497,4.67742 -1.07739,0 -1.9589,0.40114 -1.9589,0.89142 0,1.87854 -8.20628,4.10858 -15.1191,4.10858 -6.85949,0 -13.8809,-2.08097 -13.8809,-4.11394 0,-0.48733 -0.54745,-0.88606 -1.21656,-0.88606 -2.72542,0 -9.78344,-3.36706 -9.78344,-4.66724 0,-0.76754 -0.6475,-1.644 -1.43889,-1.94768 -0.79139,-0.30369 -1.71889,-1.82697 -2.06111,-3.38508 -0.34221,-1.55811 -1.26971,-3.08139 -2.0611,-3.38508 -0.81399,-0.31235 -1.4389,-1.86868 -1.4389,-3.58354 0,-1.66726 -0.45,-3.03138 -1,-3.03138 -0.55,0 -1,-0.675 -1,-1.5 0,-0.825 0.35027,-1.5 0.77837,-1.5 0.6518,0 4.22163,-10.31594 4.22163,-12.19948 0,-0.6552 6.60012,-7.439 7.775,-7.99138 2.96407,-1.39358 8.225,-5.17245 8.225,-5.907921 0,-0.49567 0.91584,-0.90122 2.03519,-0.90122 1.11935,0 3.03185,-0.62449 4.25,-1.38776 1.21815,-0.76327 3.86956,-1.67751 5.89203,-2.03166 2.02248,-0.35414 3.842,-1.13822 4.04339,-1.74238 0.20138,-0.60417 3.94664,-1.41355 8.32278,-1.79863 9.551837,-0.84051 11.349927,-1.70418 13.956607,-6.70367 2.4774,-4.75154 5.31034,-7.25916 8.25,-7.30263 1.57224,-0.0232 2.25,-0.63572 2.25,-2.03327 0,-1.1 -0.45,-2 -1,-2 -2.21551,0 -0.56317,-2.99062 4.14382,-7.5 0.5741,-0.55 2.22681,-2.2375 3.67269,-3.75 1.44587,-1.5125 3.21074,-2.75 3.92192,-2.75 2.25173,0 9.261566,-2.45491 9.261566,-3.24348 0,-0.41609 0.675,-0.75652 1.5,-0.75652 0.825,0 1.5,0.45 1.5,1 0,0.55 0.6892,1 1.53155,1 1.94315,0 13.80022,3.97041 14.46795,4.84468 0.74535,0.97591 6.24379,4.19721 8.2505,4.8336 0.9625,0.30524 1.75,0.9525 1.75,1.43835 0,0.48585 0.60526,0.88337 1.34501,0.88337 0.73976,0 2.1595,0.9 3.15499,2 0.99549,1.1 2.13992,2 2.54319,2 0.77553,0 8.2023,7.22446 11.27766,10.97044 1.00147,1.21985 1.57809,2.85053 1.28138,3.62374 -0.2967,0.7732 -0.15237,1.40582 0.32075,1.40582 0.47311,0 1.12313,1.04757 1.44448,2.32794 0.32135,1.28036 1.70449,3.53666 3.07363,5.014 2.78326,3.003191 4.07808,7.187231 5.07772,16.408061 0.37266,3.4375 1.08338,6.25 1.57938,6.25 0.49599,0 0.90181,0.675 0.90181,1.5 0,0.825 -0.45,1.5 -1,1.5 -1.377,0 -1.26219,2.71993 0.1517,3.59376 0.63344,0.39148 1.69555,-0.032 2.36025,-0.94098 0.80028,-1.09446 2.69142,-1.66084 5.59829,-1.67664 6.23393,-0.0339 17.4334,-3.16833 19.00643,-5.31943 0.33917,-0.46381 3.48917,-1.2684 7,-1.78799 3.51083,-0.51958 7.86009,-1.2035 9.66501,-1.51981 4.39282,-0.76985 15.65222,0.49596 17.52646,1.97036 1.27238,1.00094 -2.19398,6.20143 -22.76454,34.15311 l -24.26547,32.97238 -4.38906,-0.28762 c -2.41399,-0.1582 -4.877,-0.9173 -5.47336,-1.68689 -1.20984,-1.56129 -9.79088,-5.47025 -12.0084,-5.47025 -0.78479,0 -2.19749,-0.9 -3.13934,-2 -0.94185,-1.1 -2.30979,-2 -3.03987,-2 -1.91878,0 -7.59775,-3.04918 -8.48243,-4.55443 -0.41488,-0.7059 -2.77738,-2.05607 -5.25,-3.00037 -2.47262,-0.94431 -4.49567,-2.03355 -4.49567,-2.42054 0,-0.88474 -4.61448,-3.02466 -6.5223,-3.02466 -1.13871,0 -1.22139,0.55742 -0.40792,2.75 0.56115,1.5125 1.56251,3.2 2.22525,3.75 0.66273,0.55 1.83945,2.2299 2.61492,3.73312 0.77547,1.50322 2.12547,3.52822 3,4.5 1.90486,2.1167 3.49786,5.36884 5.27395,10.76688 0.72385,2.2 2.1036,4.87235 3.0661,5.93856 0.9625,1.06621 1.75,2.72715 1.75,3.69098 0,0.96384 0.45,2.03054 1,2.37046 0.55,0.33992 1,1.49148 1,2.55902 0,1.06754 0.37797,1.94098 0.83994,1.94098 1.79094,0 3.45132,7.8637 2.68119,12.69833 -0.42069,2.64092 -0.83667,6.37667 -0.9244,8.30167 -0.13081,2.87025 -4.18412,8.98781 -22.52737,34 -12.30233,16.775 -23.10866,31.45617 -24.01408,32.62483 -1.6098,2.07785 -1.69664,2.084 -3.927026,0.27794 z M 314.88883,176.27992 c -1.32673,-0.27615 -3.09951,-1.18938 -3.93951,-2.02938 -0.84,-0.84 -2.79199,-1.96815 -4.33776,-2.50701 -1.54577,-0.53886 -2.81049,-1.62484 -2.81049,-2.4133 0,-0.78846 -0.7875,-1.72376 -1.75,-2.07846 -0.9625,-0.35469 -3.72586,-2.36557 -6.14079,-4.46861 -2.41493,-2.10305 -4.77743,-3.82372 -5.25,-3.82372 -0.47257,0 -0.85921,-0.6199 -0.85921,-1.37756 0,-0.75765 -0.675,-1.93775 -1.5,-2.62244 -0.825,-0.68469 -1.5,-2.31479 -1.5,-3.62244 0,-1.30766 -0.99032,-3.36788 -2.20071,-4.57827 -1.60747,-1.60747 -2.29929,-3.6966 -2.56641,-7.75 l -0.3657,-5.54929 15.10239,-20.5 c 8.30632,-11.275 15.68973,-21.087451 16.40758,-21.805451 1.07371,-1.07393 2.06325,-1.00214 5.57952,0.40479 2.35089,0.94064 5.41307,2.76559 6.80486,4.05546 1.39178,1.28986 3.10766,2.3452 3.81306,2.3452 0.70541,0 1.88406,0.5625 2.61924,1.25 0.73517,0.6875 3.08821,2.146541 5.22897,3.242321 4.97581,2.54692 11.51665,8.95085 14.0546,13.7604 1.08758,2.061 2.28786,3.74728 2.6673,3.74728 0.37943,0 1.46324,2.025 2.40845,4.5 0.94521,2.475 2.15991,4.5 2.69934,4.5 0.53942,0 0.75106,0.87842 0.4703,1.95205 -0.28076,1.07363 -0.0527,2.10464 0.50678,2.29114 1.35675,0.45225 1.45432,14.02885 0.10406,14.47893 -0.57362,0.19121 -0.83089,1.45695 -0.57171,2.81277 0.25918,1.35581 0.0408,2.46511 -0.48528,2.46511 -0.52609,0 -1.55917,1.82604 -2.29574,4.05787 -1.28143,3.88276 -6.16021,8.76809 -10.2309,10.2446 -0.9625,0.34912 -1.75,1.08082 -1.75,1.626 0,0.54519 -1.78762,1.52683 -3.9725,2.18144 -2.18487,0.6546 -4.98668,2.13516 -6.22625,3.29014 -1.83318,1.70808 -3.65776,2.13005 -9.7775,2.26125 -4.13806,0.0887 -8.60926,-0.0647 -9.93599,-0.34082 z M 241.35185,98.041599 c -0.32309,-0.52276 -2.12122,-0.70157 -3.99586,-0.39736 -1.97118,0.31988 -5.41199,-0.12956 -8.15982,-1.06584 -2.61326,-0.89043 -5.79622,-1.61896 -7.07324,-1.61896 -1.27702,0 -2.32186,-0.40003 -2.32186,-0.88895 0,-0.48893 -2.94829,-1.68702 -6.55174,-2.66243 -3.70772,-1.00363 -6.94532,-2.50888 -7.45842,-3.4676 -0.49867,-0.93177 -3.62538,-2.45696 -6.94826,-3.38932 -3.32287,-0.93235 -6.04158,-2.06565 -6.04158,-2.51844 0,-0.45279 -1.34808,-1.09288 -2.99572,-1.4224 -3.84437,-0.76888 -8.00428,-3.49226 -8.00428,-5.24019 0,-0.74762 -1.40656,-2.08667 -3.12569,-2.97567 l -3.12569,-1.61635 0.48862,-7.61363 c 0.28336,-4.41546 0.96887,-7.77372 1.63192,-7.99474 0.62881,-0.2096 0.9099,-0.75876 0.62462,-1.22034 -1.16575,-1.88622 5.05937,-6.88738 9.92707,-7.97524 2.70647,-0.60486 5.46579,-1.84499 6.13182,-2.75584 2.44872,-3.34883 31.44733,-2.51812 31.44733,0.90085 0,0.46216 1.11589,0.84029 2.47976,0.84029 4.86838,0 17.6891,6.61935 23.12548,11.93969 1.15788,1.13317 2.52336,2.06031 3.03439,2.06031 0.51104,0 1.72662,1.35 2.7013,3 0.97468,1.65 2.35196,3 3.06062,3 0.70866,0 2.06786,0.86121 3.02044,1.9138 1.66634,1.84129 1.32739,2.46655 -8.94651,16.50371 -5.87316,8.02445 -11.0517,14.82058 -11.50788,15.10251 -0.45617,0.28193 -1.09374,0.0849 -1.41682,-0.43786 z"
     id="path5601"
     inkscape:connector-curvature="0" />
</svg>
