<?xml version="1.0" encoding="UTF-8" standalone="no"?>
<!-- Created with Inkscape (http://www.inkscape.org/) -->

<svg
   xmlns:dc="http://purl.org/dc/elements/1.1/"
   xmlns:cc="http://creativecommons.org/ns#"
   xmlns:rdf="http://www.w3.org/1999/02/22-rdf-syntax-ns#"
   xmlns:svg="http://www.w3.org/2000/svg"
   xmlns="http://www.w3.org/2000/svg"
   xmlns:sodipodi="http://sodipodi.sourceforge.net/DTD/sodipodi-0.dtd"
   xmlns:inkscape="http://www.inkscape.org/namespaces/inkscape"
   id="svg3481"
   version="1.1"
   inkscape:version="0.91 r13725"
   width="337.82623"
   height="296.68002"
   viewBox="0 0 337.82623 296.68002"
   sodipodi:docname="showplane.svg">
  <metadata
     id="metadata3487">
    <rdf:RDF>
      <cc:Work
         rdf:about="">
        <dc:format>image/svg+xml</dc:format>
        <dc:type
           rdf:resource="http://purl.org/dc/dcmitype/StillImage" />
        <dc:title></dc:title>
      </cc:Work>
    </rdf:RDF>
  </metadata>
  <defs
     id="defs3485" />
  <sodipodi:namedview
     pagecolor="#ffffff"
     bordercolor="#666666"
     borderopacity="1"
     objecttolerance="10"
     gridtolerance="10"
     guidetolerance="10"
     inkscape:pageopacity="0"
     inkscape:pageshadow="2"
     inkscape:window-width="640"
     inkscape:window-height="480"
     id="namedview3483"
     showgrid="false"
     inkscape:zoom="0.472"
     inkscape:cx="182.47457"
     inkscape:cy="130.80335"
     inkscape:window-x="284"
     inkscape:window-y="204"
     inkscape:window-maximized="0"
     inkscape:current-layer="svg3481"
     fit-margin-top="0"
     fit-margin-left="0"
     fit-margin-right="0"
     fit-margin-bottom="0" />
  <path
     style="fill:#000000"
     d="m 228.5,261.19497 c -58.85,-19.47372 -107.58282,-35.41356 -108.29515,-35.42185 -0.71234,-0.008 -9.59402,5.72241 -19.73708,12.73491 l -18.441926,12.75 -0.0129,20.85699 c -0.0117,18.836 -0.17033,20.79658 -1.63743,20.23361 -0.89348,-0.34286 -11.80598,-3.78993 -24.25,-7.66014 -12.44402,-3.87022 -24.055524,-7.48703 -25.803344,-8.03735 l -3.17785,-1.00059 8.068434,-13.69626 c 4.43764,-7.53294 12.56594,-21.34626 18.0629,-30.69626 5.49695,-9.35 10.84493,-18.42129 11.88438,-20.15842 l 1.88991,-3.15842 L 33.524964,196.76635 0,185.59151 0,92.795747 0,0 31.25,10.22498 c 31.856584,10.423447 159.42709,52.496417 161.25736,53.182947 0.55405,0.20782 6.85405,-3.68622 14,-8.65343 L 219.5,45.723207 220,24.942637 220.5,4.16207 247,12.47114 c 14.575,4.569977 26.78989,8.416567 27.1442,8.547967 0.35431,0.13141 -7.02996,13.265 -16.40948,29.18576 -12.30617,20.88843 -16.6613,29.0828 -15.6442,29.43522 0.77521,0.2686 22.55948,7.52197 48.40948,16.11859 l 47,15.630223 0.25518,92.68456 c 0.20333,73.85349 1.6e-4,92.66869 -1,92.60642 C 336.06483,296.63688 287.35,280.66868 228.5,261.19497 Z M 317.75666,197.50803 317.5,126.25803 275,112.09887 c -23.375,-7.78754 -43.175,-14.197093 -44,-14.243453 -0.87159,-0.049 -3.48791,3.369213 -6.24511,8.159163 l -4.74511,8.24345 -0.005,-10.16141 -0.005,-10.161423 -10.3182,-3.45519 -10.3182,-3.45518 -37.40241,25.866603 c -20.57133,14.22663 -37.64064,25.86667 -37.9318,25.86675 -0.29117,8e-5 -0.4489,-5.96242 -0.35053,-13.25 l 0.17885,-13.25015 3.97554,-3 c 2.18655,-1.65 13.04044,-9.24063 24.11976,-16.868063 11.07931,-7.62743 20.007,-14.00526 19.83931,-14.17296 -0.62613,-0.62634 -149.19272,-49.45898 -150.47195,-49.45898 -1.10123,0 -1.28878,12.40339 -1.07682,71.21461 L 20.5,171.18725 l 28.500004,9.28656 c 25.04084,8.15942 28.62137,9.09385 29.5,7.69877 3.14343,-4.99112 3.4352,-5.06609 3.4682,-0.89116 l 0.0318,4.0234 15.95386,5.28315 15.953866,5.28314 15.79613,-10.88527 c 8.68788,-5.9869 23.05425,-15.91235 31.92527,-22.05654 8.87103,-6.1442 16.29603,-11.17139 16.5,-11.17154 0.43958,-3.2e-4 0.11852,27.12322 -0.32489,27.44788 -0.16733,0.12252 -8.6136,5.93873 -18.76948,12.92491 -14.16952,9.74714 -18.00806,12.82911 -16.5,13.24791 1.08088,0.30017 40.44024,13.29739 87.46524,28.8827 47.025,15.58531 86.0655,28.37291 86.75666,28.4169 1.00012,0.0636 1.20427,-14.46541 1,-71.17003 z m -228.885476,21.79947 4.33326,-2.95053 -3.35222,-1.15662 c -8.52394,-2.94102 -7.85222,-3.20107 -7.85222,3.03998 0,4.29189 0.29938,5.42842 1.26896,4.81739 0.69793,-0.43983 3.21893,-2.12743 5.60222,-3.75022 z"
     id="path3491"
     inkscape:connector-curvature="0" />
</svg>
