<?xml version="1.0" encoding="UTF-8" standalone="no"?>
<!-- Created with Inkscape (http://www.inkscape.org/) -->

<svg
   xmlns:dc="http://purl.org/dc/elements/1.1/"
   xmlns:cc="http://creativecommons.org/ns#"
   xmlns:rdf="http://www.w3.org/1999/02/22-rdf-syntax-ns#"
   xmlns:svg="http://www.w3.org/2000/svg"
   xmlns="http://www.w3.org/2000/svg"
   xmlns:sodipodi="http://sodipodi.sourceforge.net/DTD/sodipodi-0.dtd"
   xmlns:inkscape="http://www.inkscape.org/namespaces/inkscape"
   id="svg4631"
   version="1.1"
   inkscape:version="0.91 r13725"
   width="626"
   height="626"
   viewBox="0 0 626 626"
   sodipodi:docname="sphere_wireframe.jpg.svg">
  <metadata
     id="metadata4637">
    <rdf:RDF>
      <cc:Work
         rdf:about="">
        <dc:format>image/svg+xml</dc:format>
        <dc:type
           rdf:resource="http://purl.org/dc/dcmitype/StillImage" />
        <dc:title></dc:title>
      </cc:Work>
    </rdf:RDF>
  </metadata>
  <defs
     id="defs4635" />
  <sodipodi:namedview
     pagecolor="#ffffff"
     bordercolor="#666666"
     borderopacity="1"
     objecttolerance="10"
     gridtolerance="10"
     guidetolerance="10"
     inkscape:pageopacity="0"
     inkscape:pageshadow="2"
     inkscape:window-width="640"
     inkscape:window-height="480"
     id="namedview4633"
     showgrid="false"
     inkscape:zoom="0.37699681"
     inkscape:cx="313"
     inkscape:cy="313"
     inkscape:window-x="0"
     inkscape:window-y="0"
     inkscape:window-maximized="0"
     inkscape:current-layer="svg4631" />
  <path
     style="fill:#000000"
     d="m 284,627.76468 c -34.53506,-3.54604 -67.21665,-12.00779 -96.5,-24.98529 -10.85908,-4.81242 -27.21499,-13.30508 -34.16676,-17.74079 -3.75828,-2.39804 -7.50824,-4.63591 -8.33324,-4.97304 -2.74501,-1.12174 -25.62188,-18.157 -34.12158,-25.40865 C 53.814336,505.97188 16.948646,440.9195 4.6109458,367.1397 c -6.14637,-36.75543 -6.00256,-66.29583 0.50781,-104.31505 C 21.720406,165.87447 84.547016,81.079061 172.03584,37.54107 188.24585,29.474315 192.99245,27.340375 203.5,23.395661 245.07228,7.788716 291.56556,0.97735 333.60478,4.335027 375.27548,7.663269 409.07974,16.356431 445.5,33.110193 c 21.91571,10.081494 34.53001,17.77725 56.04967,34.194892 24.99662,19.070276 47.27257,41.680325 64.18919,65.151945 13.20619,18.32346 27.65229,43.69832 35.12314,61.69452 15.43431,37.17904 23.23771,73.39665 24.80837,115.14217 2.15827,57.36311 -15.5275,121.78105 -47.27034,172.17563 -4.27356,6.78465 -8.60341,13.46073 -9.62189,14.83573 -5.98523,8.08035 -15.86042,20.43078 -21.16047,26.4644 -6.74921,7.68335 -26.40256,27.06579 -31.11767,30.68875 -1.65,1.26782 -5.7,4.57371 -9,7.34643 -7.97604,6.70163 -25.63507,18.79603 -38,26.02562 -54.62823,31.94032 -124.00168,47.249 -185.5,40.9344 z m 54.66669,-24.79296 c 0.87682,-0.87682 -7.67245,-53.55216 -8.8052,-54.25224 -0.45182,-0.27924 -8.81799,0.4024 -18.59149,1.51476 -9.7735,1.11236 -26.22352,2.42438 -36.55561,2.9156 -10.33208,0.49122 -19.02277,1.13029 -19.31264,1.42016 -0.28987,0.28987 3.66365,4.56472 8.78561,9.49967 13.85991,13.35388 26.97531,23.97593 42.81264,34.67362 l 8.5,5.74151 11.23026,-0.40346 c 6.17665,-0.2219 11.54804,-0.72123 11.93643,-1.10962 z m -72.7068,-3.41664 c -0.022,-0.4125 -2.38455,-2.55 -5.25,-4.75 -2.86544,-2.2 -13.44583,-12.27484 -23.51198,-22.38854 L 218.89583,554.028 198.19791,552.64247 C 186.81406,551.88044 173,550.65859 167.5,549.92726 c -5.5,-0.73133 -10.16849,-1.18951 -10.37443,-1.01817 -0.50389,0.41923 3.74499,5.45407 11.60977,13.75736 5.7456,6.06596 8.02143,7.59899 19.63183,13.22433 19.93996,9.66109 39.32014,16.49192 60.63283,21.37095 13.13488,3.00691 17.02619,3.5331 16.95989,2.29335 z M 392.13497,585.7328 C 396.73574,580.21581 402.3,573.04226 404.5,569.79159 c 2.2,-3.25067 4.675,-6.72299 5.5,-7.71625 3.93322,-4.73544 20.33217,-32.77142 19.59816,-33.50543 -0.23258,-0.23258 -5.66359,0.97573 -12.0689,2.68513 -16.20799,4.32548 -35.94439,8.75227 -49.50001,11.10265 -6.30891,1.09389 -11.87708,2.39522 -12.3737,2.89184 -0.53727,0.53727 -0.42609,3.46502 0.27452,7.22925 0.64761,3.47947 2.63025,15.1013 4.40585,25.8263 1.77561,10.725 3.53095,19.98642 3.90075,20.58092 0.46691,0.75062 3.55415,0.43871 10.10282,-1.02069 l 9.43045,-2.10162 8.36503,-10.03089 z m 49.16463,-11.49021 c 12.42909,-6.17613 15.71173,-8.07694 30.69175,-17.77202 10.48776,-6.78768 18.70377,-13.07261 31.00865,-23.72043 17.94861,-15.53153 21.1277,-19.87372 30.63148,-41.83833 1.87842,-4.3413 3.22198,-8.0866 2.98569,-8.32289 -0.23629,-0.2363 -4.11511,1.6616 -8.6196,4.21754 -8.69933,4.93618 -28.50299,14.83661 -35.99757,17.99625 -2.475,1.04343 -9.64627,3.96242 -15.93616,6.48664 l -11.43616,4.58949 -8.09223,15.96312 c -8.81588,17.39063 -14.60244,27.49374 -23.03206,40.21312 -3.00718,4.5375 -5.22833,8.25 -4.93589,8.25 0.29243,0 6.02188,-2.72812 12.7321,-6.06249 z M 284.5,528.26055 c 14.81894,-1.20554 40.88127,-4.02088 41.33566,-4.46522 0.35386,-0.34604 -0.0238,-2.72531 -7.3789,-46.49025 -2.5419,-15.125 -5.08891,-30.5375 -5.66001,-34.25 -1.21884,-7.92324 0.71122,-7.41717 -19.93994,-5.22824 -37.5383,3.97888 -81.26039,5.47022 -104.35681,3.55956 -4.95,-0.40949 -9.31518,-0.48263 -9.7004,-0.16253 -0.76505,0.63573 12.54043,27.83532 19.79988,40.47572 5.94163,10.34578 16.96687,26.6701 26.32972,38.98465 l 7.5112,9.87916 20.0298,-0.66332 C 263.48659,529.53526 277.9,528.79747 284.5,528.26055 Z M 198,527.26771 c 0,-0.57055 -2.84921,-5.18305 -6.33159,-10.25 -12.60075,-18.33444 -27.22548,-44.76057 -34.70637,-62.71263 -7.21552,-17.31524 -6.43814,-16.38698 -14.46333,-17.27062 -9.22968,-1.01627 -31.56466,-5.26048 -43.679934,-8.30029 -5.32467,-1.336 -10.34894,-2.42909 -11.16504,-2.42909 -2.79358,0 15.039464,42.19556 25.569014,60.5 1.26554,2.2 3.84796,6.7 5.73871,10 2.84296,4.96193 13.38185,21.13945 14.55352,22.3401 0.68793,0.70495 20.52947,4.22539 34.48502,6.1186 22.81964,3.09572 30,3.57535 30,2.00393 z m 176.2087,-11.09475 c 18.64217,-3.68813 38.39351,-8.72918 56.37931,-14.38943 15.90393,-5.00507 13.85507,-3.06417 20.03408,-18.97845 6.28828,-16.19571 14.28345,-46.85348 17.79363,-68.23029 3.30557,-20.1308 3.41957,-21.26971 2.12887,-21.26971 -0.60997,0 -7.61953,2.64354 -15.57681,5.87454 -15.73097,6.38745 -38.36538,14.22954 -49.46778,17.13899 -3.85,1.00891 -12.85,3.4018 -20,5.31752 -7.15,1.91572 -20.2,4.89461 -29,6.61975 -8.8,1.72515 -17.0125,3.35053 -18.25,3.61197 -2.67163,0.56441 -2.68,0.69231 -0.71607,10.93723 0.84348,4.4 2.15936,12.05 2.92418,17 2.48273,16.06834 9.58244,57.96504 10.04306,59.26586 0.53297,1.50516 2.93616,1.21139 23.70753,-2.89798 z M 88.433446,492.55508 c -10.19755,-19.40644 -19.26628,-40.59826 -26.39554,-61.68111 l -4.71086,-13.93111 -7.84805,-3.30103 c -4.31643,-1.81557 -8.02529,-3.12379 -8.24191,-2.90717 -1.15134,1.15134 12.12778,31.98732 18.97836,44.07042 10.14821,17.89947 30.12216,46.5 32.47453,46.5 0.18774,0 -1.7277,-3.9375 -4.25653,-8.75 z M 500.5,473.32411 c 18.85185,-9.58137 26.25127,-13.87853 40.97862,-23.79801 l 9.97862,-6.72102 3.28995,-13 c 4.17622,-16.50208 8.76355,-43.3664 10.16017,-59.5 1.32913,-15.35394 1.86249,-35 0.95019,-35 -0.37082,0 -3.07796,1.9346 -6.01588,4.29911 -13.38801,10.77502 -37.0116,26.40486 -53.03817,35.09111 -9.95839,5.39735 -8.63805,2.29955 -11.3416,26.60978 -2.60946,23.4642 -8.10225,49.18226 -15.54029,72.76196 -1.60688,5.09407 -2.92161,9.45817 -2.92161,9.69798 0,1.01908 7.5648,-2.34192 23.5,-10.44091 z M 253.81261,416.30973 c 23.51478,-1.59357 50.98132,-4.25926 52.30304,-5.07612 0.93854,-0.58005 0.6886,-3.81301 -1.08934,-14.09065 -1.26903,-7.33583 -2.88541,-16.93788 -3.59196,-21.33788 -4.43621,-27.62643 -16.54241,-97.94139 -16.92927,-98.32826 -0.25595,-0.25594 -8.6868,0.34498 -18.73522,1.33538 -26.45691,2.60767 -79.03361,3.17146 -100.89347,1.08191 -9.14298,-0.87397 -17.13048,-1.58903 -17.75,-1.58903 -1.85539,0 -1.34586,31.17715 0.8335,51 2.73432,24.87056 8.84527,52.95926 16.75204,77 l 2.79558,8.5 11.49624,1.11203 c 14.93628,1.44478 56.09557,1.6608 74.80886,0.39262 z M 140,411.2043 c 0,-0.60542 -1.33552,-5.68536 -2.96782,-11.28875 -9.80192,-33.64817 -14.78854,-66.20908 -15.73733,-102.75919 l -0.58792,-22.64873 -6.10347,-1.13173 c -11.39147,-2.11224 -29.070164,-6.22616 -37.862694,-8.81082 -4.81757,-1.41618 -9.04411,-2.28999 -9.3923,-1.9418 -2.07378,2.07378 -2.91529,46.83097 -1.31014,69.6818 1.11333,15.8493 5.6344,43.63689 9.26356,56.93607 l 2.30208,8.43606 7.44801,2.31598 c 9.27346,2.88361 31.362444,8.07573 43.948024,10.33021 5.225,0.93596 9.8375,1.76474 10.25,1.84172 0.4125,0.077 0.75,-0.35539 0.75,-0.96082 z m 448.74386,-11.64922 c 4.39493,-14.66177 7.97213,-30.5885 9.8264,-43.75 1.53824,-10.91826 3.22308,-53.5 2.11685,-53.5 -0.31741,0 -2.56932,2.10853 -5.00424,4.68563 l -4.42713,4.68563 -0.53674,27.06437 c -0.57956,29.22258 -3.34104,59.63969 -6.33827,69.81437 -0.28353,0.9625 -0.14284,1.75 0.31263,1.75 0.45548,0 2.2782,-4.8375 4.0505,-10.75 z m -242.61788,5.81872 c 40.12334,-7.3717 77.40543,-18.96345 115.24359,-35.83153 l 12.86956,-5.73719 -0.6193,-24 c -0.86236,-33.41938 -3.4462,-53.47363 -10.3074,-80 -2.52092,-9.74623 -8.12328,-28.26038 -10.20349,-33.71954 l -1.03628,-2.71954 -15.78633,7.91697 C 398.85217,250.05652 361.37454,262.77834 319.5,270.9262 c -4.95,0.96317 -9.34481,2.03474 -9.76623,2.38128 -0.42143,0.34654 0.11744,5.55026 1.19749,11.56383 2.64889,14.74859 8.57238,50.00332 16.20279,96.43377 2.21449,13.475 4.21304,25.09353 4.44122,25.81895 0.23582,0.74969 1.17704,1.07705 2.18077,0.75848 0.97125,-0.30826 6.53772,-1.43718 12.36994,-2.50871 z M 48.999996,385.41516 c 0,-0.48946 -0.91853,-5.32696 -2.04119,-10.75 -2.62477,-12.67913 -5.63676,-39.85774 -6.46758,-58.36008 -0.57853,-12.88363 0.0311,-28.46454 2.14171,-54.73944 l 0.66187,-8.23944 -3.39741,-1.41414 c -7.02846,-2.92554 -7.0972,-2.88176 -9.09895,5.79454 -5.87024,25.44364 -7.42719,64.06894 -3.7717,93.56918 2.28083,18.40661 3.61911,24.86968 5.58559,26.97493 1.53775,1.64626 13.24342,7.79474 15.13766,7.95115 0.6875,0.0568 1.25,-0.29724 1.25,-0.7867 z M 512.5,342.11153 c 16.35729,-10.248 27.33114,-18.2305 42.75058,-31.09725 l 9.83785,-8.2092 -0.56156,-9.2096 c -0.60903,-9.98812 -5.22656,-36.95269 -8.52632,-49.7904 -4.53096,-17.62766 -11.12571,-37.071 -18.82438,-55.5 -6.90989,-16.54083 -8.54961,-20 -9.48041,-20 -0.49902,0 -4.17678,3.05333 -8.17281,6.78517 -7.36115,6.87451 -25.67744,21.18289 -37.48455,29.28231 -3.55387,2.43789 -6.85001,4.70486 -7.32473,5.03773 -0.47473,0.33286 1.37914,7.53286 4.11972,16 6.72239,20.76913 8.60699,27.8047 12.14899,45.35465 3.66963,18.18228 6.71337,43.79486 7.63593,64.25511 0.4772,10.58338 1.02023,15.02746 1.78387,14.59902 0.6038,-0.33877 6.04782,-3.71716 12.09782,-7.50754 z m 83.98954,-74.88796 c 0.83195,-2.44434 -4.93311,-26.40393 -10.02897,-41.68039 -4.2593,-12.76862 -13.9757,-35.67943 -18.70367,-44.10237 -9.21334,-16.41369 -20.189,-33.3703 -21.0455,-32.51379 -0.29976,0.29975 0.50612,2.64494 1.79084,5.21153 18.45728,36.87366 31.80879,78.02457 38.01497,117.16653 0.39242,2.475 0.95769,4.90957 1.25614,5.41015 0.58833,0.98679 7.83604,-6.90575 8.71619,-9.49166 z M 259.7406,254.38102 c 10.58233,-0.94809 19.5394,-2.02261 19.9046,-2.38781 0.36521,-0.36521 0.18234,-3.93194 -0.40638,-7.92607 -2.11768,-14.36742 -13.35837,-80.21495 -13.76227,-80.61884 -0.22716,-0.22716 -4.58981,0.13101 -9.69478,0.79593 -24.16322,3.14727 -37.39479,4.13351 -63.44501,4.72899 -27.5063,0.62876 -28.17451,0.69262 -28.64665,2.73782 -0.26587,1.15172 -2.10336,8.16904 -4.0833,15.59404 -6.94314,26.03761 -13.12621,64.44293 -10.62397,65.98939 1.39995,0.86522 30.64811,2.98532 45.51716,3.29939 19.28325,0.4073 46.17662,-0.50487 65.2406,-2.21284 z m -136.37835,-8.32594 c 0.32166,-1.7875 1.08239,-7.525 1.69051,-12.75 1.41172,-12.12947 6.08195,-36.01244 10.12102,-51.75757 1.72943,-6.74167 2.95005,-12.45194 2.71249,-12.68949 -0.23755,-0.23756 -6.94664,-1.14107 -14.90909,-2.00782 -7.96245,-0.86675 -18.65548,-2.17544 -23.762294,-2.90821 -5.10681,-0.73277 -9.46931,-1.03426 -9.69445,-0.66998 -0.50604,0.81879 -5.4665,16.61224 -8.80473,28.03307 -4.876,16.68193 -10.69027,44.35877 -9.55687,45.49217 1.49563,1.49563 43.530304,12.1218 48.979874,12.38189 2.22729,0.1063 2.72989,-0.38079 3.22354,-3.12406 z m 196.63937,-0.2892 c 39.31752,-7.98786 78.42632,-22.00733 112.97922,-40.50007 l 9.83146,-5.2618 -3.50234,-7.59947 c -1.92629,-4.1797 -4.00705,-8.72446 -4.6239,-10.09946 -5.97163,-13.311 -32.42337,-57.51175 -35.55465,-59.41166 -0.34727,-0.21071 -5.58141,1.86979 -11.63141,4.62333 -23.45167,10.67358 -54.78861,21.28361 -80.72628,27.33224 l -16.72628,3.90054 0.59013,4.02777 c 0.32457,2.21528 1.47511,9.20278 2.55675,15.52778 1.08164,6.325 2.79844,16.675 3.81512,23 2.98139,18.54794 6.97778,42.31822 7.52363,44.75 0.62509,2.78487 0.30829,2.7908 15.46855,-0.2892 z M 49.193716,217.80003 c 0.98092,-4.94722 2.95692,-13.63915 4.39111,-19.31539 1.43419,-5.67624 2.40768,-10.52039 2.1633,-10.76477 -0.48902,-0.48901 -7.5923,14.45517 -10.25991,21.58521 -0.92599,2.475 -2.53965,6.60842 -3.58592,9.18538 -2.42138,5.96389 -2.38941,6.68069 0.3477,7.7954 4.37429,1.78145 5.07864,0.92068 6.94372,-8.48583 z M 469.86749,182.55508 c 1.95595,-1.5125 4.99822,-3.65 6.76059,-4.75 3.87101,-2.41613 28.00607,-22.47241 34.57626,-28.73295 l 4.70435,-4.48262 -6.5238,-10.89222 c -5.59706,-9.34492 -18.22334,-28.45355 -25.79021,-39.030939 -6.28947,-8.79176 -12.99049,-16.42336 -14.06027,-16.01284 -0.66178,0.25394 -6.11524,4.023 -12.11882,8.37567 -12.53027,9.08462 -22.63813,15.753129 -30.15118,19.891799 -2.87958,1.58626 -5.24208,3.22982 -5.25,3.65236 -0.008,0.42255 2.84713,5.14755 6.34457,10.5 10.40545,15.92442 18.2548,29.7397 26.94164,47.41874 4.65218,9.4679 8.80747,16.71425 9.60499,16.75 0.77308,0.0346 3.00593,-1.1745 4.96188,-2.687 z M 226,142.80188 c 17.25992,-1.65695 33.08751,-3.46258 34.56001,-3.94264 0.69459,-0.22645 -0.2482,-8.05178 -2.73487,-22.69987 -2.08718,-12.29486 -4.66168,-27.754289 -5.7211,-34.354289 -4.38319,-27.306269 -7.37178,-44.042265 -7.98513,-44.716451 -0.3585,-0.39405 -5.49467,0.73095 -11.41371,2.5 l -10.76189,3.216455 -4.88628,8.108901 C 205.46718,70.147652 188.97879,102.83936 181.3024,121.80508 177.52221,131.14462 173,143.58698 173,144.64819 c 0,1.21706 33.10168,0.0639 53,-1.84631 z m -75.32573,-10.9968 c 6.65973,-18.01506 15.88135,-39.182429 24.57325,-56.405583 4.27605,-8.473073 7.58717,-15.593057 7.35804,-15.822187 -0.22913,-0.229129 -2.25017,0.740885 -4.49121,2.155588 -2.24103,1.414703 -4.36631,2.572187 -4.72283,2.572187 -0.7518,0 -18.94273,11.34209 -25.02964,15.606046 -9.35772,6.55518 -19.41213,14.62878 -28.23813,22.674929 -8.34864,7.61098 -9.73053,9.37921 -12.79766,16.37566 -1.89112,4.31385 -4.61837,10.42562 -6.06055,13.58172 -1.442184,3.1561 -2.387434,5.97308 -2.100554,6.25996 0.937604,0.9376 38.101444,5.2795 43.704094,5.10601 l 3.36909,-0.10433 4.4361,-12 z M 298.5,131.72718 c 16.76314,-3.96878 30.40619,-8.00412 48,-14.19744 18.50068,-6.51256 37.12179,-14.77448 36.72984,-16.29653 -1.19145,-4.626839 -40.68022,-47.882549 -58.05453,-63.592519 l -10.3247,-9.335606 -10.50524,0 c -9.21114,0 -34.19176,2.513054 -35.22205,3.543344 -0.48584,0.485842 0.2833,5.396962 8.84182,56.456652 7.44931,44.442199 7.74743,45.991809 8.85225,46.013239 0.37543,0.007 5.63261,-1.15871 11.68261,-2.59109 z M 417.34006,84.155611 C 427.20471,78.184881 449,63.400101 449,62.679184 c 0,-0.646074 -21.36835,-10.986017 -27.5,-13.30699 -3.3,-1.249127 -8.13341,-3.135983 -10.74091,-4.193011 -11.90498,-4.826048 -53.02948,-14.937039 -54.55377,-13.412752 -0.30764,0.307644 3.7089,4.942196 8.92565,10.299004 13.79707,14.167477 30.04232,32.798612 37.89345,43.458726 1.91157,2.5955 3.62861,4.733 3.81564,4.75 0.18703,0.017 4.91203,-2.73634 10.5,-6.11855 z"
     id="path4641"
     inkscape:connector-curvature="0" />
</svg>
