<?xml version="1.0" encoding="UTF-8" standalone="no"?>
<!-- Created with Inkscape (http://www.inkscape.org/) -->

<svg
   xmlns:dc="http://purl.org/dc/elements/1.1/"
   xmlns:cc="http://creativecommons.org/ns#"
   xmlns:rdf="http://www.w3.org/1999/02/22-rdf-syntax-ns#"
   xmlns:svg="http://www.w3.org/2000/svg"
   xmlns="http://www.w3.org/2000/svg"
   xmlns:sodipodi="http://sodipodi.sourceforge.net/DTD/sodipodi-0.dtd"
   xmlns:inkscape="http://www.inkscape.org/namespaces/inkscape"
   width="122.48773mm"
   height="102.0723mm"
   viewBox="0 0 434.01165 361.67352"
   id="svg2"
   version="1.1"
   inkscape:version="0.91 r13725"
   sodipodi:docname="telescope_tbo_full.svg">
  <defs
     id="defs4">
    <clipPath
       id="clipPath3369"
       clipPathUnits="userSpaceOnUse">
      <path
         inkscape:connector-curvature="0"
         id="path3371"
         d="m 0,104.667 250,0 L 250,0 0,0 0,104.667 Z" />
    </clipPath>
  </defs>
  <sodipodi:namedview
     id="base"
     pagecolor="#ffffff"
     bordercolor="#666666"
     borderopacity="1.0"
     inkscape:pageopacity="0.0"
     inkscape:pageshadow="2"
     inkscape:zoom="0.35"
     inkscape:cx="167.31541"
     inkscape:cy="124.04369"
     inkscape:document-units="px"
     inkscape:current-layer="layer1"
     showgrid="false"
     inkscape:window-width="1920"
     inkscape:window-height="1032"
     inkscape:window-x="0"
     inkscape:window-y="0"
     inkscape:window-maximized="1"
     fit-margin-top="0"
     fit-margin-left="0"
     fit-margin-right="0"
     fit-margin-bottom="0" />
  <metadata
     id="metadata7">
    <rdf:RDF>
      <cc:Work
         rdf:about="">
        <dc:format>image/svg+xml</dc:format>
        <dc:type
           rdf:resource="http://purl.org/dc/dcmitype/StillImage" />
        <dc:title></dc:title>
      </cc:Work>
    </rdf:RDF>
  </metadata>
  <g
     inkscape:label="Layer 1"
     inkscape:groupmode="layer"
     id="layer1"
     transform="translate(-207.68459,-294.73237)">
    <g
       id="g3377"
       transform="matrix(11.087036,0,0,-11.087036,248.87897,494.24802)">
      <path
         d="M 0,0 2.635,-5.375 9.396,-2.022 6.761,3.354 0,0 Z"
         style="fill:#000000;fill-opacity:1;fill-rule:nonzero;stroke:none"
         id="path3379"
         inkscape:connector-curvature="0" />
    </g>
    <g
       id="g3381"
       transform="matrix(11.087036,0,0,-11.087036,213.69087,486.04139)">
      <path
         d="m 0,0 c -0.233,-0.115 -0.407,-0.314 -0.49,-0.561 -0.083,-0.246 -0.066,-0.51 0.05,-0.743 l 3.646,-7.351 c 0.166,-0.333 0.5,-0.54 0.872,-0.54 0.149,0 0.298,0.035 0.432,0.101 L 5.917,-8.389 1.449,0.726 0,0 Z"
         style="fill:#000000;fill-opacity:1;fill-rule:nonzero;stroke:none"
         id="path3383"
         inkscape:connector-curvature="0" />
    </g>
    <g
       id="g3385"
       transform="matrix(11.087036,0,0,-11.087036,640.57397,396.95484)">
      <path
         d="m 0,0 -4.306,8.68 c -0.165,0.333 -0.499,0.54 -0.872,0.54 -0.148,0 -0.298,-0.035 -0.431,-0.101 L -17.742,3.1 c -0.109,-0.054 -0.197,-0.129 -0.276,-0.213 l 5.051,-10.302 c 0.136,0.005 0.273,0.032 0.395,0.093 l 12.134,6.018 C 0.042,-1.065 0.238,-0.48 0,0"
         style="fill:#000000;fill-opacity:1;fill-rule:nonzero;stroke:none"
         id="path3387"
         inkscape:connector-curvature="0" />
    </g>
    <g
       id="g3389"
       transform="matrix(11.087036,0,0,-11.087036,325.25417,434.24387)">
      <path
         d="m 0,0 c -0.04,-0.02 -0.048,-0.071 -0.084,-0.096 l 4.172,-8.508 c 0.053,0.016 0.109,0.013 0.16,0.038 L 5.8,-7.796 C 6.141,-8.294 6.59,-8.695 7.106,-8.977 L 3.723,-19.361 c -0.11,-0.241 -0.003,-0.524 0.238,-0.634 0.063,-0.028 0.131,-0.043 0.197,-0.043 0.182,0 0.356,0.105 0.436,0.282 L 8,-9.324 c 0.295,-0.074 0.603,-0.114 0.916,-0.114 0.316,0 0.622,0.043 0.915,0.116 l 3.407,-10.434 c 0.08,-0.177 0.254,-0.282 0.437,-0.282 0.065,0 0.133,0.014 0.197,0.043 0.24,0.109 0.347,0.393 0.238,0.634 l -3.384,10.384 c 1.176,0.643 1.977,1.893 1.977,3.326 0,0.404 -0.065,0.801 -0.193,1.183 L 14.249,-3.605 10.04,4.98 0,0 Z"
         style="fill:#000000;fill-opacity:1;fill-rule:nonzero;stroke:none"
         id="path3391"
         inkscape:connector-curvature="0" />
    </g>
  </g>
</svg>
