<?xml version="1.0" encoding="UTF-8" standalone="no"?>
<!-- Created with Inkscape (http://www.inkscape.org/) -->

<svg
   xmlns:dc="http://purl.org/dc/elements/1.1/"
   xmlns:cc="http://creativecommons.org/ns#"
   xmlns:rdf="http://www.w3.org/1999/02/22-rdf-syntax-ns#"
   xmlns:svg="http://www.w3.org/2000/svg"
   xmlns="http://www.w3.org/2000/svg"
   xmlns:sodipodi="http://sodipodi.sourceforge.net/DTD/sodipodi-0.dtd"
   xmlns:inkscape="http://www.inkscape.org/namespaces/inkscape"
   width="124.94387mm"
   height="109.61541mm"
   viewBox="0 0 442.7145 388.40106"
   id="svg2"
   version="1.1"
   inkscape:version="0.91 r13725"
   sodipodi:docname="telescope_tbo_outline.svg">
  <defs
     id="defs4">
    <clipPath
       id="clipPath3369"
       clipPathUnits="userSpaceOnUse">
      <path
         inkscape:connector-curvature="0"
         id="path3371"
         d="m 0,104.667 250,0 L 250,0 0,0 0,104.667 Z" />
    </clipPath>
  </defs>
  <sodipodi:namedview
     id="base"
     pagecolor="#ffffff"
     bordercolor="#666666"
     borderopacity="1.0"
     inkscape:pageopacity="0.0"
     inkscape:pageshadow="2"
     inkscape:zoom="0.35"
     inkscape:cx="176.69617"
     inkscape:cy="169.3632"
     inkscape:document-units="px"
     inkscape:current-layer="layer1"
     showgrid="false"
     inkscape:window-width="1920"
     inkscape:window-height="1032"
     inkscape:window-x="0"
     inkscape:window-y="0"
     inkscape:window-maximized="1"
     fit-margin-top="0"
     fit-margin-left="0"
     fit-margin-right="0"
     fit-margin-bottom="0" />
  <metadata
     id="metadata7">
    <rdf:RDF>
      <cc:Work
         rdf:about="">
        <dc:format>image/svg+xml</dc:format>
        <dc:type
           rdf:resource="http://purl.org/dc/dcmitype/StillImage" />
        <dc:title></dc:title>
      </cc:Work>
    </rdf:RDF>
  </metadata>
  <g
     inkscape:label="Layer 1"
     inkscape:groupmode="layer"
     id="layer1"
     transform="translate(-198.30383,-313.32436)">
    <g
       id="g3373"
       transform="matrix(11.087036,0,0,-11.087036,630.30316,420.50274)">
      <path
         d="M 0,0 -12.134,-6.018 C -12.136,-6.02 -12.138,-6.02 -12.14,-6.02 l -0.015,0.009 -4.304,8.678 c -0.004,0.009 -0.001,0.019 0.006,0.022 L -4.319,8.708 -4.298,8.701 0.007,0.021 C 0.011,0.014 0.007,0.004 0,0 m -15.479,-6.521 c -0.691,1.07 -1.893,1.739 -3.181,1.739 -2.088,0 -3.787,-1.698 -3.787,-3.786 0,-0.447 0.077,-0.881 0.229,-1.295 l -1.535,-0.762 c -0.007,-0.003 -0.018,0 -0.021,0.007 l -3.384,6.823 c -0.003,0.006 0,0.018 0.007,0.021 l 10.288,5.103 3.398,-6.851 -2.014,-0.999 z m -3.181,-4.876 c -1.059,0 -2.021,0.585 -2.51,1.527 l -10e-4,0.002 c -0.211,0.407 -0.319,0.844 -0.319,1.3 0,1.56 1.269,2.829 2.83,2.829 1.084,0 2.086,-0.635 2.554,-1.618 0.183,-0.385 0.275,-0.792 0.275,-1.211 0,-1.56 -1.269,-2.829 -2.829,-2.829 m -13.695,-1.499 -1.81,3.647 6.937,3.441 1.81,-3.648 -6.937,-3.44 z m -1.983,-3.309 c -0.003,-0.002 -0.005,-0.002 -0.007,-0.002 l -0.014,0.009 -3.646,7.351 0.007,0.021 2.051,1.018 3.66,-7.38 -2.051,-1.017 z M -3.441,9.126 c -0.165,0.333 -0.499,0.541 -0.871,0.541 -0.149,0 -0.299,-0.036 -0.433,-0.102 L -16.878,3.546 c -0.48,-0.238 -0.677,-0.822 -0.439,-1.303 l 0.028,-0.057 -10.287,-5.103 c -0.233,-0.116 -0.407,-0.315 -0.49,-0.561 -0.083,-0.246 -0.065,-0.51 0.05,-0.743 l 0.362,-0.73 -6.936,-3.44 -0.925,1.866 -2.908,-1.443 c -0.233,-0.115 -0.407,-0.315 -0.49,-0.561 -0.083,-0.246 -0.065,-0.51 0.051,-0.743 l 3.646,-7.351 c 0.165,-0.334 0.499,-0.541 0.872,-0.541 0.148,0 0.298,0.036 0.431,0.102 l 2.909,1.443 -0.925,1.865 6.936,3.441 0.362,-0.73 c 0.115,-0.233 0.315,-0.407 0.561,-0.49 0.102,-0.034 0.207,-0.051 0.311,-0.051 0.148,0 0.295,0.034 0.431,0.102 l 1.552,0.769 c 0.341,-0.498 0.79,-0.899 1.307,-1.181 l -5.796,-12.795 c -0.109,-0.241 -0.002,-0.524 0.239,-0.633 0.064,-0.03 0.131,-0.043 0.197,-0.043 0.182,0 0.356,0.104 0.436,0.281 l 5.817,12.843 c 0.295,-0.073 0.602,-0.114 0.916,-0.114 0.316,0 0.622,0.043 0.915,0.116 l 5.818,-12.845 c 0.08,-0.177 0.255,-0.281 0.437,-0.281 0.066,0 0.133,0.013 0.197,0.043 0.241,0.109 0.347,0.392 0.238,0.633 l -5.795,12.795 c 1.177,0.644 1.977,1.893 1.977,3.326 0,0.404 -0.065,0.801 -0.193,1.183 l 2.026,1.006 0.029,-0.058 c 0.165,-0.333 0.499,-0.54 0.871,-0.54 0.149,0 0.299,0.035 0.432,0.102 l 12.134,6.018 c 0.48,0.238 0.678,0.823 0.439,1.303 l -4.306,8.68 z"
         style="fill:#000000;fill-opacity:1;fill-rule:nonzero;stroke:none"
         id="path3375"
         inkscape:connector-curvature="0" />
    </g>
  </g>
</svg>
