<?xml version="1.0" encoding="UTF-8" standalone="no"?>
<!-- Created with Inkscape (http://www.inkscape.org/) -->

<svg
   xmlns:dc="http://purl.org/dc/elements/1.1/"
   xmlns:cc="http://creativecommons.org/ns#"
   xmlns:rdf="http://www.w3.org/1999/02/22-rdf-syntax-ns#"
   xmlns:svg="http://www.w3.org/2000/svg"
   xmlns="http://www.w3.org/2000/svg"
   xmlns:sodipodi="http://sodipodi.sourceforge.net/DTD/sodipodi-0.dtd"
   xmlns:inkscape="http://www.inkscape.org/namespaces/inkscape"
   width="55.845886mm"
   height="53.428444mm"
   viewBox="0 0 197.87912 189.31338"
   id="svg2"
   version="1.1"
   inkscape:version="0.48.4 r9939"
   sodipodi:docname="inputs.svg">
  <defs
     id="defs4" />
  <sodipodi:namedview
     id="base"
     pagecolor="#ffffff"
     bordercolor="#666666"
     borderopacity="1.0"
     inkscape:pageopacity="0.0"
     inkscape:pageshadow="2"
     inkscape:zoom="2.8284271"
     inkscape:cx="92.728066"
     inkscape:cy="53.234943"
     inkscape:document-units="px"
     inkscape:current-layer="layer1"
     showgrid="false"
     inkscape:window-width="1280"
     inkscape:window-height="972"
     inkscape:window-x="386"
     inkscape:window-y="24"
     inkscape:window-maximized="0"
     fit-margin-top="0"
     fit-margin-left="0"
     fit-margin-right="0"
     fit-margin-bottom="0">
    <inkscape:grid
       type="xygrid"
       id="grid3438"
       originx="-459.10965"
       originy="-1529.5097" />
  </sodipodi:namedview>
  <metadata
     id="metadata7">
    <rdf:RDF>
      <cc:Work
         rdf:about="">
        <dc:format>image/svg+xml</dc:format>
        <dc:type
           rdf:resource="http://purl.org/dc/dcmitype/StillImage" />
        <dc:title></dc:title>
      </cc:Work>
    </rdf:RDF>
  </metadata>
  <g
     inkscape:label="Layer 1"
     inkscape:groupmode="layer"
     id="layer1"
     transform="translate(-229.55493,-98.293481)">
    <path
       style="fill:#000000;stroke:none"
       d="M 142.0625 11.0625 C 139.93362 11.076833 138.32382 11.70676 137.6875 12.9375 C 137.6875 12.9375 68.0352 99.15303 63.75 104.125 C 53.4402 133.20285 32.71875 162.03125 32.71875 162.03125 C 34.65625 163.28125 35.51858 162.86507 38.09375 166.0625 C 51.07678 156.26036 75.1477 139.44134 94.8125 133.4375 L 171.40625 35.59375 C 173.87864 32.43503 158.53897 17.25839 152.0625 13.90625 C 148.41865 12.018849 144.79963 11.044071 142.0625 11.0625 z M 144.125 15 C 147.20174 14.961797 152.35944 17.355172 157.34375 21.40625 C 163.98949 26.807687 167.82971 33.0941 165.90625 35.4375 C 163.98279 37.7809 157.02074 35.307687 150.375 29.90625 C 143.72926 24.504813 139.92029 18.2184 141.84375 15.875 C 142.32462 15.28915 143.09942 15.012734 144.125 15 z M 138.6875 20.5625 L 141.5625 25.5 L 125.78125 45.40625 C 108.69754 66.32811 93.0237 88.51732 75.125 108.75 C 67.16586 118.2235 54.25071 138.44282 47.90625 148.28125 C 52.27468 138.18396 65.95087 118.27109 68.875 107.59375 C 72.05788 101.03409 77.46941 95.95903 81.96875 90.3125 C 101.23108 66.13887 119.09913 44.47269 138.6875 20.5625 z "
       id="path137"
       transform="translate(229.55493,98.293478)" />
  </g>
</svg>
